G04 #@! TF.GenerationSoftware,KiCad,Pcbnew,7.0.10*
G04 #@! TF.CreationDate,2024-01-31T20:34:01-06:00*
G04 #@! TF.ProjectId,CZ-6BM1,435a2d36-424d-4312-9e6b-696361645f70,rev?*
G04 #@! TF.SameCoordinates,Original*
G04 #@! TF.FileFunction,Soldermask,Top*
G04 #@! TF.FilePolarity,Negative*
%FSLAX46Y46*%
G04 Gerber Fmt 4.6, Leading zero omitted, Abs format (unit mm)*
G04 Created by KiCad (PCBNEW 7.0.10) date 2024-01-31 20:34:01*
%MOMM*%
%LPD*%
G01*
G04 APERTURE LIST*
G04 Aperture macros list*
%AMRoundRect*
0 Rectangle with rounded corners*
0 $1 Rounding radius*
0 $2 $3 $4 $5 $6 $7 $8 $9 X,Y pos of 4 corners*
0 Add a 4 corners polygon primitive as box body*
4,1,4,$2,$3,$4,$5,$6,$7,$8,$9,$2,$3,0*
0 Add four circle primitives for the rounded corners*
1,1,$1+$1,$2,$3*
1,1,$1+$1,$4,$5*
1,1,$1+$1,$6,$7*
1,1,$1+$1,$8,$9*
0 Add four rect primitives between the rounded corners*
20,1,$1+$1,$2,$3,$4,$5,0*
20,1,$1+$1,$4,$5,$6,$7,0*
20,1,$1+$1,$6,$7,$8,$9,0*
20,1,$1+$1,$8,$9,$2,$3,0*%
G04 Aperture macros list end*
%ADD10C,0.100000*%
%ADD11C,0.150000*%
%ADD12R,8.000000X1.800000*%
%ADD13C,6.400000*%
%ADD14C,1.600000*%
%ADD15R,1.600000X1.600000*%
%ADD16O,1.600000X1.600000*%
%ADD17C,1.400000*%
%ADD18O,1.400000X1.400000*%
%ADD19C,2.000000*%
%ADD20RoundRect,0.500000X-1.500000X0.500000X-1.500000X-0.500000X1.500000X-0.500000X1.500000X0.500000X0*%
%ADD21RoundRect,0.500000X-0.500000X1.500000X-0.500000X-1.500000X0.500000X-1.500000X0.500000X1.500000X0*%
%ADD22C,1.500000*%
%ADD23C,1.270000*%
%ADD24R,1.200000X1.200000*%
%ADD25R,13.500000X11.000000*%
%ADD26R,1.700000X1.700000*%
%ADD27O,1.700000X1.700000*%
%ADD28C,3.200000*%
%ADD29C,1.200000*%
%ADD30O,2.204000X4.204000*%
%ADD31O,3.804000X2.004000*%
%ADD32C,1.000000*%
%ADD33R,1.160000X1.160000*%
%ADD34C,1.160000*%
G04 APERTURE END LIST*
D10*
X33565600Y-165014400D02*
X23565600Y-165014400D01*
X23565600Y-37014400D01*
X33565600Y-37014400D01*
X33565600Y-165014400D01*
G36*
X33565600Y-165014400D02*
G01*
X23565600Y-165014400D01*
X23565600Y-37014400D01*
X33565600Y-37014400D01*
X33565600Y-165014400D01*
G37*
D11*
X153150000Y-50420000D02*
X164640000Y-50420000D01*
X164640000Y-61910000D01*
X153150000Y-61910000D01*
X153150000Y-50420000D01*
G36*
X153150000Y-50420000D02*
G01*
X164640000Y-50420000D01*
X164640000Y-61910000D01*
X153150000Y-61910000D01*
X153150000Y-50420000D01*
G37*
D12*
X29565600Y-163474400D03*
X29565600Y-160934400D03*
X29565600Y-158394400D03*
X29565600Y-155854400D03*
X29565600Y-153314400D03*
X29565600Y-150774400D03*
X29565600Y-148234400D03*
X29565600Y-145694400D03*
X29565600Y-143154400D03*
X29565600Y-140614400D03*
X29565600Y-138074400D03*
X29565600Y-135534400D03*
X29565600Y-132994400D03*
X29565600Y-130454400D03*
X29565600Y-127914400D03*
X29565600Y-125374400D03*
X29565600Y-122834400D03*
X29565600Y-120294400D03*
X29565600Y-117754400D03*
X29565600Y-115214400D03*
X29565600Y-112674400D03*
X29565600Y-110134400D03*
X29565600Y-107594400D03*
X29565600Y-105054400D03*
X29565600Y-102514400D03*
X29565600Y-99974400D03*
X29565600Y-97434400D03*
X29565600Y-94894400D03*
X29565600Y-92354400D03*
X29565600Y-89814400D03*
X29565600Y-87274400D03*
X29565600Y-84734400D03*
X29565600Y-82194400D03*
X29565600Y-79654400D03*
X29565600Y-77114400D03*
X29565600Y-74574400D03*
X29565600Y-72034400D03*
X29565600Y-69494400D03*
X29565600Y-66954400D03*
X29565600Y-64414400D03*
X29565600Y-61874400D03*
X29565600Y-59334400D03*
X29565600Y-56794400D03*
X29565600Y-54254400D03*
X29565600Y-51714400D03*
X29565600Y-49174400D03*
X29565600Y-46634400D03*
X29565600Y-44094400D03*
X29565600Y-41554400D03*
X29565600Y-39014400D03*
D13*
X160565600Y-172014400D03*
X160565600Y-36014400D03*
D14*
X69000000Y-60000000D03*
X74000000Y-60000000D03*
D15*
X57500000Y-56040000D03*
D16*
X57500000Y-53500000D03*
X57500000Y-50960000D03*
X57500000Y-48420000D03*
X57500000Y-45880000D03*
X57500000Y-43340000D03*
X57500000Y-40800000D03*
X49880000Y-40800000D03*
X49880000Y-43340000D03*
X49880000Y-45880000D03*
X49880000Y-48420000D03*
X49880000Y-50960000D03*
X49880000Y-53500000D03*
X49880000Y-56040000D03*
D14*
X107840000Y-168200000D03*
X112840000Y-168200000D03*
D15*
X123000000Y-42000000D03*
D14*
X125500000Y-42000000D03*
D17*
X121960000Y-78000000D03*
D18*
X127040000Y-78000000D03*
D15*
X83400000Y-163580000D03*
D16*
X83400000Y-161040000D03*
X83400000Y-158500000D03*
X83400000Y-155960000D03*
X83400000Y-153420000D03*
X83400000Y-150880000D03*
X83400000Y-148340000D03*
X83400000Y-145800000D03*
X83400000Y-143260000D03*
X83400000Y-140720000D03*
X83400000Y-138180000D03*
X83400000Y-135640000D03*
X83400000Y-133100000D03*
X83400000Y-130560000D03*
X83400000Y-128020000D03*
X83400000Y-125480000D03*
X83400000Y-122940000D03*
X83400000Y-120400000D03*
X83400000Y-117860000D03*
X83400000Y-115320000D03*
X68160000Y-115320000D03*
X68160000Y-117860000D03*
X68160000Y-120400000D03*
X68160000Y-122940000D03*
X68160000Y-125480000D03*
X68160000Y-128020000D03*
X68160000Y-130560000D03*
X68160000Y-133100000D03*
X68160000Y-135640000D03*
X68160000Y-138180000D03*
X68160000Y-140720000D03*
X68160000Y-143260000D03*
X68160000Y-145800000D03*
X68160000Y-148340000D03*
X68160000Y-150880000D03*
X68160000Y-153420000D03*
X68160000Y-155960000D03*
X68160000Y-158500000D03*
X68160000Y-161040000D03*
X68160000Y-163580000D03*
D15*
X114400000Y-137540000D03*
D16*
X114400000Y-135000000D03*
X114400000Y-132460000D03*
X114400000Y-129920000D03*
X114400000Y-127380000D03*
X114400000Y-124840000D03*
X114400000Y-122300000D03*
X106780000Y-122300000D03*
X106780000Y-124840000D03*
X106780000Y-127380000D03*
X106780000Y-129920000D03*
X106780000Y-132460000D03*
X106780000Y-135000000D03*
X106780000Y-137540000D03*
D17*
X135520000Y-48090000D03*
D18*
X135520000Y-53170000D03*
D14*
X122000000Y-62000000D03*
X127000000Y-62000000D03*
D19*
X149500000Y-75500000D03*
D17*
X82500000Y-90040000D03*
D18*
X82500000Y-84960000D03*
D15*
X111400000Y-58080000D03*
D16*
X111400000Y-55540000D03*
X111400000Y-53000000D03*
X111400000Y-50460000D03*
X111400000Y-47920000D03*
X111400000Y-45380000D03*
X111400000Y-42840000D03*
X111400000Y-40300000D03*
X103780000Y-40300000D03*
X103780000Y-42840000D03*
X103780000Y-45380000D03*
X103780000Y-47920000D03*
X103780000Y-50460000D03*
X103780000Y-53000000D03*
X103780000Y-55540000D03*
X103780000Y-58080000D03*
D20*
X161180000Y-93210000D03*
D21*
X161980000Y-99960000D03*
D20*
X161180000Y-106710000D03*
D22*
X158180000Y-98660000D03*
X158180000Y-96560000D03*
X158180000Y-103360000D03*
X155680000Y-96560000D03*
X155680000Y-103360000D03*
D17*
X121960000Y-82000000D03*
D18*
X127040000Y-82000000D03*
D15*
X91450000Y-141450000D03*
D16*
X91450000Y-138910000D03*
X91450000Y-136370000D03*
X91450000Y-133830000D03*
X91450000Y-131290000D03*
X91450000Y-128750000D03*
X91450000Y-126210000D03*
X91450000Y-123670000D03*
X91450000Y-121130000D03*
D17*
X141460000Y-157500000D03*
D18*
X141460000Y-152420000D03*
D14*
X108310000Y-141880000D03*
X113310000Y-141880000D03*
D15*
X75120000Y-56040000D03*
D16*
X75120000Y-53500000D03*
X75120000Y-50960000D03*
X75120000Y-48420000D03*
X75120000Y-45880000D03*
X75120000Y-43340000D03*
X75120000Y-40800000D03*
X67500000Y-40800000D03*
X67500000Y-43340000D03*
X67500000Y-45880000D03*
X67500000Y-48420000D03*
X67500000Y-50960000D03*
X67500000Y-53500000D03*
X67500000Y-56040000D03*
D15*
X95200000Y-57000000D03*
D16*
X95200000Y-54460000D03*
X95200000Y-51920000D03*
X95200000Y-49380000D03*
X95200000Y-46840000D03*
X95200000Y-44300000D03*
X95200000Y-41760000D03*
X87580000Y-41760000D03*
X87580000Y-44300000D03*
X87580000Y-46840000D03*
X87580000Y-49380000D03*
X87580000Y-51920000D03*
X87580000Y-54460000D03*
X87580000Y-57000000D03*
D23*
X143780000Y-48050000D03*
X147280001Y-48050000D03*
D15*
X57600000Y-80580000D03*
D16*
X57600000Y-78040000D03*
X57600000Y-75500000D03*
X57600000Y-72960000D03*
X57600000Y-70420000D03*
X57600000Y-67880000D03*
X57600000Y-65340000D03*
X49980000Y-65340000D03*
X49980000Y-67880000D03*
X49980000Y-70420000D03*
X49980000Y-72960000D03*
X49980000Y-75500000D03*
X49980000Y-78040000D03*
X49980000Y-80580000D03*
D17*
X143960000Y-70000000D03*
D18*
X149040000Y-70000000D03*
D22*
X120150000Y-154350000D03*
X120150000Y-149450000D03*
D24*
X129400000Y-157800000D03*
D25*
X129400000Y-151900000D03*
D24*
X129400000Y-146000000D03*
D17*
X122000000Y-70000000D03*
D18*
X127080000Y-70000000D03*
D17*
X151130000Y-48050000D03*
D18*
X151130000Y-53130000D03*
D14*
X68500000Y-109500000D03*
X73500000Y-109500000D03*
X106000000Y-87000000D03*
X111000000Y-87000000D03*
X120000000Y-140000000D03*
X120000000Y-137500000D03*
D17*
X121960000Y-74000000D03*
D18*
X127040000Y-74000000D03*
D15*
X86870000Y-70580000D03*
D16*
X86870000Y-73120000D03*
X94490000Y-73120000D03*
X94490000Y-70580000D03*
D15*
X40500000Y-40500000D03*
D14*
X43000000Y-40500000D03*
D17*
X79500000Y-90040000D03*
D18*
X79500000Y-84960000D03*
D14*
X110540000Y-62110000D03*
X105540000Y-62110000D03*
D17*
X79000000Y-66000000D03*
D18*
X79000000Y-60920000D03*
D17*
X151470000Y-43630000D03*
D18*
X151470000Y-38550000D03*
D17*
X128500000Y-142500000D03*
D18*
X128500000Y-137420000D03*
D17*
X149670000Y-137350000D03*
D18*
X149670000Y-132270000D03*
D26*
X80000000Y-80500000D03*
D27*
X82540000Y-80500000D03*
X85080000Y-80500000D03*
D15*
X75000000Y-105000000D03*
D16*
X75000000Y-102460000D03*
X75000000Y-99920000D03*
X75000000Y-97380000D03*
X75000000Y-94840000D03*
X75000000Y-92300000D03*
X75000000Y-89760000D03*
X67380000Y-89760000D03*
X67380000Y-92300000D03*
X67380000Y-94840000D03*
X67380000Y-97380000D03*
X67380000Y-99920000D03*
X67380000Y-102460000D03*
X67380000Y-105000000D03*
D15*
X143500000Y-36190000D03*
D16*
X143500000Y-43810000D03*
D14*
X51500000Y-135500000D03*
X56500000Y-135500000D03*
D28*
X160460000Y-56250000D03*
D17*
X79000000Y-57500000D03*
D18*
X79000000Y-52420000D03*
D17*
X121960000Y-86000000D03*
D18*
X127040000Y-86000000D03*
D17*
X139500000Y-53000000D03*
D18*
X139500000Y-47920000D03*
D17*
X85500000Y-84970000D03*
D18*
X85500000Y-90050000D03*
D24*
X133490000Y-75820000D03*
D29*
X138490000Y-75820000D03*
D17*
X133460000Y-70000000D03*
D18*
X138540000Y-70000000D03*
D15*
X149450000Y-147745000D03*
D16*
X149450000Y-145205000D03*
X149450000Y-142665000D03*
X141830000Y-142665000D03*
X141830000Y-145205000D03*
X141830000Y-147745000D03*
D15*
X114340000Y-163280000D03*
D16*
X114340000Y-160740000D03*
X114340000Y-158200000D03*
X114340000Y-155660000D03*
X114340000Y-153120000D03*
X114340000Y-150580000D03*
X114340000Y-148040000D03*
X106720000Y-148040000D03*
X106720000Y-150580000D03*
X106720000Y-153120000D03*
X106720000Y-155660000D03*
X106720000Y-158200000D03*
X106720000Y-160740000D03*
X106720000Y-163280000D03*
D14*
X56720000Y-167790000D03*
X51720000Y-167790000D03*
X51500000Y-84500000D03*
X56500000Y-84500000D03*
D17*
X127000000Y-170000000D03*
D18*
X127000000Y-164920000D03*
D15*
X139500000Y-170000000D03*
D14*
X139500000Y-167500000D03*
X88500000Y-62000000D03*
X93500000Y-62000000D03*
D17*
X131500000Y-53000000D03*
D18*
X131500000Y-47920000D03*
D17*
X126680000Y-66050000D03*
D18*
X121600000Y-66050000D03*
D17*
X125500000Y-142500000D03*
D18*
X125500000Y-137420000D03*
D17*
X139500000Y-44000000D03*
D18*
X139500000Y-38920000D03*
D17*
X124000000Y-170000000D03*
D18*
X124000000Y-164920000D03*
D20*
X161180000Y-110870000D03*
D21*
X161980000Y-117620000D03*
D20*
X161180000Y-124370000D03*
D22*
X158180000Y-116320000D03*
X158180000Y-114220000D03*
X158180000Y-121020000D03*
X155680000Y-114220000D03*
X155680000Y-121020000D03*
D17*
X150000000Y-66540000D03*
D18*
X150000000Y-61460000D03*
D14*
X74080000Y-167740000D03*
X69080000Y-167740000D03*
D17*
X135490000Y-38920000D03*
D18*
X135490000Y-44000000D03*
D30*
X162000000Y-68122500D03*
D31*
X158300000Y-71872500D03*
X158300000Y-64372500D03*
D14*
X69000000Y-84000000D03*
X74000000Y-84000000D03*
X120000000Y-165000000D03*
X120000000Y-162500000D03*
D15*
X98980000Y-163570000D03*
D16*
X98980000Y-161030000D03*
X98980000Y-158490000D03*
X98980000Y-155950000D03*
X98980000Y-153410000D03*
X98980000Y-150870000D03*
X98980000Y-148330000D03*
X91360000Y-148330000D03*
X91360000Y-150870000D03*
X91360000Y-153410000D03*
X91360000Y-155950000D03*
X91360000Y-158490000D03*
X91360000Y-161030000D03*
X91360000Y-163570000D03*
D19*
X147500000Y-55000000D03*
D15*
X75000000Y-80580000D03*
D16*
X75000000Y-78040000D03*
X75000000Y-75500000D03*
X75000000Y-72960000D03*
X75000000Y-70420000D03*
X75000000Y-67880000D03*
X75000000Y-65340000D03*
X67380000Y-65340000D03*
X67380000Y-67880000D03*
X67380000Y-70420000D03*
X67380000Y-72960000D03*
X67380000Y-75500000D03*
X67380000Y-78040000D03*
X67380000Y-80580000D03*
D15*
X58120000Y-163580000D03*
D16*
X58120000Y-161040000D03*
X58120000Y-158500000D03*
X58120000Y-155960000D03*
X58120000Y-153420000D03*
X58120000Y-150880000D03*
X58120000Y-148340000D03*
X58120000Y-145800000D03*
X58120000Y-143260000D03*
X58120000Y-140720000D03*
X50500000Y-140720000D03*
X50500000Y-143260000D03*
X50500000Y-145800000D03*
X50500000Y-148340000D03*
X50500000Y-150880000D03*
X50500000Y-153420000D03*
X50500000Y-155960000D03*
X50500000Y-158500000D03*
X50500000Y-161040000D03*
X50500000Y-163580000D03*
D14*
X92680000Y-168410000D03*
X97680000Y-168410000D03*
D15*
X57600000Y-107240000D03*
D16*
X57600000Y-104700000D03*
X57600000Y-102160000D03*
X57600000Y-99620000D03*
X57600000Y-97080000D03*
X57600000Y-94540000D03*
X57600000Y-92000000D03*
X57600000Y-89460000D03*
X49980000Y-89460000D03*
X49980000Y-92000000D03*
X49980000Y-94540000D03*
X49980000Y-97080000D03*
X49980000Y-99620000D03*
X49980000Y-102160000D03*
X49980000Y-104700000D03*
X49980000Y-107240000D03*
D17*
X131500000Y-44040000D03*
D18*
X131500000Y-38960000D03*
D32*
X153785000Y-56380000D03*
D14*
X38450000Y-50800000D03*
X43450000Y-50800000D03*
D20*
X161180000Y-128690000D03*
D21*
X161980000Y-135440000D03*
D20*
X161180000Y-142190000D03*
D22*
X158180000Y-134140000D03*
X158180000Y-132040000D03*
X158180000Y-138840000D03*
X155680000Y-132040000D03*
X155680000Y-138840000D03*
D17*
X121960000Y-90500000D03*
D18*
X127040000Y-90500000D03*
D19*
X133000000Y-58000000D03*
D15*
X112020000Y-82500000D03*
D16*
X112020000Y-79960000D03*
X112020000Y-77420000D03*
X112020000Y-74880000D03*
X112020000Y-72340000D03*
X112020000Y-69800000D03*
X112020000Y-67260000D03*
X104400000Y-67260000D03*
X104400000Y-69800000D03*
X104400000Y-72340000D03*
X104400000Y-74880000D03*
X104400000Y-77420000D03*
X104400000Y-79960000D03*
X104400000Y-82500000D03*
D14*
X51000000Y-60000000D03*
X56000000Y-60000000D03*
D15*
X147470000Y-43790000D03*
D16*
X147470000Y-36170000D03*
D15*
X147520000Y-156550000D03*
D16*
X147520000Y-164170000D03*
D33*
X128210000Y-57810000D03*
D34*
X128210000Y-55270000D03*
X128210000Y-52730000D03*
X128210000Y-50190000D03*
X120590000Y-50190000D03*
X120590000Y-52730000D03*
X120590000Y-55270000D03*
X120590000Y-57810000D03*
D15*
X57600000Y-131500000D03*
D16*
X57600000Y-128960000D03*
X57600000Y-126420000D03*
X57600000Y-123880000D03*
X57600000Y-121340000D03*
X57600000Y-118800000D03*
X57600000Y-116260000D03*
X49980000Y-116260000D03*
X49980000Y-118800000D03*
X49980000Y-121340000D03*
X49980000Y-123880000D03*
X49980000Y-126420000D03*
X49980000Y-128960000D03*
X49980000Y-131500000D03*
D22*
X120150000Y-130350000D03*
X120150000Y-125450000D03*
D24*
X129400000Y-133800000D03*
D25*
X129400000Y-127900000D03*
D24*
X129400000Y-122000000D03*
D23*
X143000000Y-66000000D03*
X143000000Y-62499999D03*
D14*
X51000000Y-111000000D03*
X56000000Y-111000000D03*
D30*
X162010000Y-83020000D03*
D31*
X158310000Y-86770000D03*
X158310000Y-79270000D03*
D14*
X38000000Y-56000000D03*
X43000000Y-56000000D03*
M02*
