G04 #@! TF.GenerationSoftware,KiCad,Pcbnew,7.0.10*
G04 #@! TF.CreationDate,2024-01-31T20:34:01-06:00*
G04 #@! TF.ProjectId,CZ-6BM1,435a2d36-424d-4312-9e6b-696361645f70,rev?*
G04 #@! TF.SameCoordinates,Original*
G04 #@! TF.FileFunction,Legend,Top*
G04 #@! TF.FilePolarity,Positive*
%FSLAX46Y46*%
G04 Gerber Fmt 4.6, Leading zero omitted, Abs format (unit mm)*
G04 Created by KiCad (PCBNEW 7.0.10) date 2024-01-31 20:34:01*
%MOMM*%
%LPD*%
G01*
G04 APERTURE LIST*
%ADD10C,0.300000*%
%ADD11C,0.400000*%
%ADD12C,0.150000*%
%ADD13C,0.254000*%
%ADD14C,0.120000*%
%ADD15C,0.152400*%
%ADD16C,0.100000*%
%ADD17C,0.200000*%
%ADD18C,0.127000*%
G04 APERTURE END LIST*
D10*
X151520828Y-98919774D02*
X151520828Y-98634060D01*
X151520828Y-98634060D02*
X151592257Y-98491203D01*
X151592257Y-98491203D02*
X151735114Y-98348346D01*
X151735114Y-98348346D02*
X152020828Y-98276917D01*
X152020828Y-98276917D02*
X152520828Y-98276917D01*
X152520828Y-98276917D02*
X152806542Y-98348346D01*
X152806542Y-98348346D02*
X152949400Y-98491203D01*
X152949400Y-98491203D02*
X153020828Y-98634060D01*
X153020828Y-98634060D02*
X153020828Y-98919774D01*
X153020828Y-98919774D02*
X152949400Y-99062632D01*
X152949400Y-99062632D02*
X152806542Y-99205489D01*
X152806542Y-99205489D02*
X152520828Y-99276917D01*
X152520828Y-99276917D02*
X152020828Y-99276917D01*
X152020828Y-99276917D02*
X151735114Y-99205489D01*
X151735114Y-99205489D02*
X151592257Y-99062632D01*
X151592257Y-99062632D02*
X151520828Y-98919774D01*
X151520828Y-97634060D02*
X152735114Y-97634060D01*
X152735114Y-97634060D02*
X152877971Y-97562631D01*
X152877971Y-97562631D02*
X152949400Y-97491203D01*
X152949400Y-97491203D02*
X153020828Y-97348345D01*
X153020828Y-97348345D02*
X153020828Y-97062631D01*
X153020828Y-97062631D02*
X152949400Y-96919774D01*
X152949400Y-96919774D02*
X152877971Y-96848345D01*
X152877971Y-96848345D02*
X152735114Y-96776917D01*
X152735114Y-96776917D02*
X151520828Y-96776917D01*
X151520828Y-96276916D02*
X151520828Y-95419774D01*
X153020828Y-95848345D02*
X151520828Y-95848345D01*
X153020828Y-92991202D02*
X153020828Y-93848345D01*
X153020828Y-93419774D02*
X151520828Y-93419774D01*
X151520828Y-93419774D02*
X151735114Y-93562631D01*
X151735114Y-93562631D02*
X151877971Y-93705488D01*
X151877971Y-93705488D02*
X151949400Y-93848345D01*
X151520828Y-116869774D02*
X151520828Y-116584060D01*
X151520828Y-116584060D02*
X151592257Y-116441203D01*
X151592257Y-116441203D02*
X151735114Y-116298346D01*
X151735114Y-116298346D02*
X152020828Y-116226917D01*
X152020828Y-116226917D02*
X152520828Y-116226917D01*
X152520828Y-116226917D02*
X152806542Y-116298346D01*
X152806542Y-116298346D02*
X152949400Y-116441203D01*
X152949400Y-116441203D02*
X153020828Y-116584060D01*
X153020828Y-116584060D02*
X153020828Y-116869774D01*
X153020828Y-116869774D02*
X152949400Y-117012632D01*
X152949400Y-117012632D02*
X152806542Y-117155489D01*
X152806542Y-117155489D02*
X152520828Y-117226917D01*
X152520828Y-117226917D02*
X152020828Y-117226917D01*
X152020828Y-117226917D02*
X151735114Y-117155489D01*
X151735114Y-117155489D02*
X151592257Y-117012632D01*
X151592257Y-117012632D02*
X151520828Y-116869774D01*
X151520828Y-115584060D02*
X152735114Y-115584060D01*
X152735114Y-115584060D02*
X152877971Y-115512631D01*
X152877971Y-115512631D02*
X152949400Y-115441203D01*
X152949400Y-115441203D02*
X153020828Y-115298345D01*
X153020828Y-115298345D02*
X153020828Y-115012631D01*
X153020828Y-115012631D02*
X152949400Y-114869774D01*
X152949400Y-114869774D02*
X152877971Y-114798345D01*
X152877971Y-114798345D02*
X152735114Y-114726917D01*
X152735114Y-114726917D02*
X151520828Y-114726917D01*
X151520828Y-114226916D02*
X151520828Y-113369774D01*
X153020828Y-113798345D02*
X151520828Y-113798345D01*
X151663685Y-111798345D02*
X151592257Y-111726917D01*
X151592257Y-111726917D02*
X151520828Y-111584060D01*
X151520828Y-111584060D02*
X151520828Y-111226917D01*
X151520828Y-111226917D02*
X151592257Y-111084060D01*
X151592257Y-111084060D02*
X151663685Y-111012631D01*
X151663685Y-111012631D02*
X151806542Y-110941202D01*
X151806542Y-110941202D02*
X151949400Y-110941202D01*
X151949400Y-110941202D02*
X152163685Y-111012631D01*
X152163685Y-111012631D02*
X153020828Y-111869774D01*
X153020828Y-111869774D02*
X153020828Y-110941202D01*
X153100828Y-130625489D02*
X151600828Y-130625489D01*
X153100828Y-129911203D02*
X151600828Y-129911203D01*
X151600828Y-129911203D02*
X153100828Y-129054060D01*
X153100828Y-129054060D02*
X151600828Y-129054060D01*
X153500828Y-87659774D02*
X153500828Y-86802632D01*
X155000828Y-87231203D02*
X153500828Y-87231203D01*
X154572257Y-86374060D02*
X154572257Y-85659775D01*
X155000828Y-86516917D02*
X153500828Y-86016917D01*
X153500828Y-86016917D02*
X155000828Y-85516917D01*
X155000828Y-85016918D02*
X153500828Y-85016918D01*
X153500828Y-85016918D02*
X153500828Y-84445489D01*
X153500828Y-84445489D02*
X153572257Y-84302632D01*
X153572257Y-84302632D02*
X153643685Y-84231203D01*
X153643685Y-84231203D02*
X153786542Y-84159775D01*
X153786542Y-84159775D02*
X154000828Y-84159775D01*
X154000828Y-84159775D02*
X154143685Y-84231203D01*
X154143685Y-84231203D02*
X154215114Y-84302632D01*
X154215114Y-84302632D02*
X154286542Y-84445489D01*
X154286542Y-84445489D02*
X154286542Y-85016918D01*
X154215114Y-83516918D02*
X154215114Y-83016918D01*
X155000828Y-82802632D02*
X155000828Y-83516918D01*
X155000828Y-83516918D02*
X153500828Y-83516918D01*
X153500828Y-83516918D02*
X153500828Y-82802632D01*
X153500828Y-80731203D02*
X153500828Y-80445489D01*
X153500828Y-80445489D02*
X153572257Y-80302632D01*
X153572257Y-80302632D02*
X153715114Y-80159775D01*
X153715114Y-80159775D02*
X154000828Y-80088346D01*
X154000828Y-80088346D02*
X154500828Y-80088346D01*
X154500828Y-80088346D02*
X154786542Y-80159775D01*
X154786542Y-80159775D02*
X154929400Y-80302632D01*
X154929400Y-80302632D02*
X155000828Y-80445489D01*
X155000828Y-80445489D02*
X155000828Y-80731203D01*
X155000828Y-80731203D02*
X154929400Y-80874061D01*
X154929400Y-80874061D02*
X154786542Y-81016918D01*
X154786542Y-81016918D02*
X154500828Y-81088346D01*
X154500828Y-81088346D02*
X154000828Y-81088346D01*
X154000828Y-81088346D02*
X153715114Y-81016918D01*
X153715114Y-81016918D02*
X153572257Y-80874061D01*
X153572257Y-80874061D02*
X153500828Y-80731203D01*
X153500828Y-79445489D02*
X154715114Y-79445489D01*
X154715114Y-79445489D02*
X154857971Y-79374060D01*
X154857971Y-79374060D02*
X154929400Y-79302632D01*
X154929400Y-79302632D02*
X155000828Y-79159774D01*
X155000828Y-79159774D02*
X155000828Y-78874060D01*
X155000828Y-78874060D02*
X154929400Y-78731203D01*
X154929400Y-78731203D02*
X154857971Y-78659774D01*
X154857971Y-78659774D02*
X154715114Y-78588346D01*
X154715114Y-78588346D02*
X153500828Y-78588346D01*
X153500828Y-78088345D02*
X153500828Y-77231203D01*
X155000828Y-77659774D02*
X153500828Y-77659774D01*
D11*
X147816342Y-100088271D02*
X147959200Y-100231128D01*
X147959200Y-100231128D02*
X148102057Y-100659700D01*
X148102057Y-100659700D02*
X148102057Y-100945414D01*
X148102057Y-100945414D02*
X147959200Y-101373985D01*
X147959200Y-101373985D02*
X147673485Y-101659700D01*
X147673485Y-101659700D02*
X147387771Y-101802557D01*
X147387771Y-101802557D02*
X146816342Y-101945414D01*
X146816342Y-101945414D02*
X146387771Y-101945414D01*
X146387771Y-101945414D02*
X145816342Y-101802557D01*
X145816342Y-101802557D02*
X145530628Y-101659700D01*
X145530628Y-101659700D02*
X145244914Y-101373985D01*
X145244914Y-101373985D02*
X145102057Y-100945414D01*
X145102057Y-100945414D02*
X145102057Y-100659700D01*
X145102057Y-100659700D02*
X145244914Y-100231128D01*
X145244914Y-100231128D02*
X145387771Y-100088271D01*
X145102057Y-99088271D02*
X145102057Y-97088271D01*
X145102057Y-97088271D02*
X148102057Y-99088271D01*
X148102057Y-99088271D02*
X148102057Y-97088271D01*
X146959200Y-95945414D02*
X146959200Y-93659700D01*
X148102057Y-92231128D02*
X145102057Y-92231128D01*
X145102057Y-92231128D02*
X147244914Y-91231128D01*
X147244914Y-91231128D02*
X145102057Y-90231128D01*
X145102057Y-90231128D02*
X148102057Y-90231128D01*
X148102057Y-87231128D02*
X148102057Y-88945414D01*
X148102057Y-88088271D02*
X145102057Y-88088271D01*
X145102057Y-88088271D02*
X145530628Y-88373985D01*
X145530628Y-88373985D02*
X145816342Y-88659700D01*
X145816342Y-88659700D02*
X145959200Y-88945414D01*
X148102057Y-85945414D02*
X145102057Y-85945414D01*
X145102057Y-85945414D02*
X145102057Y-85231128D01*
X145102057Y-85231128D02*
X145244914Y-84802557D01*
X145244914Y-84802557D02*
X145530628Y-84516842D01*
X145530628Y-84516842D02*
X145816342Y-84373985D01*
X145816342Y-84373985D02*
X146387771Y-84231128D01*
X146387771Y-84231128D02*
X146816342Y-84231128D01*
X146816342Y-84231128D02*
X147387771Y-84373985D01*
X147387771Y-84373985D02*
X147673485Y-84516842D01*
X147673485Y-84516842D02*
X147959200Y-84802557D01*
X147959200Y-84802557D02*
X148102057Y-85231128D01*
X148102057Y-85231128D02*
X148102057Y-85945414D01*
X148102057Y-81373985D02*
X148102057Y-83088271D01*
X148102057Y-82231128D02*
X145102057Y-82231128D01*
X145102057Y-82231128D02*
X145530628Y-82516842D01*
X145530628Y-82516842D02*
X145816342Y-82802557D01*
X145816342Y-82802557D02*
X145959200Y-83088271D01*
D10*
X153500828Y-72659774D02*
X153500828Y-71802632D01*
X155000828Y-72231203D02*
X153500828Y-72231203D01*
X154572257Y-71374060D02*
X154572257Y-70659775D01*
X155000828Y-71516917D02*
X153500828Y-71016917D01*
X153500828Y-71016917D02*
X155000828Y-70516917D01*
X155000828Y-70016918D02*
X153500828Y-70016918D01*
X153500828Y-70016918D02*
X153500828Y-69445489D01*
X153500828Y-69445489D02*
X153572257Y-69302632D01*
X153572257Y-69302632D02*
X153643685Y-69231203D01*
X153643685Y-69231203D02*
X153786542Y-69159775D01*
X153786542Y-69159775D02*
X154000828Y-69159775D01*
X154000828Y-69159775D02*
X154143685Y-69231203D01*
X154143685Y-69231203D02*
X154215114Y-69302632D01*
X154215114Y-69302632D02*
X154286542Y-69445489D01*
X154286542Y-69445489D02*
X154286542Y-70016918D01*
X154215114Y-68516918D02*
X154215114Y-68016918D01*
X155000828Y-67802632D02*
X155000828Y-68516918D01*
X155000828Y-68516918D02*
X153500828Y-68516918D01*
X153500828Y-68516918D02*
X153500828Y-67802632D01*
X155000828Y-66016918D02*
X153500828Y-66016918D01*
X155000828Y-65302632D02*
X153500828Y-65302632D01*
X153500828Y-65302632D02*
X155000828Y-64445489D01*
X155000828Y-64445489D02*
X153500828Y-64445489D01*
D12*
X70357142Y-62859580D02*
X70309523Y-62907200D01*
X70309523Y-62907200D02*
X70166666Y-62954819D01*
X70166666Y-62954819D02*
X70071428Y-62954819D01*
X70071428Y-62954819D02*
X69928571Y-62907200D01*
X69928571Y-62907200D02*
X69833333Y-62811961D01*
X69833333Y-62811961D02*
X69785714Y-62716723D01*
X69785714Y-62716723D02*
X69738095Y-62526247D01*
X69738095Y-62526247D02*
X69738095Y-62383390D01*
X69738095Y-62383390D02*
X69785714Y-62192914D01*
X69785714Y-62192914D02*
X69833333Y-62097676D01*
X69833333Y-62097676D02*
X69928571Y-62002438D01*
X69928571Y-62002438D02*
X70071428Y-61954819D01*
X70071428Y-61954819D02*
X70166666Y-61954819D01*
X70166666Y-61954819D02*
X70309523Y-62002438D01*
X70309523Y-62002438D02*
X70357142Y-62050057D01*
X71309523Y-62954819D02*
X70738095Y-62954819D01*
X71023809Y-62954819D02*
X71023809Y-61954819D01*
X71023809Y-61954819D02*
X70928571Y-62097676D01*
X70928571Y-62097676D02*
X70833333Y-62192914D01*
X70833333Y-62192914D02*
X70738095Y-62240533D01*
X71690476Y-62050057D02*
X71738095Y-62002438D01*
X71738095Y-62002438D02*
X71833333Y-61954819D01*
X71833333Y-61954819D02*
X72071428Y-61954819D01*
X72071428Y-61954819D02*
X72166666Y-62002438D01*
X72166666Y-62002438D02*
X72214285Y-62050057D01*
X72214285Y-62050057D02*
X72261904Y-62145295D01*
X72261904Y-62145295D02*
X72261904Y-62240533D01*
X72261904Y-62240533D02*
X72214285Y-62383390D01*
X72214285Y-62383390D02*
X71642857Y-62954819D01*
X71642857Y-62954819D02*
X72261904Y-62954819D01*
X47854819Y-57391189D02*
X46854819Y-57391189D01*
X47759580Y-56343571D02*
X47807200Y-56391190D01*
X47807200Y-56391190D02*
X47854819Y-56534047D01*
X47854819Y-56534047D02*
X47854819Y-56629285D01*
X47854819Y-56629285D02*
X47807200Y-56772142D01*
X47807200Y-56772142D02*
X47711961Y-56867380D01*
X47711961Y-56867380D02*
X47616723Y-56914999D01*
X47616723Y-56914999D02*
X47426247Y-56962618D01*
X47426247Y-56962618D02*
X47283390Y-56962618D01*
X47283390Y-56962618D02*
X47092914Y-56914999D01*
X47092914Y-56914999D02*
X46997676Y-56867380D01*
X46997676Y-56867380D02*
X46902438Y-56772142D01*
X46902438Y-56772142D02*
X46854819Y-56629285D01*
X46854819Y-56629285D02*
X46854819Y-56534047D01*
X46854819Y-56534047D02*
X46902438Y-56391190D01*
X46902438Y-56391190D02*
X46950057Y-56343571D01*
X46854819Y-55438809D02*
X46854819Y-55914999D01*
X46854819Y-55914999D02*
X47331009Y-55962618D01*
X47331009Y-55962618D02*
X47283390Y-55914999D01*
X47283390Y-55914999D02*
X47235771Y-55819761D01*
X47235771Y-55819761D02*
X47235771Y-55581666D01*
X47235771Y-55581666D02*
X47283390Y-55486428D01*
X47283390Y-55486428D02*
X47331009Y-55438809D01*
X47331009Y-55438809D02*
X47426247Y-55391190D01*
X47426247Y-55391190D02*
X47664342Y-55391190D01*
X47664342Y-55391190D02*
X47759580Y-55438809D01*
X47759580Y-55438809D02*
X47807200Y-55486428D01*
X47807200Y-55486428D02*
X47854819Y-55581666D01*
X47854819Y-55581666D02*
X47854819Y-55819761D01*
X47854819Y-55819761D02*
X47807200Y-55914999D01*
X47807200Y-55914999D02*
X47759580Y-55962618D01*
X109197142Y-171059580D02*
X109149523Y-171107200D01*
X109149523Y-171107200D02*
X109006666Y-171154819D01*
X109006666Y-171154819D02*
X108911428Y-171154819D01*
X108911428Y-171154819D02*
X108768571Y-171107200D01*
X108768571Y-171107200D02*
X108673333Y-171011961D01*
X108673333Y-171011961D02*
X108625714Y-170916723D01*
X108625714Y-170916723D02*
X108578095Y-170726247D01*
X108578095Y-170726247D02*
X108578095Y-170583390D01*
X108578095Y-170583390D02*
X108625714Y-170392914D01*
X108625714Y-170392914D02*
X108673333Y-170297676D01*
X108673333Y-170297676D02*
X108768571Y-170202438D01*
X108768571Y-170202438D02*
X108911428Y-170154819D01*
X108911428Y-170154819D02*
X109006666Y-170154819D01*
X109006666Y-170154819D02*
X109149523Y-170202438D01*
X109149523Y-170202438D02*
X109197142Y-170250057D01*
X110149523Y-171154819D02*
X109578095Y-171154819D01*
X109863809Y-171154819D02*
X109863809Y-170154819D01*
X109863809Y-170154819D02*
X109768571Y-170297676D01*
X109768571Y-170297676D02*
X109673333Y-170392914D01*
X109673333Y-170392914D02*
X109578095Y-170440533D01*
X111054285Y-170154819D02*
X110578095Y-170154819D01*
X110578095Y-170154819D02*
X110530476Y-170631009D01*
X110530476Y-170631009D02*
X110578095Y-170583390D01*
X110578095Y-170583390D02*
X110673333Y-170535771D01*
X110673333Y-170535771D02*
X110911428Y-170535771D01*
X110911428Y-170535771D02*
X111006666Y-170583390D01*
X111006666Y-170583390D02*
X111054285Y-170631009D01*
X111054285Y-170631009D02*
X111101904Y-170726247D01*
X111101904Y-170726247D02*
X111101904Y-170964342D01*
X111101904Y-170964342D02*
X111054285Y-171059580D01*
X111054285Y-171059580D02*
X111006666Y-171107200D01*
X111006666Y-171107200D02*
X110911428Y-171154819D01*
X110911428Y-171154819D02*
X110673333Y-171154819D01*
X110673333Y-171154819D02*
X110578095Y-171107200D01*
X110578095Y-171107200D02*
X110530476Y-171059580D01*
X123607142Y-37959580D02*
X123559523Y-38007200D01*
X123559523Y-38007200D02*
X123416666Y-38054819D01*
X123416666Y-38054819D02*
X123321428Y-38054819D01*
X123321428Y-38054819D02*
X123178571Y-38007200D01*
X123178571Y-38007200D02*
X123083333Y-37911961D01*
X123083333Y-37911961D02*
X123035714Y-37816723D01*
X123035714Y-37816723D02*
X122988095Y-37626247D01*
X122988095Y-37626247D02*
X122988095Y-37483390D01*
X122988095Y-37483390D02*
X123035714Y-37292914D01*
X123035714Y-37292914D02*
X123083333Y-37197676D01*
X123083333Y-37197676D02*
X123178571Y-37102438D01*
X123178571Y-37102438D02*
X123321428Y-37054819D01*
X123321428Y-37054819D02*
X123416666Y-37054819D01*
X123416666Y-37054819D02*
X123559523Y-37102438D01*
X123559523Y-37102438D02*
X123607142Y-37150057D01*
X123988095Y-37150057D02*
X124035714Y-37102438D01*
X124035714Y-37102438D02*
X124130952Y-37054819D01*
X124130952Y-37054819D02*
X124369047Y-37054819D01*
X124369047Y-37054819D02*
X124464285Y-37102438D01*
X124464285Y-37102438D02*
X124511904Y-37150057D01*
X124511904Y-37150057D02*
X124559523Y-37245295D01*
X124559523Y-37245295D02*
X124559523Y-37340533D01*
X124559523Y-37340533D02*
X124511904Y-37483390D01*
X124511904Y-37483390D02*
X123940476Y-38054819D01*
X123940476Y-38054819D02*
X124559523Y-38054819D01*
X125464285Y-37054819D02*
X124988095Y-37054819D01*
X124988095Y-37054819D02*
X124940476Y-37531009D01*
X124940476Y-37531009D02*
X124988095Y-37483390D01*
X124988095Y-37483390D02*
X125083333Y-37435771D01*
X125083333Y-37435771D02*
X125321428Y-37435771D01*
X125321428Y-37435771D02*
X125416666Y-37483390D01*
X125416666Y-37483390D02*
X125464285Y-37531009D01*
X125464285Y-37531009D02*
X125511904Y-37626247D01*
X125511904Y-37626247D02*
X125511904Y-37864342D01*
X125511904Y-37864342D02*
X125464285Y-37959580D01*
X125464285Y-37959580D02*
X125416666Y-38007200D01*
X125416666Y-38007200D02*
X125321428Y-38054819D01*
X125321428Y-38054819D02*
X125083333Y-38054819D01*
X125083333Y-38054819D02*
X124988095Y-38007200D01*
X124988095Y-38007200D02*
X124940476Y-37959580D01*
X124333333Y-76534819D02*
X124000000Y-76058628D01*
X123761905Y-76534819D02*
X123761905Y-75534819D01*
X123761905Y-75534819D02*
X124142857Y-75534819D01*
X124142857Y-75534819D02*
X124238095Y-75582438D01*
X124238095Y-75582438D02*
X124285714Y-75630057D01*
X124285714Y-75630057D02*
X124333333Y-75725295D01*
X124333333Y-75725295D02*
X124333333Y-75868152D01*
X124333333Y-75868152D02*
X124285714Y-75963390D01*
X124285714Y-75963390D02*
X124238095Y-76011009D01*
X124238095Y-76011009D02*
X124142857Y-76058628D01*
X124142857Y-76058628D02*
X123761905Y-76058628D01*
X124809524Y-76534819D02*
X125000000Y-76534819D01*
X125000000Y-76534819D02*
X125095238Y-76487200D01*
X125095238Y-76487200D02*
X125142857Y-76439580D01*
X125142857Y-76439580D02*
X125238095Y-76296723D01*
X125238095Y-76296723D02*
X125285714Y-76106247D01*
X125285714Y-76106247D02*
X125285714Y-75725295D01*
X125285714Y-75725295D02*
X125238095Y-75630057D01*
X125238095Y-75630057D02*
X125190476Y-75582438D01*
X125190476Y-75582438D02*
X125095238Y-75534819D01*
X125095238Y-75534819D02*
X124904762Y-75534819D01*
X124904762Y-75534819D02*
X124809524Y-75582438D01*
X124809524Y-75582438D02*
X124761905Y-75630057D01*
X124761905Y-75630057D02*
X124714286Y-75725295D01*
X124714286Y-75725295D02*
X124714286Y-75963390D01*
X124714286Y-75963390D02*
X124761905Y-76058628D01*
X124761905Y-76058628D02*
X124809524Y-76106247D01*
X124809524Y-76106247D02*
X124904762Y-76153866D01*
X124904762Y-76153866D02*
X125095238Y-76153866D01*
X125095238Y-76153866D02*
X125190476Y-76106247D01*
X125190476Y-76106247D02*
X125238095Y-76058628D01*
X125238095Y-76058628D02*
X125285714Y-75963390D01*
X66454819Y-164436189D02*
X65454819Y-164436189D01*
X66359580Y-163388571D02*
X66407200Y-163436190D01*
X66407200Y-163436190D02*
X66454819Y-163579047D01*
X66454819Y-163579047D02*
X66454819Y-163674285D01*
X66454819Y-163674285D02*
X66407200Y-163817142D01*
X66407200Y-163817142D02*
X66311961Y-163912380D01*
X66311961Y-163912380D02*
X66216723Y-163959999D01*
X66216723Y-163959999D02*
X66026247Y-164007618D01*
X66026247Y-164007618D02*
X65883390Y-164007618D01*
X65883390Y-164007618D02*
X65692914Y-163959999D01*
X65692914Y-163959999D02*
X65597676Y-163912380D01*
X65597676Y-163912380D02*
X65502438Y-163817142D01*
X65502438Y-163817142D02*
X65454819Y-163674285D01*
X65454819Y-163674285D02*
X65454819Y-163579047D01*
X65454819Y-163579047D02*
X65502438Y-163436190D01*
X65502438Y-163436190D02*
X65550057Y-163388571D01*
X65454819Y-162531428D02*
X65454819Y-162721904D01*
X65454819Y-162721904D02*
X65502438Y-162817142D01*
X65502438Y-162817142D02*
X65550057Y-162864761D01*
X65550057Y-162864761D02*
X65692914Y-162959999D01*
X65692914Y-162959999D02*
X65883390Y-163007618D01*
X65883390Y-163007618D02*
X66264342Y-163007618D01*
X66264342Y-163007618D02*
X66359580Y-162959999D01*
X66359580Y-162959999D02*
X66407200Y-162912380D01*
X66407200Y-162912380D02*
X66454819Y-162817142D01*
X66454819Y-162817142D02*
X66454819Y-162626666D01*
X66454819Y-162626666D02*
X66407200Y-162531428D01*
X66407200Y-162531428D02*
X66359580Y-162483809D01*
X66359580Y-162483809D02*
X66264342Y-162436190D01*
X66264342Y-162436190D02*
X66026247Y-162436190D01*
X66026247Y-162436190D02*
X65931009Y-162483809D01*
X65931009Y-162483809D02*
X65883390Y-162531428D01*
X65883390Y-162531428D02*
X65835771Y-162626666D01*
X65835771Y-162626666D02*
X65835771Y-162817142D01*
X65835771Y-162817142D02*
X65883390Y-162912380D01*
X65883390Y-162912380D02*
X65931009Y-162959999D01*
X65931009Y-162959999D02*
X66026247Y-163007618D01*
X104954819Y-138452380D02*
X103954819Y-138452380D01*
X104859580Y-137404762D02*
X104907200Y-137452381D01*
X104907200Y-137452381D02*
X104954819Y-137595238D01*
X104954819Y-137595238D02*
X104954819Y-137690476D01*
X104954819Y-137690476D02*
X104907200Y-137833333D01*
X104907200Y-137833333D02*
X104811961Y-137928571D01*
X104811961Y-137928571D02*
X104716723Y-137976190D01*
X104716723Y-137976190D02*
X104526247Y-138023809D01*
X104526247Y-138023809D02*
X104383390Y-138023809D01*
X104383390Y-138023809D02*
X104192914Y-137976190D01*
X104192914Y-137976190D02*
X104097676Y-137928571D01*
X104097676Y-137928571D02*
X104002438Y-137833333D01*
X104002438Y-137833333D02*
X103954819Y-137690476D01*
X103954819Y-137690476D02*
X103954819Y-137595238D01*
X103954819Y-137595238D02*
X104002438Y-137452381D01*
X104002438Y-137452381D02*
X104050057Y-137404762D01*
X104954819Y-136452381D02*
X104954819Y-137023809D01*
X104954819Y-136738095D02*
X103954819Y-136738095D01*
X103954819Y-136738095D02*
X104097676Y-136833333D01*
X104097676Y-136833333D02*
X104192914Y-136928571D01*
X104192914Y-136928571D02*
X104240533Y-137023809D01*
X103954819Y-136119047D02*
X103954819Y-135500000D01*
X103954819Y-135500000D02*
X104335771Y-135833333D01*
X104335771Y-135833333D02*
X104335771Y-135690476D01*
X104335771Y-135690476D02*
X104383390Y-135595238D01*
X104383390Y-135595238D02*
X104431009Y-135547619D01*
X104431009Y-135547619D02*
X104526247Y-135500000D01*
X104526247Y-135500000D02*
X104764342Y-135500000D01*
X104764342Y-135500000D02*
X104859580Y-135547619D01*
X104859580Y-135547619D02*
X104907200Y-135595238D01*
X104907200Y-135595238D02*
X104954819Y-135690476D01*
X104954819Y-135690476D02*
X104954819Y-135976190D01*
X104954819Y-135976190D02*
X104907200Y-136071428D01*
X104907200Y-136071428D02*
X104859580Y-136119047D01*
X134134819Y-50972857D02*
X133658628Y-51306190D01*
X134134819Y-51544285D02*
X133134819Y-51544285D01*
X133134819Y-51544285D02*
X133134819Y-51163333D01*
X133134819Y-51163333D02*
X133182438Y-51068095D01*
X133182438Y-51068095D02*
X133230057Y-51020476D01*
X133230057Y-51020476D02*
X133325295Y-50972857D01*
X133325295Y-50972857D02*
X133468152Y-50972857D01*
X133468152Y-50972857D02*
X133563390Y-51020476D01*
X133563390Y-51020476D02*
X133611009Y-51068095D01*
X133611009Y-51068095D02*
X133658628Y-51163333D01*
X133658628Y-51163333D02*
X133658628Y-51544285D01*
X134134819Y-50020476D02*
X134134819Y-50591904D01*
X134134819Y-50306190D02*
X133134819Y-50306190D01*
X133134819Y-50306190D02*
X133277676Y-50401428D01*
X133277676Y-50401428D02*
X133372914Y-50496666D01*
X133372914Y-50496666D02*
X133420533Y-50591904D01*
X133134819Y-49687142D02*
X133134819Y-49020476D01*
X133134819Y-49020476D02*
X134134819Y-49449047D01*
X123587142Y-60089580D02*
X123539523Y-60137200D01*
X123539523Y-60137200D02*
X123396666Y-60184819D01*
X123396666Y-60184819D02*
X123301428Y-60184819D01*
X123301428Y-60184819D02*
X123158571Y-60137200D01*
X123158571Y-60137200D02*
X123063333Y-60041961D01*
X123063333Y-60041961D02*
X123015714Y-59946723D01*
X123015714Y-59946723D02*
X122968095Y-59756247D01*
X122968095Y-59756247D02*
X122968095Y-59613390D01*
X122968095Y-59613390D02*
X123015714Y-59422914D01*
X123015714Y-59422914D02*
X123063333Y-59327676D01*
X123063333Y-59327676D02*
X123158571Y-59232438D01*
X123158571Y-59232438D02*
X123301428Y-59184819D01*
X123301428Y-59184819D02*
X123396666Y-59184819D01*
X123396666Y-59184819D02*
X123539523Y-59232438D01*
X123539523Y-59232438D02*
X123587142Y-59280057D01*
X123968095Y-59280057D02*
X124015714Y-59232438D01*
X124015714Y-59232438D02*
X124110952Y-59184819D01*
X124110952Y-59184819D02*
X124349047Y-59184819D01*
X124349047Y-59184819D02*
X124444285Y-59232438D01*
X124444285Y-59232438D02*
X124491904Y-59280057D01*
X124491904Y-59280057D02*
X124539523Y-59375295D01*
X124539523Y-59375295D02*
X124539523Y-59470533D01*
X124539523Y-59470533D02*
X124491904Y-59613390D01*
X124491904Y-59613390D02*
X123920476Y-60184819D01*
X123920476Y-60184819D02*
X124539523Y-60184819D01*
X125491904Y-60184819D02*
X124920476Y-60184819D01*
X125206190Y-60184819D02*
X125206190Y-59184819D01*
X125206190Y-59184819D02*
X125110952Y-59327676D01*
X125110952Y-59327676D02*
X125015714Y-59422914D01*
X125015714Y-59422914D02*
X124920476Y-59470533D01*
X148938095Y-77454819D02*
X149509523Y-77454819D01*
X149223809Y-78454819D02*
X149223809Y-77454819D01*
X149842857Y-78454819D02*
X149842857Y-77454819D01*
X149842857Y-77454819D02*
X150223809Y-77454819D01*
X150223809Y-77454819D02*
X150319047Y-77502438D01*
X150319047Y-77502438D02*
X150366666Y-77550057D01*
X150366666Y-77550057D02*
X150414285Y-77645295D01*
X150414285Y-77645295D02*
X150414285Y-77788152D01*
X150414285Y-77788152D02*
X150366666Y-77883390D01*
X150366666Y-77883390D02*
X150319047Y-77931009D01*
X150319047Y-77931009D02*
X150223809Y-77978628D01*
X150223809Y-77978628D02*
X149842857Y-77978628D01*
X150795238Y-77550057D02*
X150842857Y-77502438D01*
X150842857Y-77502438D02*
X150938095Y-77454819D01*
X150938095Y-77454819D02*
X151176190Y-77454819D01*
X151176190Y-77454819D02*
X151271428Y-77502438D01*
X151271428Y-77502438D02*
X151319047Y-77550057D01*
X151319047Y-77550057D02*
X151366666Y-77645295D01*
X151366666Y-77645295D02*
X151366666Y-77740533D01*
X151366666Y-77740533D02*
X151319047Y-77883390D01*
X151319047Y-77883390D02*
X150747619Y-78454819D01*
X150747619Y-78454819D02*
X151366666Y-78454819D01*
X82954819Y-92666666D02*
X82478628Y-92999999D01*
X82954819Y-93238094D02*
X81954819Y-93238094D01*
X81954819Y-93238094D02*
X81954819Y-92857142D01*
X81954819Y-92857142D02*
X82002438Y-92761904D01*
X82002438Y-92761904D02*
X82050057Y-92714285D01*
X82050057Y-92714285D02*
X82145295Y-92666666D01*
X82145295Y-92666666D02*
X82288152Y-92666666D01*
X82288152Y-92666666D02*
X82383390Y-92714285D01*
X82383390Y-92714285D02*
X82431009Y-92761904D01*
X82431009Y-92761904D02*
X82478628Y-92857142D01*
X82478628Y-92857142D02*
X82478628Y-93238094D01*
X82050057Y-92285713D02*
X82002438Y-92238094D01*
X82002438Y-92238094D02*
X81954819Y-92142856D01*
X81954819Y-92142856D02*
X81954819Y-91904761D01*
X81954819Y-91904761D02*
X82002438Y-91809523D01*
X82002438Y-91809523D02*
X82050057Y-91761904D01*
X82050057Y-91761904D02*
X82145295Y-91714285D01*
X82145295Y-91714285D02*
X82240533Y-91714285D01*
X82240533Y-91714285D02*
X82383390Y-91761904D01*
X82383390Y-91761904D02*
X82954819Y-92333332D01*
X82954819Y-92333332D02*
X82954819Y-91714285D01*
X101954819Y-58952380D02*
X100954819Y-58952380D01*
X101859580Y-57904762D02*
X101907200Y-57952381D01*
X101907200Y-57952381D02*
X101954819Y-58095238D01*
X101954819Y-58095238D02*
X101954819Y-58190476D01*
X101954819Y-58190476D02*
X101907200Y-58333333D01*
X101907200Y-58333333D02*
X101811961Y-58428571D01*
X101811961Y-58428571D02*
X101716723Y-58476190D01*
X101716723Y-58476190D02*
X101526247Y-58523809D01*
X101526247Y-58523809D02*
X101383390Y-58523809D01*
X101383390Y-58523809D02*
X101192914Y-58476190D01*
X101192914Y-58476190D02*
X101097676Y-58428571D01*
X101097676Y-58428571D02*
X101002438Y-58333333D01*
X101002438Y-58333333D02*
X100954819Y-58190476D01*
X100954819Y-58190476D02*
X100954819Y-58095238D01*
X100954819Y-58095238D02*
X101002438Y-57952381D01*
X101002438Y-57952381D02*
X101050057Y-57904762D01*
X101954819Y-56952381D02*
X101954819Y-57523809D01*
X101954819Y-57238095D02*
X100954819Y-57238095D01*
X100954819Y-57238095D02*
X101097676Y-57333333D01*
X101097676Y-57333333D02*
X101192914Y-57428571D01*
X101192914Y-57428571D02*
X101240533Y-57523809D01*
X100954819Y-56047619D02*
X100954819Y-56523809D01*
X100954819Y-56523809D02*
X101431009Y-56571428D01*
X101431009Y-56571428D02*
X101383390Y-56523809D01*
X101383390Y-56523809D02*
X101335771Y-56428571D01*
X101335771Y-56428571D02*
X101335771Y-56190476D01*
X101335771Y-56190476D02*
X101383390Y-56095238D01*
X101383390Y-56095238D02*
X101431009Y-56047619D01*
X101431009Y-56047619D02*
X101526247Y-56000000D01*
X101526247Y-56000000D02*
X101764342Y-56000000D01*
X101764342Y-56000000D02*
X101859580Y-56047619D01*
X101859580Y-56047619D02*
X101907200Y-56095238D01*
X101907200Y-56095238D02*
X101954819Y-56190476D01*
X101954819Y-56190476D02*
X101954819Y-56428571D01*
X101954819Y-56428571D02*
X101907200Y-56523809D01*
X101907200Y-56523809D02*
X101859580Y-56571428D01*
X155895180Y-99596666D02*
X155180895Y-99596666D01*
X155180895Y-99596666D02*
X155038038Y-99549047D01*
X155038038Y-99549047D02*
X154942800Y-99453809D01*
X154942800Y-99453809D02*
X154895180Y-99310952D01*
X154895180Y-99310952D02*
X154895180Y-99215714D01*
X155799942Y-100025238D02*
X155847561Y-100072857D01*
X155847561Y-100072857D02*
X155895180Y-100168095D01*
X155895180Y-100168095D02*
X155895180Y-100406190D01*
X155895180Y-100406190D02*
X155847561Y-100501428D01*
X155847561Y-100501428D02*
X155799942Y-100549047D01*
X155799942Y-100549047D02*
X155704704Y-100596666D01*
X155704704Y-100596666D02*
X155609466Y-100596666D01*
X155609466Y-100596666D02*
X155466609Y-100549047D01*
X155466609Y-100549047D02*
X154895180Y-99977619D01*
X154895180Y-99977619D02*
X154895180Y-100596666D01*
X124333333Y-80534819D02*
X124000000Y-80058628D01*
X123761905Y-80534819D02*
X123761905Y-79534819D01*
X123761905Y-79534819D02*
X124142857Y-79534819D01*
X124142857Y-79534819D02*
X124238095Y-79582438D01*
X124238095Y-79582438D02*
X124285714Y-79630057D01*
X124285714Y-79630057D02*
X124333333Y-79725295D01*
X124333333Y-79725295D02*
X124333333Y-79868152D01*
X124333333Y-79868152D02*
X124285714Y-79963390D01*
X124285714Y-79963390D02*
X124238095Y-80011009D01*
X124238095Y-80011009D02*
X124142857Y-80058628D01*
X124142857Y-80058628D02*
X123761905Y-80058628D01*
X124904762Y-79963390D02*
X124809524Y-79915771D01*
X124809524Y-79915771D02*
X124761905Y-79868152D01*
X124761905Y-79868152D02*
X124714286Y-79772914D01*
X124714286Y-79772914D02*
X124714286Y-79725295D01*
X124714286Y-79725295D02*
X124761905Y-79630057D01*
X124761905Y-79630057D02*
X124809524Y-79582438D01*
X124809524Y-79582438D02*
X124904762Y-79534819D01*
X124904762Y-79534819D02*
X125095238Y-79534819D01*
X125095238Y-79534819D02*
X125190476Y-79582438D01*
X125190476Y-79582438D02*
X125238095Y-79630057D01*
X125238095Y-79630057D02*
X125285714Y-79725295D01*
X125285714Y-79725295D02*
X125285714Y-79772914D01*
X125285714Y-79772914D02*
X125238095Y-79868152D01*
X125238095Y-79868152D02*
X125190476Y-79915771D01*
X125190476Y-79915771D02*
X125095238Y-79963390D01*
X125095238Y-79963390D02*
X124904762Y-79963390D01*
X124904762Y-79963390D02*
X124809524Y-80011009D01*
X124809524Y-80011009D02*
X124761905Y-80058628D01*
X124761905Y-80058628D02*
X124714286Y-80153866D01*
X124714286Y-80153866D02*
X124714286Y-80344342D01*
X124714286Y-80344342D02*
X124761905Y-80439580D01*
X124761905Y-80439580D02*
X124809524Y-80487200D01*
X124809524Y-80487200D02*
X124904762Y-80534819D01*
X124904762Y-80534819D02*
X125095238Y-80534819D01*
X125095238Y-80534819D02*
X125190476Y-80487200D01*
X125190476Y-80487200D02*
X125238095Y-80439580D01*
X125238095Y-80439580D02*
X125285714Y-80344342D01*
X125285714Y-80344342D02*
X125285714Y-80153866D01*
X125285714Y-80153866D02*
X125238095Y-80058628D01*
X125238095Y-80058628D02*
X125190476Y-80011009D01*
X125190476Y-80011009D02*
X125095238Y-79963390D01*
X88364819Y-142308095D02*
X87888628Y-142641428D01*
X88364819Y-142879523D02*
X87364819Y-142879523D01*
X87364819Y-142879523D02*
X87364819Y-142498571D01*
X87364819Y-142498571D02*
X87412438Y-142403333D01*
X87412438Y-142403333D02*
X87460057Y-142355714D01*
X87460057Y-142355714D02*
X87555295Y-142308095D01*
X87555295Y-142308095D02*
X87698152Y-142308095D01*
X87698152Y-142308095D02*
X87793390Y-142355714D01*
X87793390Y-142355714D02*
X87841009Y-142403333D01*
X87841009Y-142403333D02*
X87888628Y-142498571D01*
X87888628Y-142498571D02*
X87888628Y-142879523D01*
X88364819Y-141879523D02*
X87364819Y-141879523D01*
X87364819Y-141879523D02*
X88079104Y-141546190D01*
X88079104Y-141546190D02*
X87364819Y-141212857D01*
X87364819Y-141212857D02*
X88364819Y-141212857D01*
X88364819Y-140212857D02*
X88364819Y-140784285D01*
X88364819Y-140498571D02*
X87364819Y-140498571D01*
X87364819Y-140498571D02*
X87507676Y-140593809D01*
X87507676Y-140593809D02*
X87602914Y-140689047D01*
X87602914Y-140689047D02*
X87650533Y-140784285D01*
X139994819Y-155602857D02*
X139518628Y-155936190D01*
X139994819Y-156174285D02*
X138994819Y-156174285D01*
X138994819Y-156174285D02*
X138994819Y-155793333D01*
X138994819Y-155793333D02*
X139042438Y-155698095D01*
X139042438Y-155698095D02*
X139090057Y-155650476D01*
X139090057Y-155650476D02*
X139185295Y-155602857D01*
X139185295Y-155602857D02*
X139328152Y-155602857D01*
X139328152Y-155602857D02*
X139423390Y-155650476D01*
X139423390Y-155650476D02*
X139471009Y-155698095D01*
X139471009Y-155698095D02*
X139518628Y-155793333D01*
X139518628Y-155793333D02*
X139518628Y-156174285D01*
X139090057Y-155221904D02*
X139042438Y-155174285D01*
X139042438Y-155174285D02*
X138994819Y-155079047D01*
X138994819Y-155079047D02*
X138994819Y-154840952D01*
X138994819Y-154840952D02*
X139042438Y-154745714D01*
X139042438Y-154745714D02*
X139090057Y-154698095D01*
X139090057Y-154698095D02*
X139185295Y-154650476D01*
X139185295Y-154650476D02*
X139280533Y-154650476D01*
X139280533Y-154650476D02*
X139423390Y-154698095D01*
X139423390Y-154698095D02*
X139994819Y-155269523D01*
X139994819Y-155269523D02*
X139994819Y-154650476D01*
X139423390Y-154079047D02*
X139375771Y-154174285D01*
X139375771Y-154174285D02*
X139328152Y-154221904D01*
X139328152Y-154221904D02*
X139232914Y-154269523D01*
X139232914Y-154269523D02*
X139185295Y-154269523D01*
X139185295Y-154269523D02*
X139090057Y-154221904D01*
X139090057Y-154221904D02*
X139042438Y-154174285D01*
X139042438Y-154174285D02*
X138994819Y-154079047D01*
X138994819Y-154079047D02*
X138994819Y-153888571D01*
X138994819Y-153888571D02*
X139042438Y-153793333D01*
X139042438Y-153793333D02*
X139090057Y-153745714D01*
X139090057Y-153745714D02*
X139185295Y-153698095D01*
X139185295Y-153698095D02*
X139232914Y-153698095D01*
X139232914Y-153698095D02*
X139328152Y-153745714D01*
X139328152Y-153745714D02*
X139375771Y-153793333D01*
X139375771Y-153793333D02*
X139423390Y-153888571D01*
X139423390Y-153888571D02*
X139423390Y-154079047D01*
X139423390Y-154079047D02*
X139471009Y-154174285D01*
X139471009Y-154174285D02*
X139518628Y-154221904D01*
X139518628Y-154221904D02*
X139613866Y-154269523D01*
X139613866Y-154269523D02*
X139804342Y-154269523D01*
X139804342Y-154269523D02*
X139899580Y-154221904D01*
X139899580Y-154221904D02*
X139947200Y-154174285D01*
X139947200Y-154174285D02*
X139994819Y-154079047D01*
X139994819Y-154079047D02*
X139994819Y-153888571D01*
X139994819Y-153888571D02*
X139947200Y-153793333D01*
X139947200Y-153793333D02*
X139899580Y-153745714D01*
X139899580Y-153745714D02*
X139804342Y-153698095D01*
X139804342Y-153698095D02*
X139613866Y-153698095D01*
X139613866Y-153698095D02*
X139518628Y-153745714D01*
X139518628Y-153745714D02*
X139471009Y-153793333D01*
X139471009Y-153793333D02*
X139423390Y-153888571D01*
X110167142Y-144739580D02*
X110119523Y-144787200D01*
X110119523Y-144787200D02*
X109976666Y-144834819D01*
X109976666Y-144834819D02*
X109881428Y-144834819D01*
X109881428Y-144834819D02*
X109738571Y-144787200D01*
X109738571Y-144787200D02*
X109643333Y-144691961D01*
X109643333Y-144691961D02*
X109595714Y-144596723D01*
X109595714Y-144596723D02*
X109548095Y-144406247D01*
X109548095Y-144406247D02*
X109548095Y-144263390D01*
X109548095Y-144263390D02*
X109595714Y-144072914D01*
X109595714Y-144072914D02*
X109643333Y-143977676D01*
X109643333Y-143977676D02*
X109738571Y-143882438D01*
X109738571Y-143882438D02*
X109881428Y-143834819D01*
X109881428Y-143834819D02*
X109976666Y-143834819D01*
X109976666Y-143834819D02*
X110119523Y-143882438D01*
X110119523Y-143882438D02*
X110167142Y-143930057D01*
X111119523Y-144834819D02*
X110548095Y-144834819D01*
X110833809Y-144834819D02*
X110833809Y-143834819D01*
X110833809Y-143834819D02*
X110738571Y-143977676D01*
X110738571Y-143977676D02*
X110643333Y-144072914D01*
X110643333Y-144072914D02*
X110548095Y-144120533D01*
X111976666Y-143834819D02*
X111786190Y-143834819D01*
X111786190Y-143834819D02*
X111690952Y-143882438D01*
X111690952Y-143882438D02*
X111643333Y-143930057D01*
X111643333Y-143930057D02*
X111548095Y-144072914D01*
X111548095Y-144072914D02*
X111500476Y-144263390D01*
X111500476Y-144263390D02*
X111500476Y-144644342D01*
X111500476Y-144644342D02*
X111548095Y-144739580D01*
X111548095Y-144739580D02*
X111595714Y-144787200D01*
X111595714Y-144787200D02*
X111690952Y-144834819D01*
X111690952Y-144834819D02*
X111881428Y-144834819D01*
X111881428Y-144834819D02*
X111976666Y-144787200D01*
X111976666Y-144787200D02*
X112024285Y-144739580D01*
X112024285Y-144739580D02*
X112071904Y-144644342D01*
X112071904Y-144644342D02*
X112071904Y-144406247D01*
X112071904Y-144406247D02*
X112024285Y-144311009D01*
X112024285Y-144311009D02*
X111976666Y-144263390D01*
X111976666Y-144263390D02*
X111881428Y-144215771D01*
X111881428Y-144215771D02*
X111690952Y-144215771D01*
X111690952Y-144215771D02*
X111595714Y-144263390D01*
X111595714Y-144263390D02*
X111548095Y-144311009D01*
X111548095Y-144311009D02*
X111500476Y-144406247D01*
X65674819Y-57356189D02*
X64674819Y-57356189D01*
X65579580Y-56308571D02*
X65627200Y-56356190D01*
X65627200Y-56356190D02*
X65674819Y-56499047D01*
X65674819Y-56499047D02*
X65674819Y-56594285D01*
X65674819Y-56594285D02*
X65627200Y-56737142D01*
X65627200Y-56737142D02*
X65531961Y-56832380D01*
X65531961Y-56832380D02*
X65436723Y-56879999D01*
X65436723Y-56879999D02*
X65246247Y-56927618D01*
X65246247Y-56927618D02*
X65103390Y-56927618D01*
X65103390Y-56927618D02*
X64912914Y-56879999D01*
X64912914Y-56879999D02*
X64817676Y-56832380D01*
X64817676Y-56832380D02*
X64722438Y-56737142D01*
X64722438Y-56737142D02*
X64674819Y-56594285D01*
X64674819Y-56594285D02*
X64674819Y-56499047D01*
X64674819Y-56499047D02*
X64722438Y-56356190D01*
X64722438Y-56356190D02*
X64770057Y-56308571D01*
X65674819Y-55832380D02*
X65674819Y-55641904D01*
X65674819Y-55641904D02*
X65627200Y-55546666D01*
X65627200Y-55546666D02*
X65579580Y-55499047D01*
X65579580Y-55499047D02*
X65436723Y-55403809D01*
X65436723Y-55403809D02*
X65246247Y-55356190D01*
X65246247Y-55356190D02*
X64865295Y-55356190D01*
X64865295Y-55356190D02*
X64770057Y-55403809D01*
X64770057Y-55403809D02*
X64722438Y-55451428D01*
X64722438Y-55451428D02*
X64674819Y-55546666D01*
X64674819Y-55546666D02*
X64674819Y-55737142D01*
X64674819Y-55737142D02*
X64722438Y-55832380D01*
X64722438Y-55832380D02*
X64770057Y-55879999D01*
X64770057Y-55879999D02*
X64865295Y-55927618D01*
X64865295Y-55927618D02*
X65103390Y-55927618D01*
X65103390Y-55927618D02*
X65198628Y-55879999D01*
X65198628Y-55879999D02*
X65246247Y-55832380D01*
X65246247Y-55832380D02*
X65293866Y-55737142D01*
X65293866Y-55737142D02*
X65293866Y-55546666D01*
X65293866Y-55546666D02*
X65246247Y-55451428D01*
X65246247Y-55451428D02*
X65198628Y-55403809D01*
X65198628Y-55403809D02*
X65103390Y-55356190D01*
X85954819Y-57952380D02*
X84954819Y-57952380D01*
X85859580Y-56904762D02*
X85907200Y-56952381D01*
X85907200Y-56952381D02*
X85954819Y-57095238D01*
X85954819Y-57095238D02*
X85954819Y-57190476D01*
X85954819Y-57190476D02*
X85907200Y-57333333D01*
X85907200Y-57333333D02*
X85811961Y-57428571D01*
X85811961Y-57428571D02*
X85716723Y-57476190D01*
X85716723Y-57476190D02*
X85526247Y-57523809D01*
X85526247Y-57523809D02*
X85383390Y-57523809D01*
X85383390Y-57523809D02*
X85192914Y-57476190D01*
X85192914Y-57476190D02*
X85097676Y-57428571D01*
X85097676Y-57428571D02*
X85002438Y-57333333D01*
X85002438Y-57333333D02*
X84954819Y-57190476D01*
X84954819Y-57190476D02*
X84954819Y-57095238D01*
X84954819Y-57095238D02*
X85002438Y-56952381D01*
X85002438Y-56952381D02*
X85050057Y-56904762D01*
X85954819Y-55952381D02*
X85954819Y-56523809D01*
X85954819Y-56238095D02*
X84954819Y-56238095D01*
X84954819Y-56238095D02*
X85097676Y-56333333D01*
X85097676Y-56333333D02*
X85192914Y-56428571D01*
X85192914Y-56428571D02*
X85240533Y-56523809D01*
X85954819Y-55000000D02*
X85954819Y-55571428D01*
X85954819Y-55285714D02*
X84954819Y-55285714D01*
X84954819Y-55285714D02*
X85097676Y-55380952D01*
X85097676Y-55380952D02*
X85192914Y-55476190D01*
X85192914Y-55476190D02*
X85240533Y-55571428D01*
X144837142Y-51329580D02*
X144789523Y-51377200D01*
X144789523Y-51377200D02*
X144646666Y-51424819D01*
X144646666Y-51424819D02*
X144551428Y-51424819D01*
X144551428Y-51424819D02*
X144408571Y-51377200D01*
X144408571Y-51377200D02*
X144313333Y-51281961D01*
X144313333Y-51281961D02*
X144265714Y-51186723D01*
X144265714Y-51186723D02*
X144218095Y-50996247D01*
X144218095Y-50996247D02*
X144218095Y-50853390D01*
X144218095Y-50853390D02*
X144265714Y-50662914D01*
X144265714Y-50662914D02*
X144313333Y-50567676D01*
X144313333Y-50567676D02*
X144408571Y-50472438D01*
X144408571Y-50472438D02*
X144551428Y-50424819D01*
X144551428Y-50424819D02*
X144646666Y-50424819D01*
X144646666Y-50424819D02*
X144789523Y-50472438D01*
X144789523Y-50472438D02*
X144837142Y-50520057D01*
X145218095Y-50520057D02*
X145265714Y-50472438D01*
X145265714Y-50472438D02*
X145360952Y-50424819D01*
X145360952Y-50424819D02*
X145599047Y-50424819D01*
X145599047Y-50424819D02*
X145694285Y-50472438D01*
X145694285Y-50472438D02*
X145741904Y-50520057D01*
X145741904Y-50520057D02*
X145789523Y-50615295D01*
X145789523Y-50615295D02*
X145789523Y-50710533D01*
X145789523Y-50710533D02*
X145741904Y-50853390D01*
X145741904Y-50853390D02*
X145170476Y-51424819D01*
X145170476Y-51424819D02*
X145789523Y-51424819D01*
X146646666Y-50424819D02*
X146456190Y-50424819D01*
X146456190Y-50424819D02*
X146360952Y-50472438D01*
X146360952Y-50472438D02*
X146313333Y-50520057D01*
X146313333Y-50520057D02*
X146218095Y-50662914D01*
X146218095Y-50662914D02*
X146170476Y-50853390D01*
X146170476Y-50853390D02*
X146170476Y-51234342D01*
X146170476Y-51234342D02*
X146218095Y-51329580D01*
X146218095Y-51329580D02*
X146265714Y-51377200D01*
X146265714Y-51377200D02*
X146360952Y-51424819D01*
X146360952Y-51424819D02*
X146551428Y-51424819D01*
X146551428Y-51424819D02*
X146646666Y-51377200D01*
X146646666Y-51377200D02*
X146694285Y-51329580D01*
X146694285Y-51329580D02*
X146741904Y-51234342D01*
X146741904Y-51234342D02*
X146741904Y-50996247D01*
X146741904Y-50996247D02*
X146694285Y-50901009D01*
X146694285Y-50901009D02*
X146646666Y-50853390D01*
X146646666Y-50853390D02*
X146551428Y-50805771D01*
X146551428Y-50805771D02*
X146360952Y-50805771D01*
X146360952Y-50805771D02*
X146265714Y-50853390D01*
X146265714Y-50853390D02*
X146218095Y-50901009D01*
X146218095Y-50901009D02*
X146170476Y-50996247D01*
X47954819Y-81976189D02*
X46954819Y-81976189D01*
X47859580Y-80928571D02*
X47907200Y-80976190D01*
X47907200Y-80976190D02*
X47954819Y-81119047D01*
X47954819Y-81119047D02*
X47954819Y-81214285D01*
X47954819Y-81214285D02*
X47907200Y-81357142D01*
X47907200Y-81357142D02*
X47811961Y-81452380D01*
X47811961Y-81452380D02*
X47716723Y-81499999D01*
X47716723Y-81499999D02*
X47526247Y-81547618D01*
X47526247Y-81547618D02*
X47383390Y-81547618D01*
X47383390Y-81547618D02*
X47192914Y-81499999D01*
X47192914Y-81499999D02*
X47097676Y-81452380D01*
X47097676Y-81452380D02*
X47002438Y-81357142D01*
X47002438Y-81357142D02*
X46954819Y-81214285D01*
X46954819Y-81214285D02*
X46954819Y-81119047D01*
X46954819Y-81119047D02*
X47002438Y-80976190D01*
X47002438Y-80976190D02*
X47050057Y-80928571D01*
X47288152Y-80071428D02*
X47954819Y-80071428D01*
X46907200Y-80309523D02*
X47621485Y-80547618D01*
X47621485Y-80547618D02*
X47621485Y-79928571D01*
X145857142Y-68534819D02*
X145523809Y-68058628D01*
X145285714Y-68534819D02*
X145285714Y-67534819D01*
X145285714Y-67534819D02*
X145666666Y-67534819D01*
X145666666Y-67534819D02*
X145761904Y-67582438D01*
X145761904Y-67582438D02*
X145809523Y-67630057D01*
X145809523Y-67630057D02*
X145857142Y-67725295D01*
X145857142Y-67725295D02*
X145857142Y-67868152D01*
X145857142Y-67868152D02*
X145809523Y-67963390D01*
X145809523Y-67963390D02*
X145761904Y-68011009D01*
X145761904Y-68011009D02*
X145666666Y-68058628D01*
X145666666Y-68058628D02*
X145285714Y-68058628D01*
X146809523Y-68534819D02*
X146238095Y-68534819D01*
X146523809Y-68534819D02*
X146523809Y-67534819D01*
X146523809Y-67534819D02*
X146428571Y-67677676D01*
X146428571Y-67677676D02*
X146333333Y-67772914D01*
X146333333Y-67772914D02*
X146238095Y-67820533D01*
X147666666Y-67868152D02*
X147666666Y-68534819D01*
X147428571Y-67487200D02*
X147190476Y-68201485D01*
X147190476Y-68201485D02*
X147809523Y-68201485D01*
X137454819Y-157309523D02*
X138454819Y-156642857D01*
X137454819Y-156642857D02*
X138454819Y-157309523D01*
X138454819Y-155738095D02*
X138454819Y-156309523D01*
X138454819Y-156023809D02*
X137454819Y-156023809D01*
X137454819Y-156023809D02*
X137597676Y-156119047D01*
X137597676Y-156119047D02*
X137692914Y-156214285D01*
X137692914Y-156214285D02*
X137740533Y-156309523D01*
X123897142Y-68534819D02*
X123563809Y-68058628D01*
X123325714Y-68534819D02*
X123325714Y-67534819D01*
X123325714Y-67534819D02*
X123706666Y-67534819D01*
X123706666Y-67534819D02*
X123801904Y-67582438D01*
X123801904Y-67582438D02*
X123849523Y-67630057D01*
X123849523Y-67630057D02*
X123897142Y-67725295D01*
X123897142Y-67725295D02*
X123897142Y-67868152D01*
X123897142Y-67868152D02*
X123849523Y-67963390D01*
X123849523Y-67963390D02*
X123801904Y-68011009D01*
X123801904Y-68011009D02*
X123706666Y-68058628D01*
X123706666Y-68058628D02*
X123325714Y-68058628D01*
X124849523Y-68534819D02*
X124278095Y-68534819D01*
X124563809Y-68534819D02*
X124563809Y-67534819D01*
X124563809Y-67534819D02*
X124468571Y-67677676D01*
X124468571Y-67677676D02*
X124373333Y-67772914D01*
X124373333Y-67772914D02*
X124278095Y-67820533D01*
X125801904Y-68534819D02*
X125230476Y-68534819D01*
X125516190Y-68534819D02*
X125516190Y-67534819D01*
X125516190Y-67534819D02*
X125420952Y-67677676D01*
X125420952Y-67677676D02*
X125325714Y-67772914D01*
X125325714Y-67772914D02*
X125230476Y-67820533D01*
X149754819Y-52512857D02*
X149278628Y-52846190D01*
X149754819Y-53084285D02*
X148754819Y-53084285D01*
X148754819Y-53084285D02*
X148754819Y-52703333D01*
X148754819Y-52703333D02*
X148802438Y-52608095D01*
X148802438Y-52608095D02*
X148850057Y-52560476D01*
X148850057Y-52560476D02*
X148945295Y-52512857D01*
X148945295Y-52512857D02*
X149088152Y-52512857D01*
X149088152Y-52512857D02*
X149183390Y-52560476D01*
X149183390Y-52560476D02*
X149231009Y-52608095D01*
X149231009Y-52608095D02*
X149278628Y-52703333D01*
X149278628Y-52703333D02*
X149278628Y-53084285D01*
X148850057Y-52131904D02*
X148802438Y-52084285D01*
X148802438Y-52084285D02*
X148754819Y-51989047D01*
X148754819Y-51989047D02*
X148754819Y-51750952D01*
X148754819Y-51750952D02*
X148802438Y-51655714D01*
X148802438Y-51655714D02*
X148850057Y-51608095D01*
X148850057Y-51608095D02*
X148945295Y-51560476D01*
X148945295Y-51560476D02*
X149040533Y-51560476D01*
X149040533Y-51560476D02*
X149183390Y-51608095D01*
X149183390Y-51608095D02*
X149754819Y-52179523D01*
X149754819Y-52179523D02*
X149754819Y-51560476D01*
X148754819Y-51227142D02*
X148754819Y-50608095D01*
X148754819Y-50608095D02*
X149135771Y-50941428D01*
X149135771Y-50941428D02*
X149135771Y-50798571D01*
X149135771Y-50798571D02*
X149183390Y-50703333D01*
X149183390Y-50703333D02*
X149231009Y-50655714D01*
X149231009Y-50655714D02*
X149326247Y-50608095D01*
X149326247Y-50608095D02*
X149564342Y-50608095D01*
X149564342Y-50608095D02*
X149659580Y-50655714D01*
X149659580Y-50655714D02*
X149707200Y-50703333D01*
X149707200Y-50703333D02*
X149754819Y-50798571D01*
X149754819Y-50798571D02*
X149754819Y-51084285D01*
X149754819Y-51084285D02*
X149707200Y-51179523D01*
X149707200Y-51179523D02*
X149659580Y-51227142D01*
X70357142Y-112359580D02*
X70309523Y-112407200D01*
X70309523Y-112407200D02*
X70166666Y-112454819D01*
X70166666Y-112454819D02*
X70071428Y-112454819D01*
X70071428Y-112454819D02*
X69928571Y-112407200D01*
X69928571Y-112407200D02*
X69833333Y-112311961D01*
X69833333Y-112311961D02*
X69785714Y-112216723D01*
X69785714Y-112216723D02*
X69738095Y-112026247D01*
X69738095Y-112026247D02*
X69738095Y-111883390D01*
X69738095Y-111883390D02*
X69785714Y-111692914D01*
X69785714Y-111692914D02*
X69833333Y-111597676D01*
X69833333Y-111597676D02*
X69928571Y-111502438D01*
X69928571Y-111502438D02*
X70071428Y-111454819D01*
X70071428Y-111454819D02*
X70166666Y-111454819D01*
X70166666Y-111454819D02*
X70309523Y-111502438D01*
X70309523Y-111502438D02*
X70357142Y-111550057D01*
X71309523Y-112454819D02*
X70738095Y-112454819D01*
X71023809Y-112454819D02*
X71023809Y-111454819D01*
X71023809Y-111454819D02*
X70928571Y-111597676D01*
X70928571Y-111597676D02*
X70833333Y-111692914D01*
X70833333Y-111692914D02*
X70738095Y-111740533D01*
X71928571Y-111454819D02*
X72023809Y-111454819D01*
X72023809Y-111454819D02*
X72119047Y-111502438D01*
X72119047Y-111502438D02*
X72166666Y-111550057D01*
X72166666Y-111550057D02*
X72214285Y-111645295D01*
X72214285Y-111645295D02*
X72261904Y-111835771D01*
X72261904Y-111835771D02*
X72261904Y-112073866D01*
X72261904Y-112073866D02*
X72214285Y-112264342D01*
X72214285Y-112264342D02*
X72166666Y-112359580D01*
X72166666Y-112359580D02*
X72119047Y-112407200D01*
X72119047Y-112407200D02*
X72023809Y-112454819D01*
X72023809Y-112454819D02*
X71928571Y-112454819D01*
X71928571Y-112454819D02*
X71833333Y-112407200D01*
X71833333Y-112407200D02*
X71785714Y-112359580D01*
X71785714Y-112359580D02*
X71738095Y-112264342D01*
X71738095Y-112264342D02*
X71690476Y-112073866D01*
X71690476Y-112073866D02*
X71690476Y-111835771D01*
X71690476Y-111835771D02*
X71738095Y-111645295D01*
X71738095Y-111645295D02*
X71785714Y-111550057D01*
X71785714Y-111550057D02*
X71833333Y-111502438D01*
X71833333Y-111502438D02*
X71928571Y-111454819D01*
X107357142Y-89859580D02*
X107309523Y-89907200D01*
X107309523Y-89907200D02*
X107166666Y-89954819D01*
X107166666Y-89954819D02*
X107071428Y-89954819D01*
X107071428Y-89954819D02*
X106928571Y-89907200D01*
X106928571Y-89907200D02*
X106833333Y-89811961D01*
X106833333Y-89811961D02*
X106785714Y-89716723D01*
X106785714Y-89716723D02*
X106738095Y-89526247D01*
X106738095Y-89526247D02*
X106738095Y-89383390D01*
X106738095Y-89383390D02*
X106785714Y-89192914D01*
X106785714Y-89192914D02*
X106833333Y-89097676D01*
X106833333Y-89097676D02*
X106928571Y-89002438D01*
X106928571Y-89002438D02*
X107071428Y-88954819D01*
X107071428Y-88954819D02*
X107166666Y-88954819D01*
X107166666Y-88954819D02*
X107309523Y-89002438D01*
X107309523Y-89002438D02*
X107357142Y-89050057D01*
X108309523Y-89954819D02*
X107738095Y-89954819D01*
X108023809Y-89954819D02*
X108023809Y-88954819D01*
X108023809Y-88954819D02*
X107928571Y-89097676D01*
X107928571Y-89097676D02*
X107833333Y-89192914D01*
X107833333Y-89192914D02*
X107738095Y-89240533D01*
X108642857Y-88954819D02*
X109309523Y-88954819D01*
X109309523Y-88954819D02*
X108880952Y-89954819D01*
X120359580Y-143642857D02*
X120407200Y-143690476D01*
X120407200Y-143690476D02*
X120454819Y-143833333D01*
X120454819Y-143833333D02*
X120454819Y-143928571D01*
X120454819Y-143928571D02*
X120407200Y-144071428D01*
X120407200Y-144071428D02*
X120311961Y-144166666D01*
X120311961Y-144166666D02*
X120216723Y-144214285D01*
X120216723Y-144214285D02*
X120026247Y-144261904D01*
X120026247Y-144261904D02*
X119883390Y-144261904D01*
X119883390Y-144261904D02*
X119692914Y-144214285D01*
X119692914Y-144214285D02*
X119597676Y-144166666D01*
X119597676Y-144166666D02*
X119502438Y-144071428D01*
X119502438Y-144071428D02*
X119454819Y-143928571D01*
X119454819Y-143928571D02*
X119454819Y-143833333D01*
X119454819Y-143833333D02*
X119502438Y-143690476D01*
X119502438Y-143690476D02*
X119550057Y-143642857D01*
X119550057Y-143261904D02*
X119502438Y-143214285D01*
X119502438Y-143214285D02*
X119454819Y-143119047D01*
X119454819Y-143119047D02*
X119454819Y-142880952D01*
X119454819Y-142880952D02*
X119502438Y-142785714D01*
X119502438Y-142785714D02*
X119550057Y-142738095D01*
X119550057Y-142738095D02*
X119645295Y-142690476D01*
X119645295Y-142690476D02*
X119740533Y-142690476D01*
X119740533Y-142690476D02*
X119883390Y-142738095D01*
X119883390Y-142738095D02*
X120454819Y-143309523D01*
X120454819Y-143309523D02*
X120454819Y-142690476D01*
X119454819Y-142071428D02*
X119454819Y-141976190D01*
X119454819Y-141976190D02*
X119502438Y-141880952D01*
X119502438Y-141880952D02*
X119550057Y-141833333D01*
X119550057Y-141833333D02*
X119645295Y-141785714D01*
X119645295Y-141785714D02*
X119835771Y-141738095D01*
X119835771Y-141738095D02*
X120073866Y-141738095D01*
X120073866Y-141738095D02*
X120264342Y-141785714D01*
X120264342Y-141785714D02*
X120359580Y-141833333D01*
X120359580Y-141833333D02*
X120407200Y-141880952D01*
X120407200Y-141880952D02*
X120454819Y-141976190D01*
X120454819Y-141976190D02*
X120454819Y-142071428D01*
X120454819Y-142071428D02*
X120407200Y-142166666D01*
X120407200Y-142166666D02*
X120359580Y-142214285D01*
X120359580Y-142214285D02*
X120264342Y-142261904D01*
X120264342Y-142261904D02*
X120073866Y-142309523D01*
X120073866Y-142309523D02*
X119835771Y-142309523D01*
X119835771Y-142309523D02*
X119645295Y-142261904D01*
X119645295Y-142261904D02*
X119550057Y-142214285D01*
X119550057Y-142214285D02*
X119502438Y-142166666D01*
X119502438Y-142166666D02*
X119454819Y-142071428D01*
X123857142Y-72534819D02*
X123523809Y-72058628D01*
X123285714Y-72534819D02*
X123285714Y-71534819D01*
X123285714Y-71534819D02*
X123666666Y-71534819D01*
X123666666Y-71534819D02*
X123761904Y-71582438D01*
X123761904Y-71582438D02*
X123809523Y-71630057D01*
X123809523Y-71630057D02*
X123857142Y-71725295D01*
X123857142Y-71725295D02*
X123857142Y-71868152D01*
X123857142Y-71868152D02*
X123809523Y-71963390D01*
X123809523Y-71963390D02*
X123761904Y-72011009D01*
X123761904Y-72011009D02*
X123666666Y-72058628D01*
X123666666Y-72058628D02*
X123285714Y-72058628D01*
X124809523Y-72534819D02*
X124238095Y-72534819D01*
X124523809Y-72534819D02*
X124523809Y-71534819D01*
X124523809Y-71534819D02*
X124428571Y-71677676D01*
X124428571Y-71677676D02*
X124333333Y-71772914D01*
X124333333Y-71772914D02*
X124238095Y-71820533D01*
X125428571Y-71534819D02*
X125523809Y-71534819D01*
X125523809Y-71534819D02*
X125619047Y-71582438D01*
X125619047Y-71582438D02*
X125666666Y-71630057D01*
X125666666Y-71630057D02*
X125714285Y-71725295D01*
X125714285Y-71725295D02*
X125761904Y-71915771D01*
X125761904Y-71915771D02*
X125761904Y-72153866D01*
X125761904Y-72153866D02*
X125714285Y-72344342D01*
X125714285Y-72344342D02*
X125666666Y-72439580D01*
X125666666Y-72439580D02*
X125619047Y-72487200D01*
X125619047Y-72487200D02*
X125523809Y-72534819D01*
X125523809Y-72534819D02*
X125428571Y-72534819D01*
X125428571Y-72534819D02*
X125333333Y-72487200D01*
X125333333Y-72487200D02*
X125285714Y-72439580D01*
X125285714Y-72439580D02*
X125238095Y-72344342D01*
X125238095Y-72344342D02*
X125190476Y-72153866D01*
X125190476Y-72153866D02*
X125190476Y-71915771D01*
X125190476Y-71915771D02*
X125238095Y-71725295D01*
X125238095Y-71725295D02*
X125285714Y-71630057D01*
X125285714Y-71630057D02*
X125333333Y-71582438D01*
X125333333Y-71582438D02*
X125428571Y-71534819D01*
X89346667Y-67567200D02*
X89489524Y-67614819D01*
X89489524Y-67614819D02*
X89727619Y-67614819D01*
X89727619Y-67614819D02*
X89822857Y-67567200D01*
X89822857Y-67567200D02*
X89870476Y-67519580D01*
X89870476Y-67519580D02*
X89918095Y-67424342D01*
X89918095Y-67424342D02*
X89918095Y-67329104D01*
X89918095Y-67329104D02*
X89870476Y-67233866D01*
X89870476Y-67233866D02*
X89822857Y-67186247D01*
X89822857Y-67186247D02*
X89727619Y-67138628D01*
X89727619Y-67138628D02*
X89537143Y-67091009D01*
X89537143Y-67091009D02*
X89441905Y-67043390D01*
X89441905Y-67043390D02*
X89394286Y-66995771D01*
X89394286Y-66995771D02*
X89346667Y-66900533D01*
X89346667Y-66900533D02*
X89346667Y-66805295D01*
X89346667Y-66805295D02*
X89394286Y-66710057D01*
X89394286Y-66710057D02*
X89441905Y-66662438D01*
X89441905Y-66662438D02*
X89537143Y-66614819D01*
X89537143Y-66614819D02*
X89775238Y-66614819D01*
X89775238Y-66614819D02*
X89918095Y-66662438D01*
X90251429Y-66614819D02*
X90489524Y-67614819D01*
X90489524Y-67614819D02*
X90680000Y-66900533D01*
X90680000Y-66900533D02*
X90870476Y-67614819D01*
X90870476Y-67614819D02*
X91108572Y-66614819D01*
X92013333Y-67614819D02*
X91441905Y-67614819D01*
X91727619Y-67614819D02*
X91727619Y-66614819D01*
X91727619Y-66614819D02*
X91632381Y-66757676D01*
X91632381Y-66757676D02*
X91537143Y-66852914D01*
X91537143Y-66852914D02*
X91441905Y-66900533D01*
X41583333Y-36459580D02*
X41535714Y-36507200D01*
X41535714Y-36507200D02*
X41392857Y-36554819D01*
X41392857Y-36554819D02*
X41297619Y-36554819D01*
X41297619Y-36554819D02*
X41154762Y-36507200D01*
X41154762Y-36507200D02*
X41059524Y-36411961D01*
X41059524Y-36411961D02*
X41011905Y-36316723D01*
X41011905Y-36316723D02*
X40964286Y-36126247D01*
X40964286Y-36126247D02*
X40964286Y-35983390D01*
X40964286Y-35983390D02*
X41011905Y-35792914D01*
X41011905Y-35792914D02*
X41059524Y-35697676D01*
X41059524Y-35697676D02*
X41154762Y-35602438D01*
X41154762Y-35602438D02*
X41297619Y-35554819D01*
X41297619Y-35554819D02*
X41392857Y-35554819D01*
X41392857Y-35554819D02*
X41535714Y-35602438D01*
X41535714Y-35602438D02*
X41583333Y-35650057D01*
X42535714Y-36554819D02*
X41964286Y-36554819D01*
X42250000Y-36554819D02*
X42250000Y-35554819D01*
X42250000Y-35554819D02*
X42154762Y-35697676D01*
X42154762Y-35697676D02*
X42059524Y-35792914D01*
X42059524Y-35792914D02*
X41964286Y-35840533D01*
X79954819Y-92666666D02*
X79478628Y-92999999D01*
X79954819Y-93238094D02*
X78954819Y-93238094D01*
X78954819Y-93238094D02*
X78954819Y-92857142D01*
X78954819Y-92857142D02*
X79002438Y-92761904D01*
X79002438Y-92761904D02*
X79050057Y-92714285D01*
X79050057Y-92714285D02*
X79145295Y-92666666D01*
X79145295Y-92666666D02*
X79288152Y-92666666D01*
X79288152Y-92666666D02*
X79383390Y-92714285D01*
X79383390Y-92714285D02*
X79431009Y-92761904D01*
X79431009Y-92761904D02*
X79478628Y-92857142D01*
X79478628Y-92857142D02*
X79478628Y-93238094D01*
X79954819Y-91714285D02*
X79954819Y-92285713D01*
X79954819Y-91999999D02*
X78954819Y-91999999D01*
X78954819Y-91999999D02*
X79097676Y-92095237D01*
X79097676Y-92095237D02*
X79192914Y-92190475D01*
X79192914Y-92190475D02*
X79240533Y-92285713D01*
X107327142Y-64809580D02*
X107279523Y-64857200D01*
X107279523Y-64857200D02*
X107136666Y-64904819D01*
X107136666Y-64904819D02*
X107041428Y-64904819D01*
X107041428Y-64904819D02*
X106898571Y-64857200D01*
X106898571Y-64857200D02*
X106803333Y-64761961D01*
X106803333Y-64761961D02*
X106755714Y-64666723D01*
X106755714Y-64666723D02*
X106708095Y-64476247D01*
X106708095Y-64476247D02*
X106708095Y-64333390D01*
X106708095Y-64333390D02*
X106755714Y-64142914D01*
X106755714Y-64142914D02*
X106803333Y-64047676D01*
X106803333Y-64047676D02*
X106898571Y-63952438D01*
X106898571Y-63952438D02*
X107041428Y-63904819D01*
X107041428Y-63904819D02*
X107136666Y-63904819D01*
X107136666Y-63904819D02*
X107279523Y-63952438D01*
X107279523Y-63952438D02*
X107327142Y-64000057D01*
X108279523Y-64904819D02*
X107708095Y-64904819D01*
X107993809Y-64904819D02*
X107993809Y-63904819D01*
X107993809Y-63904819D02*
X107898571Y-64047676D01*
X107898571Y-64047676D02*
X107803333Y-64142914D01*
X107803333Y-64142914D02*
X107708095Y-64190533D01*
X108850952Y-64333390D02*
X108755714Y-64285771D01*
X108755714Y-64285771D02*
X108708095Y-64238152D01*
X108708095Y-64238152D02*
X108660476Y-64142914D01*
X108660476Y-64142914D02*
X108660476Y-64095295D01*
X108660476Y-64095295D02*
X108708095Y-64000057D01*
X108708095Y-64000057D02*
X108755714Y-63952438D01*
X108755714Y-63952438D02*
X108850952Y-63904819D01*
X108850952Y-63904819D02*
X109041428Y-63904819D01*
X109041428Y-63904819D02*
X109136666Y-63952438D01*
X109136666Y-63952438D02*
X109184285Y-64000057D01*
X109184285Y-64000057D02*
X109231904Y-64095295D01*
X109231904Y-64095295D02*
X109231904Y-64142914D01*
X109231904Y-64142914D02*
X109184285Y-64238152D01*
X109184285Y-64238152D02*
X109136666Y-64285771D01*
X109136666Y-64285771D02*
X109041428Y-64333390D01*
X109041428Y-64333390D02*
X108850952Y-64333390D01*
X108850952Y-64333390D02*
X108755714Y-64381009D01*
X108755714Y-64381009D02*
X108708095Y-64428628D01*
X108708095Y-64428628D02*
X108660476Y-64523866D01*
X108660476Y-64523866D02*
X108660476Y-64714342D01*
X108660476Y-64714342D02*
X108708095Y-64809580D01*
X108708095Y-64809580D02*
X108755714Y-64857200D01*
X108755714Y-64857200D02*
X108850952Y-64904819D01*
X108850952Y-64904819D02*
X109041428Y-64904819D01*
X109041428Y-64904819D02*
X109136666Y-64857200D01*
X109136666Y-64857200D02*
X109184285Y-64809580D01*
X109184285Y-64809580D02*
X109231904Y-64714342D01*
X109231904Y-64714342D02*
X109231904Y-64523866D01*
X109231904Y-64523866D02*
X109184285Y-64428628D01*
X109184285Y-64428628D02*
X109136666Y-64381009D01*
X109136666Y-64381009D02*
X109041428Y-64333390D01*
X77534819Y-63626666D02*
X77058628Y-63959999D01*
X77534819Y-64198094D02*
X76534819Y-64198094D01*
X76534819Y-64198094D02*
X76534819Y-63817142D01*
X76534819Y-63817142D02*
X76582438Y-63721904D01*
X76582438Y-63721904D02*
X76630057Y-63674285D01*
X76630057Y-63674285D02*
X76725295Y-63626666D01*
X76725295Y-63626666D02*
X76868152Y-63626666D01*
X76868152Y-63626666D02*
X76963390Y-63674285D01*
X76963390Y-63674285D02*
X77011009Y-63721904D01*
X77011009Y-63721904D02*
X77058628Y-63817142D01*
X77058628Y-63817142D02*
X77058628Y-64198094D01*
X76868152Y-62769523D02*
X77534819Y-62769523D01*
X76487200Y-63007618D02*
X77201485Y-63245713D01*
X77201485Y-63245713D02*
X77201485Y-62626666D01*
X150134819Y-41782857D02*
X149658628Y-42116190D01*
X150134819Y-42354285D02*
X149134819Y-42354285D01*
X149134819Y-42354285D02*
X149134819Y-41973333D01*
X149134819Y-41973333D02*
X149182438Y-41878095D01*
X149182438Y-41878095D02*
X149230057Y-41830476D01*
X149230057Y-41830476D02*
X149325295Y-41782857D01*
X149325295Y-41782857D02*
X149468152Y-41782857D01*
X149468152Y-41782857D02*
X149563390Y-41830476D01*
X149563390Y-41830476D02*
X149611009Y-41878095D01*
X149611009Y-41878095D02*
X149658628Y-41973333D01*
X149658628Y-41973333D02*
X149658628Y-42354285D01*
X149230057Y-41401904D02*
X149182438Y-41354285D01*
X149182438Y-41354285D02*
X149134819Y-41259047D01*
X149134819Y-41259047D02*
X149134819Y-41020952D01*
X149134819Y-41020952D02*
X149182438Y-40925714D01*
X149182438Y-40925714D02*
X149230057Y-40878095D01*
X149230057Y-40878095D02*
X149325295Y-40830476D01*
X149325295Y-40830476D02*
X149420533Y-40830476D01*
X149420533Y-40830476D02*
X149563390Y-40878095D01*
X149563390Y-40878095D02*
X150134819Y-41449523D01*
X150134819Y-41449523D02*
X150134819Y-40830476D01*
X149230057Y-40449523D02*
X149182438Y-40401904D01*
X149182438Y-40401904D02*
X149134819Y-40306666D01*
X149134819Y-40306666D02*
X149134819Y-40068571D01*
X149134819Y-40068571D02*
X149182438Y-39973333D01*
X149182438Y-39973333D02*
X149230057Y-39925714D01*
X149230057Y-39925714D02*
X149325295Y-39878095D01*
X149325295Y-39878095D02*
X149420533Y-39878095D01*
X149420533Y-39878095D02*
X149563390Y-39925714D01*
X149563390Y-39925714D02*
X150134819Y-40497142D01*
X150134819Y-40497142D02*
X150134819Y-39878095D01*
X130954819Y-140602857D02*
X130478628Y-140936190D01*
X130954819Y-141174285D02*
X129954819Y-141174285D01*
X129954819Y-141174285D02*
X129954819Y-140793333D01*
X129954819Y-140793333D02*
X130002438Y-140698095D01*
X130002438Y-140698095D02*
X130050057Y-140650476D01*
X130050057Y-140650476D02*
X130145295Y-140602857D01*
X130145295Y-140602857D02*
X130288152Y-140602857D01*
X130288152Y-140602857D02*
X130383390Y-140650476D01*
X130383390Y-140650476D02*
X130431009Y-140698095D01*
X130431009Y-140698095D02*
X130478628Y-140793333D01*
X130478628Y-140793333D02*
X130478628Y-141174285D01*
X130050057Y-140221904D02*
X130002438Y-140174285D01*
X130002438Y-140174285D02*
X129954819Y-140079047D01*
X129954819Y-140079047D02*
X129954819Y-139840952D01*
X129954819Y-139840952D02*
X130002438Y-139745714D01*
X130002438Y-139745714D02*
X130050057Y-139698095D01*
X130050057Y-139698095D02*
X130145295Y-139650476D01*
X130145295Y-139650476D02*
X130240533Y-139650476D01*
X130240533Y-139650476D02*
X130383390Y-139698095D01*
X130383390Y-139698095D02*
X130954819Y-140269523D01*
X130954819Y-140269523D02*
X130954819Y-139650476D01*
X129954819Y-139317142D02*
X129954819Y-138650476D01*
X129954819Y-138650476D02*
X130954819Y-139079047D01*
X148204819Y-135452857D02*
X147728628Y-135786190D01*
X148204819Y-136024285D02*
X147204819Y-136024285D01*
X147204819Y-136024285D02*
X147204819Y-135643333D01*
X147204819Y-135643333D02*
X147252438Y-135548095D01*
X147252438Y-135548095D02*
X147300057Y-135500476D01*
X147300057Y-135500476D02*
X147395295Y-135452857D01*
X147395295Y-135452857D02*
X147538152Y-135452857D01*
X147538152Y-135452857D02*
X147633390Y-135500476D01*
X147633390Y-135500476D02*
X147681009Y-135548095D01*
X147681009Y-135548095D02*
X147728628Y-135643333D01*
X147728628Y-135643333D02*
X147728628Y-136024285D01*
X147300057Y-135071904D02*
X147252438Y-135024285D01*
X147252438Y-135024285D02*
X147204819Y-134929047D01*
X147204819Y-134929047D02*
X147204819Y-134690952D01*
X147204819Y-134690952D02*
X147252438Y-134595714D01*
X147252438Y-134595714D02*
X147300057Y-134548095D01*
X147300057Y-134548095D02*
X147395295Y-134500476D01*
X147395295Y-134500476D02*
X147490533Y-134500476D01*
X147490533Y-134500476D02*
X147633390Y-134548095D01*
X147633390Y-134548095D02*
X148204819Y-135119523D01*
X148204819Y-135119523D02*
X148204819Y-134500476D01*
X148204819Y-134024285D02*
X148204819Y-133833809D01*
X148204819Y-133833809D02*
X148157200Y-133738571D01*
X148157200Y-133738571D02*
X148109580Y-133690952D01*
X148109580Y-133690952D02*
X147966723Y-133595714D01*
X147966723Y-133595714D02*
X147776247Y-133548095D01*
X147776247Y-133548095D02*
X147395295Y-133548095D01*
X147395295Y-133548095D02*
X147300057Y-133595714D01*
X147300057Y-133595714D02*
X147252438Y-133643333D01*
X147252438Y-133643333D02*
X147204819Y-133738571D01*
X147204819Y-133738571D02*
X147204819Y-133929047D01*
X147204819Y-133929047D02*
X147252438Y-134024285D01*
X147252438Y-134024285D02*
X147300057Y-134071904D01*
X147300057Y-134071904D02*
X147395295Y-134119523D01*
X147395295Y-134119523D02*
X147633390Y-134119523D01*
X147633390Y-134119523D02*
X147728628Y-134071904D01*
X147728628Y-134071904D02*
X147776247Y-134024285D01*
X147776247Y-134024285D02*
X147823866Y-133929047D01*
X147823866Y-133929047D02*
X147823866Y-133738571D01*
X147823866Y-133738571D02*
X147776247Y-133643333D01*
X147776247Y-133643333D02*
X147728628Y-133595714D01*
X147728628Y-133595714D02*
X147633390Y-133548095D01*
X87454819Y-81333333D02*
X88169104Y-81333333D01*
X88169104Y-81333333D02*
X88311961Y-81380952D01*
X88311961Y-81380952D02*
X88407200Y-81476190D01*
X88407200Y-81476190D02*
X88454819Y-81619047D01*
X88454819Y-81619047D02*
X88454819Y-81714285D01*
X88454819Y-80857142D02*
X87454819Y-80857142D01*
X87454819Y-80857142D02*
X87454819Y-80476190D01*
X87454819Y-80476190D02*
X87502438Y-80380952D01*
X87502438Y-80380952D02*
X87550057Y-80333333D01*
X87550057Y-80333333D02*
X87645295Y-80285714D01*
X87645295Y-80285714D02*
X87788152Y-80285714D01*
X87788152Y-80285714D02*
X87883390Y-80333333D01*
X87883390Y-80333333D02*
X87931009Y-80380952D01*
X87931009Y-80380952D02*
X87978628Y-80476190D01*
X87978628Y-80476190D02*
X87978628Y-80857142D01*
X88454819Y-79333333D02*
X88454819Y-79904761D01*
X88454819Y-79619047D02*
X87454819Y-79619047D01*
X87454819Y-79619047D02*
X87597676Y-79714285D01*
X87597676Y-79714285D02*
X87692914Y-79809523D01*
X87692914Y-79809523D02*
X87740533Y-79904761D01*
X65934819Y-105936189D02*
X64934819Y-105936189D01*
X65839580Y-104888571D02*
X65887200Y-104936190D01*
X65887200Y-104936190D02*
X65934819Y-105079047D01*
X65934819Y-105079047D02*
X65934819Y-105174285D01*
X65934819Y-105174285D02*
X65887200Y-105317142D01*
X65887200Y-105317142D02*
X65791961Y-105412380D01*
X65791961Y-105412380D02*
X65696723Y-105459999D01*
X65696723Y-105459999D02*
X65506247Y-105507618D01*
X65506247Y-105507618D02*
X65363390Y-105507618D01*
X65363390Y-105507618D02*
X65172914Y-105459999D01*
X65172914Y-105459999D02*
X65077676Y-105412380D01*
X65077676Y-105412380D02*
X64982438Y-105317142D01*
X64982438Y-105317142D02*
X64934819Y-105174285D01*
X64934819Y-105174285D02*
X64934819Y-105079047D01*
X64934819Y-105079047D02*
X64982438Y-104936190D01*
X64982438Y-104936190D02*
X65030057Y-104888571D01*
X64934819Y-104555237D02*
X64934819Y-103888571D01*
X64934819Y-103888571D02*
X65934819Y-104317142D01*
X142174819Y-40698094D02*
X141174819Y-40698094D01*
X141174819Y-40698094D02*
X141174819Y-40459999D01*
X141174819Y-40459999D02*
X141222438Y-40317142D01*
X141222438Y-40317142D02*
X141317676Y-40221904D01*
X141317676Y-40221904D02*
X141412914Y-40174285D01*
X141412914Y-40174285D02*
X141603390Y-40126666D01*
X141603390Y-40126666D02*
X141746247Y-40126666D01*
X141746247Y-40126666D02*
X141936723Y-40174285D01*
X141936723Y-40174285D02*
X142031961Y-40221904D01*
X142031961Y-40221904D02*
X142127200Y-40317142D01*
X142127200Y-40317142D02*
X142174819Y-40459999D01*
X142174819Y-40459999D02*
X142174819Y-40698094D01*
X142174819Y-39174285D02*
X142174819Y-39745713D01*
X142174819Y-39459999D02*
X141174819Y-39459999D01*
X141174819Y-39459999D02*
X141317676Y-39555237D01*
X141317676Y-39555237D02*
X141412914Y-39650475D01*
X141412914Y-39650475D02*
X141460533Y-39745713D01*
X53833333Y-138359580D02*
X53785714Y-138407200D01*
X53785714Y-138407200D02*
X53642857Y-138454819D01*
X53642857Y-138454819D02*
X53547619Y-138454819D01*
X53547619Y-138454819D02*
X53404762Y-138407200D01*
X53404762Y-138407200D02*
X53309524Y-138311961D01*
X53309524Y-138311961D02*
X53261905Y-138216723D01*
X53261905Y-138216723D02*
X53214286Y-138026247D01*
X53214286Y-138026247D02*
X53214286Y-137883390D01*
X53214286Y-137883390D02*
X53261905Y-137692914D01*
X53261905Y-137692914D02*
X53309524Y-137597676D01*
X53309524Y-137597676D02*
X53404762Y-137502438D01*
X53404762Y-137502438D02*
X53547619Y-137454819D01*
X53547619Y-137454819D02*
X53642857Y-137454819D01*
X53642857Y-137454819D02*
X53785714Y-137502438D01*
X53785714Y-137502438D02*
X53833333Y-137550057D01*
X54738095Y-137454819D02*
X54261905Y-137454819D01*
X54261905Y-137454819D02*
X54214286Y-137931009D01*
X54214286Y-137931009D02*
X54261905Y-137883390D01*
X54261905Y-137883390D02*
X54357143Y-137835771D01*
X54357143Y-137835771D02*
X54595238Y-137835771D01*
X54595238Y-137835771D02*
X54690476Y-137883390D01*
X54690476Y-137883390D02*
X54738095Y-137931009D01*
X54738095Y-137931009D02*
X54785714Y-138026247D01*
X54785714Y-138026247D02*
X54785714Y-138264342D01*
X54785714Y-138264342D02*
X54738095Y-138359580D01*
X54738095Y-138359580D02*
X54690476Y-138407200D01*
X54690476Y-138407200D02*
X54595238Y-138454819D01*
X54595238Y-138454819D02*
X54357143Y-138454819D01*
X54357143Y-138454819D02*
X54261905Y-138407200D01*
X54261905Y-138407200D02*
X54214286Y-138359580D01*
X79454819Y-50666666D02*
X78978628Y-50999999D01*
X79454819Y-51238094D02*
X78454819Y-51238094D01*
X78454819Y-51238094D02*
X78454819Y-50857142D01*
X78454819Y-50857142D02*
X78502438Y-50761904D01*
X78502438Y-50761904D02*
X78550057Y-50714285D01*
X78550057Y-50714285D02*
X78645295Y-50666666D01*
X78645295Y-50666666D02*
X78788152Y-50666666D01*
X78788152Y-50666666D02*
X78883390Y-50714285D01*
X78883390Y-50714285D02*
X78931009Y-50761904D01*
X78931009Y-50761904D02*
X78978628Y-50857142D01*
X78978628Y-50857142D02*
X78978628Y-51238094D01*
X78454819Y-49761904D02*
X78454819Y-50238094D01*
X78454819Y-50238094D02*
X78931009Y-50285713D01*
X78931009Y-50285713D02*
X78883390Y-50238094D01*
X78883390Y-50238094D02*
X78835771Y-50142856D01*
X78835771Y-50142856D02*
X78835771Y-49904761D01*
X78835771Y-49904761D02*
X78883390Y-49809523D01*
X78883390Y-49809523D02*
X78931009Y-49761904D01*
X78931009Y-49761904D02*
X79026247Y-49714285D01*
X79026247Y-49714285D02*
X79264342Y-49714285D01*
X79264342Y-49714285D02*
X79359580Y-49761904D01*
X79359580Y-49761904D02*
X79407200Y-49809523D01*
X79407200Y-49809523D02*
X79454819Y-49904761D01*
X79454819Y-49904761D02*
X79454819Y-50142856D01*
X79454819Y-50142856D02*
X79407200Y-50238094D01*
X79407200Y-50238094D02*
X79359580Y-50285713D01*
X124333333Y-84534819D02*
X124000000Y-84058628D01*
X123761905Y-84534819D02*
X123761905Y-83534819D01*
X123761905Y-83534819D02*
X124142857Y-83534819D01*
X124142857Y-83534819D02*
X124238095Y-83582438D01*
X124238095Y-83582438D02*
X124285714Y-83630057D01*
X124285714Y-83630057D02*
X124333333Y-83725295D01*
X124333333Y-83725295D02*
X124333333Y-83868152D01*
X124333333Y-83868152D02*
X124285714Y-83963390D01*
X124285714Y-83963390D02*
X124238095Y-84011009D01*
X124238095Y-84011009D02*
X124142857Y-84058628D01*
X124142857Y-84058628D02*
X123761905Y-84058628D01*
X124666667Y-83534819D02*
X125333333Y-83534819D01*
X125333333Y-83534819D02*
X124904762Y-84534819D01*
X138034819Y-51102857D02*
X137558628Y-51436190D01*
X138034819Y-51674285D02*
X137034819Y-51674285D01*
X137034819Y-51674285D02*
X137034819Y-51293333D01*
X137034819Y-51293333D02*
X137082438Y-51198095D01*
X137082438Y-51198095D02*
X137130057Y-51150476D01*
X137130057Y-51150476D02*
X137225295Y-51102857D01*
X137225295Y-51102857D02*
X137368152Y-51102857D01*
X137368152Y-51102857D02*
X137463390Y-51150476D01*
X137463390Y-51150476D02*
X137511009Y-51198095D01*
X137511009Y-51198095D02*
X137558628Y-51293333D01*
X137558628Y-51293333D02*
X137558628Y-51674285D01*
X138034819Y-50150476D02*
X138034819Y-50721904D01*
X138034819Y-50436190D02*
X137034819Y-50436190D01*
X137034819Y-50436190D02*
X137177676Y-50531428D01*
X137177676Y-50531428D02*
X137272914Y-50626666D01*
X137272914Y-50626666D02*
X137320533Y-50721904D01*
X137463390Y-49579047D02*
X137415771Y-49674285D01*
X137415771Y-49674285D02*
X137368152Y-49721904D01*
X137368152Y-49721904D02*
X137272914Y-49769523D01*
X137272914Y-49769523D02*
X137225295Y-49769523D01*
X137225295Y-49769523D02*
X137130057Y-49721904D01*
X137130057Y-49721904D02*
X137082438Y-49674285D01*
X137082438Y-49674285D02*
X137034819Y-49579047D01*
X137034819Y-49579047D02*
X137034819Y-49388571D01*
X137034819Y-49388571D02*
X137082438Y-49293333D01*
X137082438Y-49293333D02*
X137130057Y-49245714D01*
X137130057Y-49245714D02*
X137225295Y-49198095D01*
X137225295Y-49198095D02*
X137272914Y-49198095D01*
X137272914Y-49198095D02*
X137368152Y-49245714D01*
X137368152Y-49245714D02*
X137415771Y-49293333D01*
X137415771Y-49293333D02*
X137463390Y-49388571D01*
X137463390Y-49388571D02*
X137463390Y-49579047D01*
X137463390Y-49579047D02*
X137511009Y-49674285D01*
X137511009Y-49674285D02*
X137558628Y-49721904D01*
X137558628Y-49721904D02*
X137653866Y-49769523D01*
X137653866Y-49769523D02*
X137844342Y-49769523D01*
X137844342Y-49769523D02*
X137939580Y-49721904D01*
X137939580Y-49721904D02*
X137987200Y-49674285D01*
X137987200Y-49674285D02*
X138034819Y-49579047D01*
X138034819Y-49579047D02*
X138034819Y-49388571D01*
X138034819Y-49388571D02*
X137987200Y-49293333D01*
X137987200Y-49293333D02*
X137939580Y-49245714D01*
X137939580Y-49245714D02*
X137844342Y-49198095D01*
X137844342Y-49198095D02*
X137653866Y-49198095D01*
X137653866Y-49198095D02*
X137558628Y-49245714D01*
X137558628Y-49245714D02*
X137511009Y-49293333D01*
X137511009Y-49293333D02*
X137463390Y-49388571D01*
X85894819Y-92746666D02*
X85418628Y-93079999D01*
X85894819Y-93318094D02*
X84894819Y-93318094D01*
X84894819Y-93318094D02*
X84894819Y-92937142D01*
X84894819Y-92937142D02*
X84942438Y-92841904D01*
X84942438Y-92841904D02*
X84990057Y-92794285D01*
X84990057Y-92794285D02*
X85085295Y-92746666D01*
X85085295Y-92746666D02*
X85228152Y-92746666D01*
X85228152Y-92746666D02*
X85323390Y-92794285D01*
X85323390Y-92794285D02*
X85371009Y-92841904D01*
X85371009Y-92841904D02*
X85418628Y-92937142D01*
X85418628Y-92937142D02*
X85418628Y-93318094D01*
X84894819Y-92413332D02*
X84894819Y-91794285D01*
X84894819Y-91794285D02*
X85275771Y-92127618D01*
X85275771Y-92127618D02*
X85275771Y-91984761D01*
X85275771Y-91984761D02*
X85323390Y-91889523D01*
X85323390Y-91889523D02*
X85371009Y-91841904D01*
X85371009Y-91841904D02*
X85466247Y-91794285D01*
X85466247Y-91794285D02*
X85704342Y-91794285D01*
X85704342Y-91794285D02*
X85799580Y-91841904D01*
X85799580Y-91841904D02*
X85847200Y-91889523D01*
X85847200Y-91889523D02*
X85894819Y-91984761D01*
X85894819Y-91984761D02*
X85894819Y-92270475D01*
X85894819Y-92270475D02*
X85847200Y-92365713D01*
X85847200Y-92365713D02*
X85799580Y-92413332D01*
D13*
X135063571Y-80743365D02*
X135003095Y-80803842D01*
X135003095Y-80803842D02*
X134821666Y-80864318D01*
X134821666Y-80864318D02*
X134700714Y-80864318D01*
X134700714Y-80864318D02*
X134519285Y-80803842D01*
X134519285Y-80803842D02*
X134398333Y-80682889D01*
X134398333Y-80682889D02*
X134337856Y-80561937D01*
X134337856Y-80561937D02*
X134277380Y-80320032D01*
X134277380Y-80320032D02*
X134277380Y-80138603D01*
X134277380Y-80138603D02*
X134337856Y-79896699D01*
X134337856Y-79896699D02*
X134398333Y-79775746D01*
X134398333Y-79775746D02*
X134519285Y-79654794D01*
X134519285Y-79654794D02*
X134700714Y-79594318D01*
X134700714Y-79594318D02*
X134821666Y-79594318D01*
X134821666Y-79594318D02*
X135003095Y-79654794D01*
X135003095Y-79654794D02*
X135063571Y-79715270D01*
X135547380Y-79715270D02*
X135607856Y-79654794D01*
X135607856Y-79654794D02*
X135728809Y-79594318D01*
X135728809Y-79594318D02*
X136031190Y-79594318D01*
X136031190Y-79594318D02*
X136152142Y-79654794D01*
X136152142Y-79654794D02*
X136212618Y-79715270D01*
X136212618Y-79715270D02*
X136273095Y-79836222D01*
X136273095Y-79836222D02*
X136273095Y-79957175D01*
X136273095Y-79957175D02*
X136212618Y-80138603D01*
X136212618Y-80138603D02*
X135486904Y-80864318D01*
X135486904Y-80864318D02*
X136273095Y-80864318D01*
X136756904Y-79715270D02*
X136817380Y-79654794D01*
X136817380Y-79654794D02*
X136938333Y-79594318D01*
X136938333Y-79594318D02*
X137240714Y-79594318D01*
X137240714Y-79594318D02*
X137361666Y-79654794D01*
X137361666Y-79654794D02*
X137422142Y-79715270D01*
X137422142Y-79715270D02*
X137482619Y-79836222D01*
X137482619Y-79836222D02*
X137482619Y-79957175D01*
X137482619Y-79957175D02*
X137422142Y-80138603D01*
X137422142Y-80138603D02*
X136696428Y-80864318D01*
X136696428Y-80864318D02*
X137482619Y-80864318D01*
D12*
X135357142Y-68534819D02*
X135023809Y-68058628D01*
X134785714Y-68534819D02*
X134785714Y-67534819D01*
X134785714Y-67534819D02*
X135166666Y-67534819D01*
X135166666Y-67534819D02*
X135261904Y-67582438D01*
X135261904Y-67582438D02*
X135309523Y-67630057D01*
X135309523Y-67630057D02*
X135357142Y-67725295D01*
X135357142Y-67725295D02*
X135357142Y-67868152D01*
X135357142Y-67868152D02*
X135309523Y-67963390D01*
X135309523Y-67963390D02*
X135261904Y-68011009D01*
X135261904Y-68011009D02*
X135166666Y-68058628D01*
X135166666Y-68058628D02*
X134785714Y-68058628D01*
X136309523Y-68534819D02*
X135738095Y-68534819D01*
X136023809Y-68534819D02*
X136023809Y-67534819D01*
X136023809Y-67534819D02*
X135928571Y-67677676D01*
X135928571Y-67677676D02*
X135833333Y-67772914D01*
X135833333Y-67772914D02*
X135738095Y-67820533D01*
X136642857Y-67534819D02*
X137261904Y-67534819D01*
X137261904Y-67534819D02*
X136928571Y-67915771D01*
X136928571Y-67915771D02*
X137071428Y-67915771D01*
X137071428Y-67915771D02*
X137166666Y-67963390D01*
X137166666Y-67963390D02*
X137214285Y-68011009D01*
X137214285Y-68011009D02*
X137261904Y-68106247D01*
X137261904Y-68106247D02*
X137261904Y-68344342D01*
X137261904Y-68344342D02*
X137214285Y-68439580D01*
X137214285Y-68439580D02*
X137166666Y-68487200D01*
X137166666Y-68487200D02*
X137071428Y-68534819D01*
X137071428Y-68534819D02*
X136785714Y-68534819D01*
X136785714Y-68534819D02*
X136690476Y-68487200D01*
X136690476Y-68487200D02*
X136642857Y-68439580D01*
X139604819Y-148958094D02*
X138604819Y-148958094D01*
X138604819Y-148958094D02*
X138604819Y-148577142D01*
X138604819Y-148577142D02*
X138652438Y-148481904D01*
X138652438Y-148481904D02*
X138700057Y-148434285D01*
X138700057Y-148434285D02*
X138795295Y-148386666D01*
X138795295Y-148386666D02*
X138938152Y-148386666D01*
X138938152Y-148386666D02*
X139033390Y-148434285D01*
X139033390Y-148434285D02*
X139081009Y-148481904D01*
X139081009Y-148481904D02*
X139128628Y-148577142D01*
X139128628Y-148577142D02*
X139128628Y-148958094D01*
X139509580Y-147386666D02*
X139557200Y-147434285D01*
X139557200Y-147434285D02*
X139604819Y-147577142D01*
X139604819Y-147577142D02*
X139604819Y-147672380D01*
X139604819Y-147672380D02*
X139557200Y-147815237D01*
X139557200Y-147815237D02*
X139461961Y-147910475D01*
X139461961Y-147910475D02*
X139366723Y-147958094D01*
X139366723Y-147958094D02*
X139176247Y-148005713D01*
X139176247Y-148005713D02*
X139033390Y-148005713D01*
X139033390Y-148005713D02*
X138842914Y-147958094D01*
X138842914Y-147958094D02*
X138747676Y-147910475D01*
X138747676Y-147910475D02*
X138652438Y-147815237D01*
X138652438Y-147815237D02*
X138604819Y-147672380D01*
X138604819Y-147672380D02*
X138604819Y-147577142D01*
X138604819Y-147577142D02*
X138652438Y-147434285D01*
X138652438Y-147434285D02*
X138700057Y-147386666D01*
X139604819Y-146434285D02*
X139604819Y-147005713D01*
X139604819Y-146719999D02*
X138604819Y-146719999D01*
X138604819Y-146719999D02*
X138747676Y-146815237D01*
X138747676Y-146815237D02*
X138842914Y-146910475D01*
X138842914Y-146910475D02*
X138890533Y-147005713D01*
X104894819Y-164192380D02*
X103894819Y-164192380D01*
X104799580Y-163144762D02*
X104847200Y-163192381D01*
X104847200Y-163192381D02*
X104894819Y-163335238D01*
X104894819Y-163335238D02*
X104894819Y-163430476D01*
X104894819Y-163430476D02*
X104847200Y-163573333D01*
X104847200Y-163573333D02*
X104751961Y-163668571D01*
X104751961Y-163668571D02*
X104656723Y-163716190D01*
X104656723Y-163716190D02*
X104466247Y-163763809D01*
X104466247Y-163763809D02*
X104323390Y-163763809D01*
X104323390Y-163763809D02*
X104132914Y-163716190D01*
X104132914Y-163716190D02*
X104037676Y-163668571D01*
X104037676Y-163668571D02*
X103942438Y-163573333D01*
X103942438Y-163573333D02*
X103894819Y-163430476D01*
X103894819Y-163430476D02*
X103894819Y-163335238D01*
X103894819Y-163335238D02*
X103942438Y-163192381D01*
X103942438Y-163192381D02*
X103990057Y-163144762D01*
X104894819Y-162192381D02*
X104894819Y-162763809D01*
X104894819Y-162478095D02*
X103894819Y-162478095D01*
X103894819Y-162478095D02*
X104037676Y-162573333D01*
X104037676Y-162573333D02*
X104132914Y-162668571D01*
X104132914Y-162668571D02*
X104180533Y-162763809D01*
X103990057Y-161811428D02*
X103942438Y-161763809D01*
X103942438Y-161763809D02*
X103894819Y-161668571D01*
X103894819Y-161668571D02*
X103894819Y-161430476D01*
X103894819Y-161430476D02*
X103942438Y-161335238D01*
X103942438Y-161335238D02*
X103990057Y-161287619D01*
X103990057Y-161287619D02*
X104085295Y-161240000D01*
X104085295Y-161240000D02*
X104180533Y-161240000D01*
X104180533Y-161240000D02*
X104323390Y-161287619D01*
X104323390Y-161287619D02*
X104894819Y-161859047D01*
X104894819Y-161859047D02*
X104894819Y-161240000D01*
X54053333Y-170649580D02*
X54005714Y-170697200D01*
X54005714Y-170697200D02*
X53862857Y-170744819D01*
X53862857Y-170744819D02*
X53767619Y-170744819D01*
X53767619Y-170744819D02*
X53624762Y-170697200D01*
X53624762Y-170697200D02*
X53529524Y-170601961D01*
X53529524Y-170601961D02*
X53481905Y-170506723D01*
X53481905Y-170506723D02*
X53434286Y-170316247D01*
X53434286Y-170316247D02*
X53434286Y-170173390D01*
X53434286Y-170173390D02*
X53481905Y-169982914D01*
X53481905Y-169982914D02*
X53529524Y-169887676D01*
X53529524Y-169887676D02*
X53624762Y-169792438D01*
X53624762Y-169792438D02*
X53767619Y-169744819D01*
X53767619Y-169744819D02*
X53862857Y-169744819D01*
X53862857Y-169744819D02*
X54005714Y-169792438D01*
X54005714Y-169792438D02*
X54053333Y-169840057D01*
X54910476Y-170078152D02*
X54910476Y-170744819D01*
X54672381Y-169697200D02*
X54434286Y-170411485D01*
X54434286Y-170411485D02*
X55053333Y-170411485D01*
X53623333Y-87359580D02*
X53575714Y-87407200D01*
X53575714Y-87407200D02*
X53432857Y-87454819D01*
X53432857Y-87454819D02*
X53337619Y-87454819D01*
X53337619Y-87454819D02*
X53194762Y-87407200D01*
X53194762Y-87407200D02*
X53099524Y-87311961D01*
X53099524Y-87311961D02*
X53051905Y-87216723D01*
X53051905Y-87216723D02*
X53004286Y-87026247D01*
X53004286Y-87026247D02*
X53004286Y-86883390D01*
X53004286Y-86883390D02*
X53051905Y-86692914D01*
X53051905Y-86692914D02*
X53099524Y-86597676D01*
X53099524Y-86597676D02*
X53194762Y-86502438D01*
X53194762Y-86502438D02*
X53337619Y-86454819D01*
X53337619Y-86454819D02*
X53432857Y-86454819D01*
X53432857Y-86454819D02*
X53575714Y-86502438D01*
X53575714Y-86502438D02*
X53623333Y-86550057D01*
X53956667Y-86454819D02*
X54623333Y-86454819D01*
X54623333Y-86454819D02*
X54194762Y-87454819D01*
X127454819Y-173642857D02*
X126978628Y-173976190D01*
X127454819Y-174214285D02*
X126454819Y-174214285D01*
X126454819Y-174214285D02*
X126454819Y-173833333D01*
X126454819Y-173833333D02*
X126502438Y-173738095D01*
X126502438Y-173738095D02*
X126550057Y-173690476D01*
X126550057Y-173690476D02*
X126645295Y-173642857D01*
X126645295Y-173642857D02*
X126788152Y-173642857D01*
X126788152Y-173642857D02*
X126883390Y-173690476D01*
X126883390Y-173690476D02*
X126931009Y-173738095D01*
X126931009Y-173738095D02*
X126978628Y-173833333D01*
X126978628Y-173833333D02*
X126978628Y-174214285D01*
X126550057Y-173261904D02*
X126502438Y-173214285D01*
X126502438Y-173214285D02*
X126454819Y-173119047D01*
X126454819Y-173119047D02*
X126454819Y-172880952D01*
X126454819Y-172880952D02*
X126502438Y-172785714D01*
X126502438Y-172785714D02*
X126550057Y-172738095D01*
X126550057Y-172738095D02*
X126645295Y-172690476D01*
X126645295Y-172690476D02*
X126740533Y-172690476D01*
X126740533Y-172690476D02*
X126883390Y-172738095D01*
X126883390Y-172738095D02*
X127454819Y-173309523D01*
X127454819Y-173309523D02*
X127454819Y-172690476D01*
X126454819Y-171785714D02*
X126454819Y-172261904D01*
X126454819Y-172261904D02*
X126931009Y-172309523D01*
X126931009Y-172309523D02*
X126883390Y-172261904D01*
X126883390Y-172261904D02*
X126835771Y-172166666D01*
X126835771Y-172166666D02*
X126835771Y-171928571D01*
X126835771Y-171928571D02*
X126883390Y-171833333D01*
X126883390Y-171833333D02*
X126931009Y-171785714D01*
X126931009Y-171785714D02*
X127026247Y-171738095D01*
X127026247Y-171738095D02*
X127264342Y-171738095D01*
X127264342Y-171738095D02*
X127359580Y-171785714D01*
X127359580Y-171785714D02*
X127407200Y-171833333D01*
X127407200Y-171833333D02*
X127454819Y-171928571D01*
X127454819Y-171928571D02*
X127454819Y-172166666D01*
X127454819Y-172166666D02*
X127407200Y-172261904D01*
X127407200Y-172261904D02*
X127359580Y-172309523D01*
X135459580Y-169392857D02*
X135507200Y-169440476D01*
X135507200Y-169440476D02*
X135554819Y-169583333D01*
X135554819Y-169583333D02*
X135554819Y-169678571D01*
X135554819Y-169678571D02*
X135507200Y-169821428D01*
X135507200Y-169821428D02*
X135411961Y-169916666D01*
X135411961Y-169916666D02*
X135316723Y-169964285D01*
X135316723Y-169964285D02*
X135126247Y-170011904D01*
X135126247Y-170011904D02*
X134983390Y-170011904D01*
X134983390Y-170011904D02*
X134792914Y-169964285D01*
X134792914Y-169964285D02*
X134697676Y-169916666D01*
X134697676Y-169916666D02*
X134602438Y-169821428D01*
X134602438Y-169821428D02*
X134554819Y-169678571D01*
X134554819Y-169678571D02*
X134554819Y-169583333D01*
X134554819Y-169583333D02*
X134602438Y-169440476D01*
X134602438Y-169440476D02*
X134650057Y-169392857D01*
X134650057Y-169011904D02*
X134602438Y-168964285D01*
X134602438Y-168964285D02*
X134554819Y-168869047D01*
X134554819Y-168869047D02*
X134554819Y-168630952D01*
X134554819Y-168630952D02*
X134602438Y-168535714D01*
X134602438Y-168535714D02*
X134650057Y-168488095D01*
X134650057Y-168488095D02*
X134745295Y-168440476D01*
X134745295Y-168440476D02*
X134840533Y-168440476D01*
X134840533Y-168440476D02*
X134983390Y-168488095D01*
X134983390Y-168488095D02*
X135554819Y-169059523D01*
X135554819Y-169059523D02*
X135554819Y-168440476D01*
X134554819Y-168107142D02*
X134554819Y-167488095D01*
X134554819Y-167488095D02*
X134935771Y-167821428D01*
X134935771Y-167821428D02*
X134935771Y-167678571D01*
X134935771Y-167678571D02*
X134983390Y-167583333D01*
X134983390Y-167583333D02*
X135031009Y-167535714D01*
X135031009Y-167535714D02*
X135126247Y-167488095D01*
X135126247Y-167488095D02*
X135364342Y-167488095D01*
X135364342Y-167488095D02*
X135459580Y-167535714D01*
X135459580Y-167535714D02*
X135507200Y-167583333D01*
X135507200Y-167583333D02*
X135554819Y-167678571D01*
X135554819Y-167678571D02*
X135554819Y-167964285D01*
X135554819Y-167964285D02*
X135507200Y-168059523D01*
X135507200Y-168059523D02*
X135459580Y-168107142D01*
X90357142Y-64859580D02*
X90309523Y-64907200D01*
X90309523Y-64907200D02*
X90166666Y-64954819D01*
X90166666Y-64954819D02*
X90071428Y-64954819D01*
X90071428Y-64954819D02*
X89928571Y-64907200D01*
X89928571Y-64907200D02*
X89833333Y-64811961D01*
X89833333Y-64811961D02*
X89785714Y-64716723D01*
X89785714Y-64716723D02*
X89738095Y-64526247D01*
X89738095Y-64526247D02*
X89738095Y-64383390D01*
X89738095Y-64383390D02*
X89785714Y-64192914D01*
X89785714Y-64192914D02*
X89833333Y-64097676D01*
X89833333Y-64097676D02*
X89928571Y-64002438D01*
X89928571Y-64002438D02*
X90071428Y-63954819D01*
X90071428Y-63954819D02*
X90166666Y-63954819D01*
X90166666Y-63954819D02*
X90309523Y-64002438D01*
X90309523Y-64002438D02*
X90357142Y-64050057D01*
X91309523Y-64954819D02*
X90738095Y-64954819D01*
X91023809Y-64954819D02*
X91023809Y-63954819D01*
X91023809Y-63954819D02*
X90928571Y-64097676D01*
X90928571Y-64097676D02*
X90833333Y-64192914D01*
X90833333Y-64192914D02*
X90738095Y-64240533D01*
X92166666Y-64288152D02*
X92166666Y-64954819D01*
X91928571Y-63907200D02*
X91690476Y-64621485D01*
X91690476Y-64621485D02*
X92309523Y-64621485D01*
X130034819Y-51102857D02*
X129558628Y-51436190D01*
X130034819Y-51674285D02*
X129034819Y-51674285D01*
X129034819Y-51674285D02*
X129034819Y-51293333D01*
X129034819Y-51293333D02*
X129082438Y-51198095D01*
X129082438Y-51198095D02*
X129130057Y-51150476D01*
X129130057Y-51150476D02*
X129225295Y-51102857D01*
X129225295Y-51102857D02*
X129368152Y-51102857D01*
X129368152Y-51102857D02*
X129463390Y-51150476D01*
X129463390Y-51150476D02*
X129511009Y-51198095D01*
X129511009Y-51198095D02*
X129558628Y-51293333D01*
X129558628Y-51293333D02*
X129558628Y-51674285D01*
X130034819Y-50150476D02*
X130034819Y-50721904D01*
X130034819Y-50436190D02*
X129034819Y-50436190D01*
X129034819Y-50436190D02*
X129177676Y-50531428D01*
X129177676Y-50531428D02*
X129272914Y-50626666D01*
X129272914Y-50626666D02*
X129320533Y-50721904D01*
X129034819Y-49293333D02*
X129034819Y-49483809D01*
X129034819Y-49483809D02*
X129082438Y-49579047D01*
X129082438Y-49579047D02*
X129130057Y-49626666D01*
X129130057Y-49626666D02*
X129272914Y-49721904D01*
X129272914Y-49721904D02*
X129463390Y-49769523D01*
X129463390Y-49769523D02*
X129844342Y-49769523D01*
X129844342Y-49769523D02*
X129939580Y-49721904D01*
X129939580Y-49721904D02*
X129987200Y-49674285D01*
X129987200Y-49674285D02*
X130034819Y-49579047D01*
X130034819Y-49579047D02*
X130034819Y-49388571D01*
X130034819Y-49388571D02*
X129987200Y-49293333D01*
X129987200Y-49293333D02*
X129939580Y-49245714D01*
X129939580Y-49245714D02*
X129844342Y-49198095D01*
X129844342Y-49198095D02*
X129606247Y-49198095D01*
X129606247Y-49198095D02*
X129511009Y-49245714D01*
X129511009Y-49245714D02*
X129463390Y-49293333D01*
X129463390Y-49293333D02*
X129415771Y-49388571D01*
X129415771Y-49388571D02*
X129415771Y-49579047D01*
X129415771Y-49579047D02*
X129463390Y-49674285D01*
X129463390Y-49674285D02*
X129511009Y-49721904D01*
X129511009Y-49721904D02*
X129606247Y-49769523D01*
X123527142Y-64834819D02*
X123193809Y-64358628D01*
X122955714Y-64834819D02*
X122955714Y-63834819D01*
X122955714Y-63834819D02*
X123336666Y-63834819D01*
X123336666Y-63834819D02*
X123431904Y-63882438D01*
X123431904Y-63882438D02*
X123479523Y-63930057D01*
X123479523Y-63930057D02*
X123527142Y-64025295D01*
X123527142Y-64025295D02*
X123527142Y-64168152D01*
X123527142Y-64168152D02*
X123479523Y-64263390D01*
X123479523Y-64263390D02*
X123431904Y-64311009D01*
X123431904Y-64311009D02*
X123336666Y-64358628D01*
X123336666Y-64358628D02*
X122955714Y-64358628D01*
X124479523Y-64834819D02*
X123908095Y-64834819D01*
X124193809Y-64834819D02*
X124193809Y-63834819D01*
X124193809Y-63834819D02*
X124098571Y-63977676D01*
X124098571Y-63977676D02*
X124003333Y-64072914D01*
X124003333Y-64072914D02*
X123908095Y-64120533D01*
X124860476Y-63930057D02*
X124908095Y-63882438D01*
X124908095Y-63882438D02*
X125003333Y-63834819D01*
X125003333Y-63834819D02*
X125241428Y-63834819D01*
X125241428Y-63834819D02*
X125336666Y-63882438D01*
X125336666Y-63882438D02*
X125384285Y-63930057D01*
X125384285Y-63930057D02*
X125431904Y-64025295D01*
X125431904Y-64025295D02*
X125431904Y-64120533D01*
X125431904Y-64120533D02*
X125384285Y-64263390D01*
X125384285Y-64263390D02*
X124812857Y-64834819D01*
X124812857Y-64834819D02*
X125431904Y-64834819D01*
X124034819Y-140602857D02*
X123558628Y-140936190D01*
X124034819Y-141174285D02*
X123034819Y-141174285D01*
X123034819Y-141174285D02*
X123034819Y-140793333D01*
X123034819Y-140793333D02*
X123082438Y-140698095D01*
X123082438Y-140698095D02*
X123130057Y-140650476D01*
X123130057Y-140650476D02*
X123225295Y-140602857D01*
X123225295Y-140602857D02*
X123368152Y-140602857D01*
X123368152Y-140602857D02*
X123463390Y-140650476D01*
X123463390Y-140650476D02*
X123511009Y-140698095D01*
X123511009Y-140698095D02*
X123558628Y-140793333D01*
X123558628Y-140793333D02*
X123558628Y-141174285D01*
X123130057Y-140221904D02*
X123082438Y-140174285D01*
X123082438Y-140174285D02*
X123034819Y-140079047D01*
X123034819Y-140079047D02*
X123034819Y-139840952D01*
X123034819Y-139840952D02*
X123082438Y-139745714D01*
X123082438Y-139745714D02*
X123130057Y-139698095D01*
X123130057Y-139698095D02*
X123225295Y-139650476D01*
X123225295Y-139650476D02*
X123320533Y-139650476D01*
X123320533Y-139650476D02*
X123463390Y-139698095D01*
X123463390Y-139698095D02*
X124034819Y-140269523D01*
X124034819Y-140269523D02*
X124034819Y-139650476D01*
X123034819Y-138793333D02*
X123034819Y-138983809D01*
X123034819Y-138983809D02*
X123082438Y-139079047D01*
X123082438Y-139079047D02*
X123130057Y-139126666D01*
X123130057Y-139126666D02*
X123272914Y-139221904D01*
X123272914Y-139221904D02*
X123463390Y-139269523D01*
X123463390Y-139269523D02*
X123844342Y-139269523D01*
X123844342Y-139269523D02*
X123939580Y-139221904D01*
X123939580Y-139221904D02*
X123987200Y-139174285D01*
X123987200Y-139174285D02*
X124034819Y-139079047D01*
X124034819Y-139079047D02*
X124034819Y-138888571D01*
X124034819Y-138888571D02*
X123987200Y-138793333D01*
X123987200Y-138793333D02*
X123939580Y-138745714D01*
X123939580Y-138745714D02*
X123844342Y-138698095D01*
X123844342Y-138698095D02*
X123606247Y-138698095D01*
X123606247Y-138698095D02*
X123511009Y-138745714D01*
X123511009Y-138745714D02*
X123463390Y-138793333D01*
X123463390Y-138793333D02*
X123415771Y-138888571D01*
X123415771Y-138888571D02*
X123415771Y-139079047D01*
X123415771Y-139079047D02*
X123463390Y-139174285D01*
X123463390Y-139174285D02*
X123511009Y-139221904D01*
X123511009Y-139221904D02*
X123606247Y-139269523D01*
X138034819Y-42102857D02*
X137558628Y-42436190D01*
X138034819Y-42674285D02*
X137034819Y-42674285D01*
X137034819Y-42674285D02*
X137034819Y-42293333D01*
X137034819Y-42293333D02*
X137082438Y-42198095D01*
X137082438Y-42198095D02*
X137130057Y-42150476D01*
X137130057Y-42150476D02*
X137225295Y-42102857D01*
X137225295Y-42102857D02*
X137368152Y-42102857D01*
X137368152Y-42102857D02*
X137463390Y-42150476D01*
X137463390Y-42150476D02*
X137511009Y-42198095D01*
X137511009Y-42198095D02*
X137558628Y-42293333D01*
X137558628Y-42293333D02*
X137558628Y-42674285D01*
X137130057Y-41721904D02*
X137082438Y-41674285D01*
X137082438Y-41674285D02*
X137034819Y-41579047D01*
X137034819Y-41579047D02*
X137034819Y-41340952D01*
X137034819Y-41340952D02*
X137082438Y-41245714D01*
X137082438Y-41245714D02*
X137130057Y-41198095D01*
X137130057Y-41198095D02*
X137225295Y-41150476D01*
X137225295Y-41150476D02*
X137320533Y-41150476D01*
X137320533Y-41150476D02*
X137463390Y-41198095D01*
X137463390Y-41198095D02*
X138034819Y-41769523D01*
X138034819Y-41769523D02*
X138034819Y-41150476D01*
X138034819Y-40198095D02*
X138034819Y-40769523D01*
X138034819Y-40483809D02*
X137034819Y-40483809D01*
X137034819Y-40483809D02*
X137177676Y-40579047D01*
X137177676Y-40579047D02*
X137272914Y-40674285D01*
X137272914Y-40674285D02*
X137320533Y-40769523D01*
X124454819Y-173642857D02*
X123978628Y-173976190D01*
X124454819Y-174214285D02*
X123454819Y-174214285D01*
X123454819Y-174214285D02*
X123454819Y-173833333D01*
X123454819Y-173833333D02*
X123502438Y-173738095D01*
X123502438Y-173738095D02*
X123550057Y-173690476D01*
X123550057Y-173690476D02*
X123645295Y-173642857D01*
X123645295Y-173642857D02*
X123788152Y-173642857D01*
X123788152Y-173642857D02*
X123883390Y-173690476D01*
X123883390Y-173690476D02*
X123931009Y-173738095D01*
X123931009Y-173738095D02*
X123978628Y-173833333D01*
X123978628Y-173833333D02*
X123978628Y-174214285D01*
X123550057Y-173261904D02*
X123502438Y-173214285D01*
X123502438Y-173214285D02*
X123454819Y-173119047D01*
X123454819Y-173119047D02*
X123454819Y-172880952D01*
X123454819Y-172880952D02*
X123502438Y-172785714D01*
X123502438Y-172785714D02*
X123550057Y-172738095D01*
X123550057Y-172738095D02*
X123645295Y-172690476D01*
X123645295Y-172690476D02*
X123740533Y-172690476D01*
X123740533Y-172690476D02*
X123883390Y-172738095D01*
X123883390Y-172738095D02*
X124454819Y-173309523D01*
X124454819Y-173309523D02*
X124454819Y-172690476D01*
X123788152Y-171833333D02*
X124454819Y-171833333D01*
X123407200Y-172071428D02*
X124121485Y-172309523D01*
X124121485Y-172309523D02*
X124121485Y-171690476D01*
X156295180Y-117216666D02*
X155580895Y-117216666D01*
X155580895Y-117216666D02*
X155438038Y-117169047D01*
X155438038Y-117169047D02*
X155342800Y-117073809D01*
X155342800Y-117073809D02*
X155295180Y-116930952D01*
X155295180Y-116930952D02*
X155295180Y-116835714D01*
X156295180Y-117597619D02*
X156295180Y-118216666D01*
X156295180Y-118216666D02*
X155914228Y-117883333D01*
X155914228Y-117883333D02*
X155914228Y-118026190D01*
X155914228Y-118026190D02*
X155866609Y-118121428D01*
X155866609Y-118121428D02*
X155818990Y-118169047D01*
X155818990Y-118169047D02*
X155723752Y-118216666D01*
X155723752Y-118216666D02*
X155485657Y-118216666D01*
X155485657Y-118216666D02*
X155390419Y-118169047D01*
X155390419Y-118169047D02*
X155342800Y-118121428D01*
X155342800Y-118121428D02*
X155295180Y-118026190D01*
X155295180Y-118026190D02*
X155295180Y-117740476D01*
X155295180Y-117740476D02*
X155342800Y-117645238D01*
X155342800Y-117645238D02*
X155390419Y-117597619D01*
X148534819Y-64642857D02*
X148058628Y-64976190D01*
X148534819Y-65214285D02*
X147534819Y-65214285D01*
X147534819Y-65214285D02*
X147534819Y-64833333D01*
X147534819Y-64833333D02*
X147582438Y-64738095D01*
X147582438Y-64738095D02*
X147630057Y-64690476D01*
X147630057Y-64690476D02*
X147725295Y-64642857D01*
X147725295Y-64642857D02*
X147868152Y-64642857D01*
X147868152Y-64642857D02*
X147963390Y-64690476D01*
X147963390Y-64690476D02*
X148011009Y-64738095D01*
X148011009Y-64738095D02*
X148058628Y-64833333D01*
X148058628Y-64833333D02*
X148058628Y-65214285D01*
X148534819Y-63690476D02*
X148534819Y-64261904D01*
X148534819Y-63976190D02*
X147534819Y-63976190D01*
X147534819Y-63976190D02*
X147677676Y-64071428D01*
X147677676Y-64071428D02*
X147772914Y-64166666D01*
X147772914Y-64166666D02*
X147820533Y-64261904D01*
X147534819Y-62785714D02*
X147534819Y-63261904D01*
X147534819Y-63261904D02*
X148011009Y-63309523D01*
X148011009Y-63309523D02*
X147963390Y-63261904D01*
X147963390Y-63261904D02*
X147915771Y-63166666D01*
X147915771Y-63166666D02*
X147915771Y-62928571D01*
X147915771Y-62928571D02*
X147963390Y-62833333D01*
X147963390Y-62833333D02*
X148011009Y-62785714D01*
X148011009Y-62785714D02*
X148106247Y-62738095D01*
X148106247Y-62738095D02*
X148344342Y-62738095D01*
X148344342Y-62738095D02*
X148439580Y-62785714D01*
X148439580Y-62785714D02*
X148487200Y-62833333D01*
X148487200Y-62833333D02*
X148534819Y-62928571D01*
X148534819Y-62928571D02*
X148534819Y-63166666D01*
X148534819Y-63166666D02*
X148487200Y-63261904D01*
X148487200Y-63261904D02*
X148439580Y-63309523D01*
X71413333Y-170599580D02*
X71365714Y-170647200D01*
X71365714Y-170647200D02*
X71222857Y-170694819D01*
X71222857Y-170694819D02*
X71127619Y-170694819D01*
X71127619Y-170694819D02*
X70984762Y-170647200D01*
X70984762Y-170647200D02*
X70889524Y-170551961D01*
X70889524Y-170551961D02*
X70841905Y-170456723D01*
X70841905Y-170456723D02*
X70794286Y-170266247D01*
X70794286Y-170266247D02*
X70794286Y-170123390D01*
X70794286Y-170123390D02*
X70841905Y-169932914D01*
X70841905Y-169932914D02*
X70889524Y-169837676D01*
X70889524Y-169837676D02*
X70984762Y-169742438D01*
X70984762Y-169742438D02*
X71127619Y-169694819D01*
X71127619Y-169694819D02*
X71222857Y-169694819D01*
X71222857Y-169694819D02*
X71365714Y-169742438D01*
X71365714Y-169742438D02*
X71413333Y-169790057D01*
X71889524Y-170694819D02*
X72080000Y-170694819D01*
X72080000Y-170694819D02*
X72175238Y-170647200D01*
X72175238Y-170647200D02*
X72222857Y-170599580D01*
X72222857Y-170599580D02*
X72318095Y-170456723D01*
X72318095Y-170456723D02*
X72365714Y-170266247D01*
X72365714Y-170266247D02*
X72365714Y-169885295D01*
X72365714Y-169885295D02*
X72318095Y-169790057D01*
X72318095Y-169790057D02*
X72270476Y-169742438D01*
X72270476Y-169742438D02*
X72175238Y-169694819D01*
X72175238Y-169694819D02*
X71984762Y-169694819D01*
X71984762Y-169694819D02*
X71889524Y-169742438D01*
X71889524Y-169742438D02*
X71841905Y-169790057D01*
X71841905Y-169790057D02*
X71794286Y-169885295D01*
X71794286Y-169885295D02*
X71794286Y-170123390D01*
X71794286Y-170123390D02*
X71841905Y-170218628D01*
X71841905Y-170218628D02*
X71889524Y-170266247D01*
X71889524Y-170266247D02*
X71984762Y-170313866D01*
X71984762Y-170313866D02*
X72175238Y-170313866D01*
X72175238Y-170313866D02*
X72270476Y-170266247D01*
X72270476Y-170266247D02*
X72318095Y-170218628D01*
X72318095Y-170218628D02*
X72365714Y-170123390D01*
X134034819Y-42072857D02*
X133558628Y-42406190D01*
X134034819Y-42644285D02*
X133034819Y-42644285D01*
X133034819Y-42644285D02*
X133034819Y-42263333D01*
X133034819Y-42263333D02*
X133082438Y-42168095D01*
X133082438Y-42168095D02*
X133130057Y-42120476D01*
X133130057Y-42120476D02*
X133225295Y-42072857D01*
X133225295Y-42072857D02*
X133368152Y-42072857D01*
X133368152Y-42072857D02*
X133463390Y-42120476D01*
X133463390Y-42120476D02*
X133511009Y-42168095D01*
X133511009Y-42168095D02*
X133558628Y-42263333D01*
X133558628Y-42263333D02*
X133558628Y-42644285D01*
X133130057Y-41691904D02*
X133082438Y-41644285D01*
X133082438Y-41644285D02*
X133034819Y-41549047D01*
X133034819Y-41549047D02*
X133034819Y-41310952D01*
X133034819Y-41310952D02*
X133082438Y-41215714D01*
X133082438Y-41215714D02*
X133130057Y-41168095D01*
X133130057Y-41168095D02*
X133225295Y-41120476D01*
X133225295Y-41120476D02*
X133320533Y-41120476D01*
X133320533Y-41120476D02*
X133463390Y-41168095D01*
X133463390Y-41168095D02*
X134034819Y-41739523D01*
X134034819Y-41739523D02*
X134034819Y-41120476D01*
X133034819Y-40501428D02*
X133034819Y-40406190D01*
X133034819Y-40406190D02*
X133082438Y-40310952D01*
X133082438Y-40310952D02*
X133130057Y-40263333D01*
X133130057Y-40263333D02*
X133225295Y-40215714D01*
X133225295Y-40215714D02*
X133415771Y-40168095D01*
X133415771Y-40168095D02*
X133653866Y-40168095D01*
X133653866Y-40168095D02*
X133844342Y-40215714D01*
X133844342Y-40215714D02*
X133939580Y-40263333D01*
X133939580Y-40263333D02*
X133987200Y-40310952D01*
X133987200Y-40310952D02*
X134034819Y-40406190D01*
X134034819Y-40406190D02*
X134034819Y-40501428D01*
X134034819Y-40501428D02*
X133987200Y-40596666D01*
X133987200Y-40596666D02*
X133939580Y-40644285D01*
X133939580Y-40644285D02*
X133844342Y-40691904D01*
X133844342Y-40691904D02*
X133653866Y-40739523D01*
X133653866Y-40739523D02*
X133415771Y-40739523D01*
X133415771Y-40739523D02*
X133225295Y-40691904D01*
X133225295Y-40691904D02*
X133130057Y-40644285D01*
X133130057Y-40644285D02*
X133082438Y-40596666D01*
X133082438Y-40596666D02*
X133034819Y-40501428D01*
X153639819Y-69830833D02*
X154354104Y-69830833D01*
X154354104Y-69830833D02*
X154496961Y-69878452D01*
X154496961Y-69878452D02*
X154592200Y-69973690D01*
X154592200Y-69973690D02*
X154639819Y-70116547D01*
X154639819Y-70116547D02*
X154639819Y-70211785D01*
X153639819Y-68878452D02*
X153639819Y-69354642D01*
X153639819Y-69354642D02*
X154116009Y-69402261D01*
X154116009Y-69402261D02*
X154068390Y-69354642D01*
X154068390Y-69354642D02*
X154020771Y-69259404D01*
X154020771Y-69259404D02*
X154020771Y-69021309D01*
X154020771Y-69021309D02*
X154068390Y-68926071D01*
X154068390Y-68926071D02*
X154116009Y-68878452D01*
X154116009Y-68878452D02*
X154211247Y-68830833D01*
X154211247Y-68830833D02*
X154449342Y-68830833D01*
X154449342Y-68830833D02*
X154544580Y-68878452D01*
X154544580Y-68878452D02*
X154592200Y-68926071D01*
X154592200Y-68926071D02*
X154639819Y-69021309D01*
X154639819Y-69021309D02*
X154639819Y-69259404D01*
X154639819Y-69259404D02*
X154592200Y-69354642D01*
X154592200Y-69354642D02*
X154544580Y-69402261D01*
X70857142Y-86859580D02*
X70809523Y-86907200D01*
X70809523Y-86907200D02*
X70666666Y-86954819D01*
X70666666Y-86954819D02*
X70571428Y-86954819D01*
X70571428Y-86954819D02*
X70428571Y-86907200D01*
X70428571Y-86907200D02*
X70333333Y-86811961D01*
X70333333Y-86811961D02*
X70285714Y-86716723D01*
X70285714Y-86716723D02*
X70238095Y-86526247D01*
X70238095Y-86526247D02*
X70238095Y-86383390D01*
X70238095Y-86383390D02*
X70285714Y-86192914D01*
X70285714Y-86192914D02*
X70333333Y-86097676D01*
X70333333Y-86097676D02*
X70428571Y-86002438D01*
X70428571Y-86002438D02*
X70571428Y-85954819D01*
X70571428Y-85954819D02*
X70666666Y-85954819D01*
X70666666Y-85954819D02*
X70809523Y-86002438D01*
X70809523Y-86002438D02*
X70857142Y-86050057D01*
X71809523Y-86954819D02*
X71238095Y-86954819D01*
X71523809Y-86954819D02*
X71523809Y-85954819D01*
X71523809Y-85954819D02*
X71428571Y-86097676D01*
X71428571Y-86097676D02*
X71333333Y-86192914D01*
X71333333Y-86192914D02*
X71238095Y-86240533D01*
X72761904Y-86954819D02*
X72190476Y-86954819D01*
X72476190Y-86954819D02*
X72476190Y-85954819D01*
X72476190Y-85954819D02*
X72380952Y-86097676D01*
X72380952Y-86097676D02*
X72285714Y-86192914D01*
X72285714Y-86192914D02*
X72190476Y-86240533D01*
X117859580Y-164392857D02*
X117907200Y-164440476D01*
X117907200Y-164440476D02*
X117954819Y-164583333D01*
X117954819Y-164583333D02*
X117954819Y-164678571D01*
X117954819Y-164678571D02*
X117907200Y-164821428D01*
X117907200Y-164821428D02*
X117811961Y-164916666D01*
X117811961Y-164916666D02*
X117716723Y-164964285D01*
X117716723Y-164964285D02*
X117526247Y-165011904D01*
X117526247Y-165011904D02*
X117383390Y-165011904D01*
X117383390Y-165011904D02*
X117192914Y-164964285D01*
X117192914Y-164964285D02*
X117097676Y-164916666D01*
X117097676Y-164916666D02*
X117002438Y-164821428D01*
X117002438Y-164821428D02*
X116954819Y-164678571D01*
X116954819Y-164678571D02*
X116954819Y-164583333D01*
X116954819Y-164583333D02*
X117002438Y-164440476D01*
X117002438Y-164440476D02*
X117050057Y-164392857D01*
X117954819Y-163440476D02*
X117954819Y-164011904D01*
X117954819Y-163726190D02*
X116954819Y-163726190D01*
X116954819Y-163726190D02*
X117097676Y-163821428D01*
X117097676Y-163821428D02*
X117192914Y-163916666D01*
X117192914Y-163916666D02*
X117240533Y-164011904D01*
X117954819Y-162964285D02*
X117954819Y-162773809D01*
X117954819Y-162773809D02*
X117907200Y-162678571D01*
X117907200Y-162678571D02*
X117859580Y-162630952D01*
X117859580Y-162630952D02*
X117716723Y-162535714D01*
X117716723Y-162535714D02*
X117526247Y-162488095D01*
X117526247Y-162488095D02*
X117145295Y-162488095D01*
X117145295Y-162488095D02*
X117050057Y-162535714D01*
X117050057Y-162535714D02*
X117002438Y-162583333D01*
X117002438Y-162583333D02*
X116954819Y-162678571D01*
X116954819Y-162678571D02*
X116954819Y-162869047D01*
X116954819Y-162869047D02*
X117002438Y-162964285D01*
X117002438Y-162964285D02*
X117050057Y-163011904D01*
X117050057Y-163011904D02*
X117145295Y-163059523D01*
X117145295Y-163059523D02*
X117383390Y-163059523D01*
X117383390Y-163059523D02*
X117478628Y-163011904D01*
X117478628Y-163011904D02*
X117526247Y-162964285D01*
X117526247Y-162964285D02*
X117573866Y-162869047D01*
X117573866Y-162869047D02*
X117573866Y-162678571D01*
X117573866Y-162678571D02*
X117526247Y-162583333D01*
X117526247Y-162583333D02*
X117478628Y-162535714D01*
X117478628Y-162535714D02*
X117383390Y-162488095D01*
X89414819Y-164782380D02*
X88414819Y-164782380D01*
X89319580Y-163734762D02*
X89367200Y-163782381D01*
X89367200Y-163782381D02*
X89414819Y-163925238D01*
X89414819Y-163925238D02*
X89414819Y-164020476D01*
X89414819Y-164020476D02*
X89367200Y-164163333D01*
X89367200Y-164163333D02*
X89271961Y-164258571D01*
X89271961Y-164258571D02*
X89176723Y-164306190D01*
X89176723Y-164306190D02*
X88986247Y-164353809D01*
X88986247Y-164353809D02*
X88843390Y-164353809D01*
X88843390Y-164353809D02*
X88652914Y-164306190D01*
X88652914Y-164306190D02*
X88557676Y-164258571D01*
X88557676Y-164258571D02*
X88462438Y-164163333D01*
X88462438Y-164163333D02*
X88414819Y-164020476D01*
X88414819Y-164020476D02*
X88414819Y-163925238D01*
X88414819Y-163925238D02*
X88462438Y-163782381D01*
X88462438Y-163782381D02*
X88510057Y-163734762D01*
X89414819Y-162782381D02*
X89414819Y-163353809D01*
X89414819Y-163068095D02*
X88414819Y-163068095D01*
X88414819Y-163068095D02*
X88557676Y-163163333D01*
X88557676Y-163163333D02*
X88652914Y-163258571D01*
X88652914Y-163258571D02*
X88700533Y-163353809D01*
X88414819Y-162163333D02*
X88414819Y-162068095D01*
X88414819Y-162068095D02*
X88462438Y-161972857D01*
X88462438Y-161972857D02*
X88510057Y-161925238D01*
X88510057Y-161925238D02*
X88605295Y-161877619D01*
X88605295Y-161877619D02*
X88795771Y-161830000D01*
X88795771Y-161830000D02*
X89033866Y-161830000D01*
X89033866Y-161830000D02*
X89224342Y-161877619D01*
X89224342Y-161877619D02*
X89319580Y-161925238D01*
X89319580Y-161925238D02*
X89367200Y-161972857D01*
X89367200Y-161972857D02*
X89414819Y-162068095D01*
X89414819Y-162068095D02*
X89414819Y-162163333D01*
X89414819Y-162163333D02*
X89367200Y-162258571D01*
X89367200Y-162258571D02*
X89319580Y-162306190D01*
X89319580Y-162306190D02*
X89224342Y-162353809D01*
X89224342Y-162353809D02*
X89033866Y-162401428D01*
X89033866Y-162401428D02*
X88795771Y-162401428D01*
X88795771Y-162401428D02*
X88605295Y-162353809D01*
X88605295Y-162353809D02*
X88510057Y-162306190D01*
X88510057Y-162306190D02*
X88462438Y-162258571D01*
X88462438Y-162258571D02*
X88414819Y-162163333D01*
X146938095Y-56954819D02*
X147509523Y-56954819D01*
X147223809Y-57954819D02*
X147223809Y-56954819D01*
X147842857Y-57954819D02*
X147842857Y-56954819D01*
X147842857Y-56954819D02*
X148223809Y-56954819D01*
X148223809Y-56954819D02*
X148319047Y-57002438D01*
X148319047Y-57002438D02*
X148366666Y-57050057D01*
X148366666Y-57050057D02*
X148414285Y-57145295D01*
X148414285Y-57145295D02*
X148414285Y-57288152D01*
X148414285Y-57288152D02*
X148366666Y-57383390D01*
X148366666Y-57383390D02*
X148319047Y-57431009D01*
X148319047Y-57431009D02*
X148223809Y-57478628D01*
X148223809Y-57478628D02*
X147842857Y-57478628D01*
X148747619Y-56954819D02*
X149366666Y-56954819D01*
X149366666Y-56954819D02*
X149033333Y-57335771D01*
X149033333Y-57335771D02*
X149176190Y-57335771D01*
X149176190Y-57335771D02*
X149271428Y-57383390D01*
X149271428Y-57383390D02*
X149319047Y-57431009D01*
X149319047Y-57431009D02*
X149366666Y-57526247D01*
X149366666Y-57526247D02*
X149366666Y-57764342D01*
X149366666Y-57764342D02*
X149319047Y-57859580D01*
X149319047Y-57859580D02*
X149271428Y-57907200D01*
X149271428Y-57907200D02*
X149176190Y-57954819D01*
X149176190Y-57954819D02*
X148890476Y-57954819D01*
X148890476Y-57954819D02*
X148795238Y-57907200D01*
X148795238Y-57907200D02*
X148747619Y-57859580D01*
X65454819Y-81476189D02*
X64454819Y-81476189D01*
X65359580Y-80428571D02*
X65407200Y-80476190D01*
X65407200Y-80476190D02*
X65454819Y-80619047D01*
X65454819Y-80619047D02*
X65454819Y-80714285D01*
X65454819Y-80714285D02*
X65407200Y-80857142D01*
X65407200Y-80857142D02*
X65311961Y-80952380D01*
X65311961Y-80952380D02*
X65216723Y-80999999D01*
X65216723Y-80999999D02*
X65026247Y-81047618D01*
X65026247Y-81047618D02*
X64883390Y-81047618D01*
X64883390Y-81047618D02*
X64692914Y-80999999D01*
X64692914Y-80999999D02*
X64597676Y-80952380D01*
X64597676Y-80952380D02*
X64502438Y-80857142D01*
X64502438Y-80857142D02*
X64454819Y-80714285D01*
X64454819Y-80714285D02*
X64454819Y-80619047D01*
X64454819Y-80619047D02*
X64502438Y-80476190D01*
X64502438Y-80476190D02*
X64550057Y-80428571D01*
X64883390Y-79857142D02*
X64835771Y-79952380D01*
X64835771Y-79952380D02*
X64788152Y-79999999D01*
X64788152Y-79999999D02*
X64692914Y-80047618D01*
X64692914Y-80047618D02*
X64645295Y-80047618D01*
X64645295Y-80047618D02*
X64550057Y-79999999D01*
X64550057Y-79999999D02*
X64502438Y-79952380D01*
X64502438Y-79952380D02*
X64454819Y-79857142D01*
X64454819Y-79857142D02*
X64454819Y-79666666D01*
X64454819Y-79666666D02*
X64502438Y-79571428D01*
X64502438Y-79571428D02*
X64550057Y-79523809D01*
X64550057Y-79523809D02*
X64645295Y-79476190D01*
X64645295Y-79476190D02*
X64692914Y-79476190D01*
X64692914Y-79476190D02*
X64788152Y-79523809D01*
X64788152Y-79523809D02*
X64835771Y-79571428D01*
X64835771Y-79571428D02*
X64883390Y-79666666D01*
X64883390Y-79666666D02*
X64883390Y-79857142D01*
X64883390Y-79857142D02*
X64931009Y-79952380D01*
X64931009Y-79952380D02*
X64978628Y-79999999D01*
X64978628Y-79999999D02*
X65073866Y-80047618D01*
X65073866Y-80047618D02*
X65264342Y-80047618D01*
X65264342Y-80047618D02*
X65359580Y-79999999D01*
X65359580Y-79999999D02*
X65407200Y-79952380D01*
X65407200Y-79952380D02*
X65454819Y-79857142D01*
X65454819Y-79857142D02*
X65454819Y-79666666D01*
X65454819Y-79666666D02*
X65407200Y-79571428D01*
X65407200Y-79571428D02*
X65359580Y-79523809D01*
X65359580Y-79523809D02*
X65264342Y-79476190D01*
X65264342Y-79476190D02*
X65073866Y-79476190D01*
X65073866Y-79476190D02*
X64978628Y-79523809D01*
X64978628Y-79523809D02*
X64931009Y-79571428D01*
X64931009Y-79571428D02*
X64883390Y-79666666D01*
X48854819Y-164736189D02*
X47854819Y-164736189D01*
X48759580Y-163688571D02*
X48807200Y-163736190D01*
X48807200Y-163736190D02*
X48854819Y-163879047D01*
X48854819Y-163879047D02*
X48854819Y-163974285D01*
X48854819Y-163974285D02*
X48807200Y-164117142D01*
X48807200Y-164117142D02*
X48711961Y-164212380D01*
X48711961Y-164212380D02*
X48616723Y-164259999D01*
X48616723Y-164259999D02*
X48426247Y-164307618D01*
X48426247Y-164307618D02*
X48283390Y-164307618D01*
X48283390Y-164307618D02*
X48092914Y-164259999D01*
X48092914Y-164259999D02*
X47997676Y-164212380D01*
X47997676Y-164212380D02*
X47902438Y-164117142D01*
X47902438Y-164117142D02*
X47854819Y-163974285D01*
X47854819Y-163974285D02*
X47854819Y-163879047D01*
X47854819Y-163879047D02*
X47902438Y-163736190D01*
X47902438Y-163736190D02*
X47950057Y-163688571D01*
X48854819Y-162736190D02*
X48854819Y-163307618D01*
X48854819Y-163021904D02*
X47854819Y-163021904D01*
X47854819Y-163021904D02*
X47997676Y-163117142D01*
X47997676Y-163117142D02*
X48092914Y-163212380D01*
X48092914Y-163212380D02*
X48140533Y-163307618D01*
X94417142Y-171069580D02*
X94369523Y-171117200D01*
X94369523Y-171117200D02*
X94226666Y-171164819D01*
X94226666Y-171164819D02*
X94131428Y-171164819D01*
X94131428Y-171164819D02*
X93988571Y-171117200D01*
X93988571Y-171117200D02*
X93893333Y-171021961D01*
X93893333Y-171021961D02*
X93845714Y-170926723D01*
X93845714Y-170926723D02*
X93798095Y-170736247D01*
X93798095Y-170736247D02*
X93798095Y-170593390D01*
X93798095Y-170593390D02*
X93845714Y-170402914D01*
X93845714Y-170402914D02*
X93893333Y-170307676D01*
X93893333Y-170307676D02*
X93988571Y-170212438D01*
X93988571Y-170212438D02*
X94131428Y-170164819D01*
X94131428Y-170164819D02*
X94226666Y-170164819D01*
X94226666Y-170164819D02*
X94369523Y-170212438D01*
X94369523Y-170212438D02*
X94417142Y-170260057D01*
X95369523Y-171164819D02*
X94798095Y-171164819D01*
X95083809Y-171164819D02*
X95083809Y-170164819D01*
X95083809Y-170164819D02*
X94988571Y-170307676D01*
X94988571Y-170307676D02*
X94893333Y-170402914D01*
X94893333Y-170402914D02*
X94798095Y-170450533D01*
X95702857Y-170164819D02*
X96321904Y-170164819D01*
X96321904Y-170164819D02*
X95988571Y-170545771D01*
X95988571Y-170545771D02*
X96131428Y-170545771D01*
X96131428Y-170545771D02*
X96226666Y-170593390D01*
X96226666Y-170593390D02*
X96274285Y-170641009D01*
X96274285Y-170641009D02*
X96321904Y-170736247D01*
X96321904Y-170736247D02*
X96321904Y-170974342D01*
X96321904Y-170974342D02*
X96274285Y-171069580D01*
X96274285Y-171069580D02*
X96226666Y-171117200D01*
X96226666Y-171117200D02*
X96131428Y-171164819D01*
X96131428Y-171164819D02*
X95845714Y-171164819D01*
X95845714Y-171164819D02*
X95750476Y-171117200D01*
X95750476Y-171117200D02*
X95702857Y-171069580D01*
X48454819Y-108476189D02*
X47454819Y-108476189D01*
X48359580Y-107428571D02*
X48407200Y-107476190D01*
X48407200Y-107476190D02*
X48454819Y-107619047D01*
X48454819Y-107619047D02*
X48454819Y-107714285D01*
X48454819Y-107714285D02*
X48407200Y-107857142D01*
X48407200Y-107857142D02*
X48311961Y-107952380D01*
X48311961Y-107952380D02*
X48216723Y-107999999D01*
X48216723Y-107999999D02*
X48026247Y-108047618D01*
X48026247Y-108047618D02*
X47883390Y-108047618D01*
X47883390Y-108047618D02*
X47692914Y-107999999D01*
X47692914Y-107999999D02*
X47597676Y-107952380D01*
X47597676Y-107952380D02*
X47502438Y-107857142D01*
X47502438Y-107857142D02*
X47454819Y-107714285D01*
X47454819Y-107714285D02*
X47454819Y-107619047D01*
X47454819Y-107619047D02*
X47502438Y-107476190D01*
X47502438Y-107476190D02*
X47550057Y-107428571D01*
X47454819Y-107095237D02*
X47454819Y-106476190D01*
X47454819Y-106476190D02*
X47835771Y-106809523D01*
X47835771Y-106809523D02*
X47835771Y-106666666D01*
X47835771Y-106666666D02*
X47883390Y-106571428D01*
X47883390Y-106571428D02*
X47931009Y-106523809D01*
X47931009Y-106523809D02*
X48026247Y-106476190D01*
X48026247Y-106476190D02*
X48264342Y-106476190D01*
X48264342Y-106476190D02*
X48359580Y-106523809D01*
X48359580Y-106523809D02*
X48407200Y-106571428D01*
X48407200Y-106571428D02*
X48454819Y-106666666D01*
X48454819Y-106666666D02*
X48454819Y-106952380D01*
X48454819Y-106952380D02*
X48407200Y-107047618D01*
X48407200Y-107047618D02*
X48359580Y-107095237D01*
X130034819Y-42142857D02*
X129558628Y-42476190D01*
X130034819Y-42714285D02*
X129034819Y-42714285D01*
X129034819Y-42714285D02*
X129034819Y-42333333D01*
X129034819Y-42333333D02*
X129082438Y-42238095D01*
X129082438Y-42238095D02*
X129130057Y-42190476D01*
X129130057Y-42190476D02*
X129225295Y-42142857D01*
X129225295Y-42142857D02*
X129368152Y-42142857D01*
X129368152Y-42142857D02*
X129463390Y-42190476D01*
X129463390Y-42190476D02*
X129511009Y-42238095D01*
X129511009Y-42238095D02*
X129558628Y-42333333D01*
X129558628Y-42333333D02*
X129558628Y-42714285D01*
X130034819Y-41190476D02*
X130034819Y-41761904D01*
X130034819Y-41476190D02*
X129034819Y-41476190D01*
X129034819Y-41476190D02*
X129177676Y-41571428D01*
X129177676Y-41571428D02*
X129272914Y-41666666D01*
X129272914Y-41666666D02*
X129320533Y-41761904D01*
X130034819Y-40714285D02*
X130034819Y-40523809D01*
X130034819Y-40523809D02*
X129987200Y-40428571D01*
X129987200Y-40428571D02*
X129939580Y-40380952D01*
X129939580Y-40380952D02*
X129796723Y-40285714D01*
X129796723Y-40285714D02*
X129606247Y-40238095D01*
X129606247Y-40238095D02*
X129225295Y-40238095D01*
X129225295Y-40238095D02*
X129130057Y-40285714D01*
X129130057Y-40285714D02*
X129082438Y-40333333D01*
X129082438Y-40333333D02*
X129034819Y-40428571D01*
X129034819Y-40428571D02*
X129034819Y-40619047D01*
X129034819Y-40619047D02*
X129082438Y-40714285D01*
X129082438Y-40714285D02*
X129130057Y-40761904D01*
X129130057Y-40761904D02*
X129225295Y-40809523D01*
X129225295Y-40809523D02*
X129463390Y-40809523D01*
X129463390Y-40809523D02*
X129558628Y-40761904D01*
X129558628Y-40761904D02*
X129606247Y-40714285D01*
X129606247Y-40714285D02*
X129653866Y-40619047D01*
X129653866Y-40619047D02*
X129653866Y-40428571D01*
X129653866Y-40428571D02*
X129606247Y-40333333D01*
X129606247Y-40333333D02*
X129558628Y-40285714D01*
X129558628Y-40285714D02*
X129463390Y-40238095D01*
X40783333Y-48659580D02*
X40735714Y-48707200D01*
X40735714Y-48707200D02*
X40592857Y-48754819D01*
X40592857Y-48754819D02*
X40497619Y-48754819D01*
X40497619Y-48754819D02*
X40354762Y-48707200D01*
X40354762Y-48707200D02*
X40259524Y-48611961D01*
X40259524Y-48611961D02*
X40211905Y-48516723D01*
X40211905Y-48516723D02*
X40164286Y-48326247D01*
X40164286Y-48326247D02*
X40164286Y-48183390D01*
X40164286Y-48183390D02*
X40211905Y-47992914D01*
X40211905Y-47992914D02*
X40259524Y-47897676D01*
X40259524Y-47897676D02*
X40354762Y-47802438D01*
X40354762Y-47802438D02*
X40497619Y-47754819D01*
X40497619Y-47754819D02*
X40592857Y-47754819D01*
X40592857Y-47754819D02*
X40735714Y-47802438D01*
X40735714Y-47802438D02*
X40783333Y-47850057D01*
X41164286Y-47850057D02*
X41211905Y-47802438D01*
X41211905Y-47802438D02*
X41307143Y-47754819D01*
X41307143Y-47754819D02*
X41545238Y-47754819D01*
X41545238Y-47754819D02*
X41640476Y-47802438D01*
X41640476Y-47802438D02*
X41688095Y-47850057D01*
X41688095Y-47850057D02*
X41735714Y-47945295D01*
X41735714Y-47945295D02*
X41735714Y-48040533D01*
X41735714Y-48040533D02*
X41688095Y-48183390D01*
X41688095Y-48183390D02*
X41116667Y-48754819D01*
X41116667Y-48754819D02*
X41735714Y-48754819D01*
X156395180Y-135356666D02*
X155680895Y-135356666D01*
X155680895Y-135356666D02*
X155538038Y-135309047D01*
X155538038Y-135309047D02*
X155442800Y-135213809D01*
X155442800Y-135213809D02*
X155395180Y-135070952D01*
X155395180Y-135070952D02*
X155395180Y-134975714D01*
X156061847Y-136261428D02*
X155395180Y-136261428D01*
X156442800Y-136023333D02*
X155728514Y-135785238D01*
X155728514Y-135785238D02*
X155728514Y-136404285D01*
X124333333Y-89034819D02*
X124000000Y-88558628D01*
X123761905Y-89034819D02*
X123761905Y-88034819D01*
X123761905Y-88034819D02*
X124142857Y-88034819D01*
X124142857Y-88034819D02*
X124238095Y-88082438D01*
X124238095Y-88082438D02*
X124285714Y-88130057D01*
X124285714Y-88130057D02*
X124333333Y-88225295D01*
X124333333Y-88225295D02*
X124333333Y-88368152D01*
X124333333Y-88368152D02*
X124285714Y-88463390D01*
X124285714Y-88463390D02*
X124238095Y-88511009D01*
X124238095Y-88511009D02*
X124142857Y-88558628D01*
X124142857Y-88558628D02*
X123761905Y-88558628D01*
X125190476Y-88034819D02*
X125000000Y-88034819D01*
X125000000Y-88034819D02*
X124904762Y-88082438D01*
X124904762Y-88082438D02*
X124857143Y-88130057D01*
X124857143Y-88130057D02*
X124761905Y-88272914D01*
X124761905Y-88272914D02*
X124714286Y-88463390D01*
X124714286Y-88463390D02*
X124714286Y-88844342D01*
X124714286Y-88844342D02*
X124761905Y-88939580D01*
X124761905Y-88939580D02*
X124809524Y-88987200D01*
X124809524Y-88987200D02*
X124904762Y-89034819D01*
X124904762Y-89034819D02*
X125095238Y-89034819D01*
X125095238Y-89034819D02*
X125190476Y-88987200D01*
X125190476Y-88987200D02*
X125238095Y-88939580D01*
X125238095Y-88939580D02*
X125285714Y-88844342D01*
X125285714Y-88844342D02*
X125285714Y-88606247D01*
X125285714Y-88606247D02*
X125238095Y-88511009D01*
X125238095Y-88511009D02*
X125190476Y-88463390D01*
X125190476Y-88463390D02*
X125095238Y-88415771D01*
X125095238Y-88415771D02*
X124904762Y-88415771D01*
X124904762Y-88415771D02*
X124809524Y-88463390D01*
X124809524Y-88463390D02*
X124761905Y-88511009D01*
X124761905Y-88511009D02*
X124714286Y-88606247D01*
X132438095Y-59954819D02*
X133009523Y-59954819D01*
X132723809Y-60954819D02*
X132723809Y-59954819D01*
X133342857Y-60954819D02*
X133342857Y-59954819D01*
X133342857Y-59954819D02*
X133723809Y-59954819D01*
X133723809Y-59954819D02*
X133819047Y-60002438D01*
X133819047Y-60002438D02*
X133866666Y-60050057D01*
X133866666Y-60050057D02*
X133914285Y-60145295D01*
X133914285Y-60145295D02*
X133914285Y-60288152D01*
X133914285Y-60288152D02*
X133866666Y-60383390D01*
X133866666Y-60383390D02*
X133819047Y-60431009D01*
X133819047Y-60431009D02*
X133723809Y-60478628D01*
X133723809Y-60478628D02*
X133342857Y-60478628D01*
X134866666Y-60954819D02*
X134295238Y-60954819D01*
X134580952Y-60954819D02*
X134580952Y-59954819D01*
X134580952Y-59954819D02*
X134485714Y-60097676D01*
X134485714Y-60097676D02*
X134390476Y-60192914D01*
X134390476Y-60192914D02*
X134295238Y-60240533D01*
X102454819Y-83912380D02*
X101454819Y-83912380D01*
X102359580Y-82864762D02*
X102407200Y-82912381D01*
X102407200Y-82912381D02*
X102454819Y-83055238D01*
X102454819Y-83055238D02*
X102454819Y-83150476D01*
X102454819Y-83150476D02*
X102407200Y-83293333D01*
X102407200Y-83293333D02*
X102311961Y-83388571D01*
X102311961Y-83388571D02*
X102216723Y-83436190D01*
X102216723Y-83436190D02*
X102026247Y-83483809D01*
X102026247Y-83483809D02*
X101883390Y-83483809D01*
X101883390Y-83483809D02*
X101692914Y-83436190D01*
X101692914Y-83436190D02*
X101597676Y-83388571D01*
X101597676Y-83388571D02*
X101502438Y-83293333D01*
X101502438Y-83293333D02*
X101454819Y-83150476D01*
X101454819Y-83150476D02*
X101454819Y-83055238D01*
X101454819Y-83055238D02*
X101502438Y-82912381D01*
X101502438Y-82912381D02*
X101550057Y-82864762D01*
X102454819Y-81912381D02*
X102454819Y-82483809D01*
X102454819Y-82198095D02*
X101454819Y-82198095D01*
X101454819Y-82198095D02*
X101597676Y-82293333D01*
X101597676Y-82293333D02*
X101692914Y-82388571D01*
X101692914Y-82388571D02*
X101740533Y-82483809D01*
X101788152Y-81055238D02*
X102454819Y-81055238D01*
X101407200Y-81293333D02*
X102121485Y-81531428D01*
X102121485Y-81531428D02*
X102121485Y-80912381D01*
X53333333Y-62859580D02*
X53285714Y-62907200D01*
X53285714Y-62907200D02*
X53142857Y-62954819D01*
X53142857Y-62954819D02*
X53047619Y-62954819D01*
X53047619Y-62954819D02*
X52904762Y-62907200D01*
X52904762Y-62907200D02*
X52809524Y-62811961D01*
X52809524Y-62811961D02*
X52761905Y-62716723D01*
X52761905Y-62716723D02*
X52714286Y-62526247D01*
X52714286Y-62526247D02*
X52714286Y-62383390D01*
X52714286Y-62383390D02*
X52761905Y-62192914D01*
X52761905Y-62192914D02*
X52809524Y-62097676D01*
X52809524Y-62097676D02*
X52904762Y-62002438D01*
X52904762Y-62002438D02*
X53047619Y-61954819D01*
X53047619Y-61954819D02*
X53142857Y-61954819D01*
X53142857Y-61954819D02*
X53285714Y-62002438D01*
X53285714Y-62002438D02*
X53333333Y-62050057D01*
X53904762Y-62383390D02*
X53809524Y-62335771D01*
X53809524Y-62335771D02*
X53761905Y-62288152D01*
X53761905Y-62288152D02*
X53714286Y-62192914D01*
X53714286Y-62192914D02*
X53714286Y-62145295D01*
X53714286Y-62145295D02*
X53761905Y-62050057D01*
X53761905Y-62050057D02*
X53809524Y-62002438D01*
X53809524Y-62002438D02*
X53904762Y-61954819D01*
X53904762Y-61954819D02*
X54095238Y-61954819D01*
X54095238Y-61954819D02*
X54190476Y-62002438D01*
X54190476Y-62002438D02*
X54238095Y-62050057D01*
X54238095Y-62050057D02*
X54285714Y-62145295D01*
X54285714Y-62145295D02*
X54285714Y-62192914D01*
X54285714Y-62192914D02*
X54238095Y-62288152D01*
X54238095Y-62288152D02*
X54190476Y-62335771D01*
X54190476Y-62335771D02*
X54095238Y-62383390D01*
X54095238Y-62383390D02*
X53904762Y-62383390D01*
X53904762Y-62383390D02*
X53809524Y-62431009D01*
X53809524Y-62431009D02*
X53761905Y-62478628D01*
X53761905Y-62478628D02*
X53714286Y-62573866D01*
X53714286Y-62573866D02*
X53714286Y-62764342D01*
X53714286Y-62764342D02*
X53761905Y-62859580D01*
X53761905Y-62859580D02*
X53809524Y-62907200D01*
X53809524Y-62907200D02*
X53904762Y-62954819D01*
X53904762Y-62954819D02*
X54095238Y-62954819D01*
X54095238Y-62954819D02*
X54190476Y-62907200D01*
X54190476Y-62907200D02*
X54238095Y-62859580D01*
X54238095Y-62859580D02*
X54285714Y-62764342D01*
X54285714Y-62764342D02*
X54285714Y-62573866D01*
X54285714Y-62573866D02*
X54238095Y-62478628D01*
X54238095Y-62478628D02*
X54190476Y-62431009D01*
X54190476Y-62431009D02*
X54095238Y-62383390D01*
X146064819Y-40578094D02*
X145064819Y-40578094D01*
X145064819Y-40578094D02*
X145064819Y-40339999D01*
X145064819Y-40339999D02*
X145112438Y-40197142D01*
X145112438Y-40197142D02*
X145207676Y-40101904D01*
X145207676Y-40101904D02*
X145302914Y-40054285D01*
X145302914Y-40054285D02*
X145493390Y-40006666D01*
X145493390Y-40006666D02*
X145636247Y-40006666D01*
X145636247Y-40006666D02*
X145826723Y-40054285D01*
X145826723Y-40054285D02*
X145921961Y-40101904D01*
X145921961Y-40101904D02*
X146017200Y-40197142D01*
X146017200Y-40197142D02*
X146064819Y-40339999D01*
X146064819Y-40339999D02*
X146064819Y-40578094D01*
X145160057Y-39625713D02*
X145112438Y-39578094D01*
X145112438Y-39578094D02*
X145064819Y-39482856D01*
X145064819Y-39482856D02*
X145064819Y-39244761D01*
X145064819Y-39244761D02*
X145112438Y-39149523D01*
X145112438Y-39149523D02*
X145160057Y-39101904D01*
X145160057Y-39101904D02*
X145255295Y-39054285D01*
X145255295Y-39054285D02*
X145350533Y-39054285D01*
X145350533Y-39054285D02*
X145493390Y-39101904D01*
X145493390Y-39101904D02*
X146064819Y-39673332D01*
X146064819Y-39673332D02*
X146064819Y-39054285D01*
X150094819Y-161098094D02*
X149094819Y-161098094D01*
X149094819Y-161098094D02*
X149094819Y-160859999D01*
X149094819Y-160859999D02*
X149142438Y-160717142D01*
X149142438Y-160717142D02*
X149237676Y-160621904D01*
X149237676Y-160621904D02*
X149332914Y-160574285D01*
X149332914Y-160574285D02*
X149523390Y-160526666D01*
X149523390Y-160526666D02*
X149666247Y-160526666D01*
X149666247Y-160526666D02*
X149856723Y-160574285D01*
X149856723Y-160574285D02*
X149951961Y-160621904D01*
X149951961Y-160621904D02*
X150047200Y-160717142D01*
X150047200Y-160717142D02*
X150094819Y-160859999D01*
X150094819Y-160859999D02*
X150094819Y-161098094D01*
X149094819Y-160193332D02*
X149094819Y-159574285D01*
X149094819Y-159574285D02*
X149475771Y-159907618D01*
X149475771Y-159907618D02*
X149475771Y-159764761D01*
X149475771Y-159764761D02*
X149523390Y-159669523D01*
X149523390Y-159669523D02*
X149571009Y-159621904D01*
X149571009Y-159621904D02*
X149666247Y-159574285D01*
X149666247Y-159574285D02*
X149904342Y-159574285D01*
X149904342Y-159574285D02*
X149999580Y-159621904D01*
X149999580Y-159621904D02*
X150047200Y-159669523D01*
X150047200Y-159669523D02*
X150094819Y-159764761D01*
X150094819Y-159764761D02*
X150094819Y-160050475D01*
X150094819Y-160050475D02*
X150047200Y-160145713D01*
X150047200Y-160145713D02*
X149999580Y-160193332D01*
D13*
X122555475Y-54574318D02*
X122555475Y-53304318D01*
X123885952Y-54453365D02*
X123825476Y-54513842D01*
X123825476Y-54513842D02*
X123644047Y-54574318D01*
X123644047Y-54574318D02*
X123523095Y-54574318D01*
X123523095Y-54574318D02*
X123341666Y-54513842D01*
X123341666Y-54513842D02*
X123220714Y-54392889D01*
X123220714Y-54392889D02*
X123160237Y-54271937D01*
X123160237Y-54271937D02*
X123099761Y-54030032D01*
X123099761Y-54030032D02*
X123099761Y-53848603D01*
X123099761Y-53848603D02*
X123160237Y-53606699D01*
X123160237Y-53606699D02*
X123220714Y-53485746D01*
X123220714Y-53485746D02*
X123341666Y-53364794D01*
X123341666Y-53364794D02*
X123523095Y-53304318D01*
X123523095Y-53304318D02*
X123644047Y-53304318D01*
X123644047Y-53304318D02*
X123825476Y-53364794D01*
X123825476Y-53364794D02*
X123885952Y-53425270D01*
X125095476Y-54574318D02*
X124369761Y-54574318D01*
X124732618Y-54574318D02*
X124732618Y-53304318D01*
X124732618Y-53304318D02*
X124611666Y-53485746D01*
X124611666Y-53485746D02*
X124490714Y-53606699D01*
X124490714Y-53606699D02*
X124369761Y-53667175D01*
X126184047Y-53304318D02*
X125942142Y-53304318D01*
X125942142Y-53304318D02*
X125821190Y-53364794D01*
X125821190Y-53364794D02*
X125760714Y-53425270D01*
X125760714Y-53425270D02*
X125639761Y-53606699D01*
X125639761Y-53606699D02*
X125579285Y-53848603D01*
X125579285Y-53848603D02*
X125579285Y-54332413D01*
X125579285Y-54332413D02*
X125639761Y-54453365D01*
X125639761Y-54453365D02*
X125700238Y-54513842D01*
X125700238Y-54513842D02*
X125821190Y-54574318D01*
X125821190Y-54574318D02*
X126063095Y-54574318D01*
X126063095Y-54574318D02*
X126184047Y-54513842D01*
X126184047Y-54513842D02*
X126244523Y-54453365D01*
X126244523Y-54453365D02*
X126305000Y-54332413D01*
X126305000Y-54332413D02*
X126305000Y-54030032D01*
X126305000Y-54030032D02*
X126244523Y-53909080D01*
X126244523Y-53909080D02*
X126184047Y-53848603D01*
X126184047Y-53848603D02*
X126063095Y-53788127D01*
X126063095Y-53788127D02*
X125821190Y-53788127D01*
X125821190Y-53788127D02*
X125700238Y-53848603D01*
X125700238Y-53848603D02*
X125639761Y-53909080D01*
X125639761Y-53909080D02*
X125579285Y-54030032D01*
D12*
X48454819Y-132851189D02*
X47454819Y-132851189D01*
X48359580Y-131803571D02*
X48407200Y-131851190D01*
X48407200Y-131851190D02*
X48454819Y-131994047D01*
X48454819Y-131994047D02*
X48454819Y-132089285D01*
X48454819Y-132089285D02*
X48407200Y-132232142D01*
X48407200Y-132232142D02*
X48311961Y-132327380D01*
X48311961Y-132327380D02*
X48216723Y-132374999D01*
X48216723Y-132374999D02*
X48026247Y-132422618D01*
X48026247Y-132422618D02*
X47883390Y-132422618D01*
X47883390Y-132422618D02*
X47692914Y-132374999D01*
X47692914Y-132374999D02*
X47597676Y-132327380D01*
X47597676Y-132327380D02*
X47502438Y-132232142D01*
X47502438Y-132232142D02*
X47454819Y-132089285D01*
X47454819Y-132089285D02*
X47454819Y-131994047D01*
X47454819Y-131994047D02*
X47502438Y-131851190D01*
X47502438Y-131851190D02*
X47550057Y-131803571D01*
X47550057Y-131422618D02*
X47502438Y-131374999D01*
X47502438Y-131374999D02*
X47454819Y-131279761D01*
X47454819Y-131279761D02*
X47454819Y-131041666D01*
X47454819Y-131041666D02*
X47502438Y-130946428D01*
X47502438Y-130946428D02*
X47550057Y-130898809D01*
X47550057Y-130898809D02*
X47645295Y-130851190D01*
X47645295Y-130851190D02*
X47740533Y-130851190D01*
X47740533Y-130851190D02*
X47883390Y-130898809D01*
X47883390Y-130898809D02*
X48454819Y-131470237D01*
X48454819Y-131470237D02*
X48454819Y-130851190D01*
X137454819Y-133309523D02*
X138454819Y-132642857D01*
X137454819Y-132642857D02*
X138454819Y-133309523D01*
X137550057Y-132309523D02*
X137502438Y-132261904D01*
X137502438Y-132261904D02*
X137454819Y-132166666D01*
X137454819Y-132166666D02*
X137454819Y-131928571D01*
X137454819Y-131928571D02*
X137502438Y-131833333D01*
X137502438Y-131833333D02*
X137550057Y-131785714D01*
X137550057Y-131785714D02*
X137645295Y-131738095D01*
X137645295Y-131738095D02*
X137740533Y-131738095D01*
X137740533Y-131738095D02*
X137883390Y-131785714D01*
X137883390Y-131785714D02*
X138454819Y-132357142D01*
X138454819Y-132357142D02*
X138454819Y-131738095D01*
X140599580Y-64782857D02*
X140647200Y-64830476D01*
X140647200Y-64830476D02*
X140694819Y-64973333D01*
X140694819Y-64973333D02*
X140694819Y-65068571D01*
X140694819Y-65068571D02*
X140647200Y-65211428D01*
X140647200Y-65211428D02*
X140551961Y-65306666D01*
X140551961Y-65306666D02*
X140456723Y-65354285D01*
X140456723Y-65354285D02*
X140266247Y-65401904D01*
X140266247Y-65401904D02*
X140123390Y-65401904D01*
X140123390Y-65401904D02*
X139932914Y-65354285D01*
X139932914Y-65354285D02*
X139837676Y-65306666D01*
X139837676Y-65306666D02*
X139742438Y-65211428D01*
X139742438Y-65211428D02*
X139694819Y-65068571D01*
X139694819Y-65068571D02*
X139694819Y-64973333D01*
X139694819Y-64973333D02*
X139742438Y-64830476D01*
X139742438Y-64830476D02*
X139790057Y-64782857D01*
X139790057Y-64401904D02*
X139742438Y-64354285D01*
X139742438Y-64354285D02*
X139694819Y-64259047D01*
X139694819Y-64259047D02*
X139694819Y-64020952D01*
X139694819Y-64020952D02*
X139742438Y-63925714D01*
X139742438Y-63925714D02*
X139790057Y-63878095D01*
X139790057Y-63878095D02*
X139885295Y-63830476D01*
X139885295Y-63830476D02*
X139980533Y-63830476D01*
X139980533Y-63830476D02*
X140123390Y-63878095D01*
X140123390Y-63878095D02*
X140694819Y-64449523D01*
X140694819Y-64449523D02*
X140694819Y-63830476D01*
X140028152Y-62973333D02*
X140694819Y-62973333D01*
X139647200Y-63211428D02*
X140361485Y-63449523D01*
X140361485Y-63449523D02*
X140361485Y-62830476D01*
X53333333Y-113859580D02*
X53285714Y-113907200D01*
X53285714Y-113907200D02*
X53142857Y-113954819D01*
X53142857Y-113954819D02*
X53047619Y-113954819D01*
X53047619Y-113954819D02*
X52904762Y-113907200D01*
X52904762Y-113907200D02*
X52809524Y-113811961D01*
X52809524Y-113811961D02*
X52761905Y-113716723D01*
X52761905Y-113716723D02*
X52714286Y-113526247D01*
X52714286Y-113526247D02*
X52714286Y-113383390D01*
X52714286Y-113383390D02*
X52761905Y-113192914D01*
X52761905Y-113192914D02*
X52809524Y-113097676D01*
X52809524Y-113097676D02*
X52904762Y-113002438D01*
X52904762Y-113002438D02*
X53047619Y-112954819D01*
X53047619Y-112954819D02*
X53142857Y-112954819D01*
X53142857Y-112954819D02*
X53285714Y-113002438D01*
X53285714Y-113002438D02*
X53333333Y-113050057D01*
X54190476Y-112954819D02*
X54000000Y-112954819D01*
X54000000Y-112954819D02*
X53904762Y-113002438D01*
X53904762Y-113002438D02*
X53857143Y-113050057D01*
X53857143Y-113050057D02*
X53761905Y-113192914D01*
X53761905Y-113192914D02*
X53714286Y-113383390D01*
X53714286Y-113383390D02*
X53714286Y-113764342D01*
X53714286Y-113764342D02*
X53761905Y-113859580D01*
X53761905Y-113859580D02*
X53809524Y-113907200D01*
X53809524Y-113907200D02*
X53904762Y-113954819D01*
X53904762Y-113954819D02*
X54095238Y-113954819D01*
X54095238Y-113954819D02*
X54190476Y-113907200D01*
X54190476Y-113907200D02*
X54238095Y-113859580D01*
X54238095Y-113859580D02*
X54285714Y-113764342D01*
X54285714Y-113764342D02*
X54285714Y-113526247D01*
X54285714Y-113526247D02*
X54238095Y-113431009D01*
X54238095Y-113431009D02*
X54190476Y-113383390D01*
X54190476Y-113383390D02*
X54095238Y-113335771D01*
X54095238Y-113335771D02*
X53904762Y-113335771D01*
X53904762Y-113335771D02*
X53809524Y-113383390D01*
X53809524Y-113383390D02*
X53761905Y-113431009D01*
X53761905Y-113431009D02*
X53714286Y-113526247D01*
X156974819Y-83073333D02*
X157689104Y-83073333D01*
X157689104Y-83073333D02*
X157831961Y-83120952D01*
X157831961Y-83120952D02*
X157927200Y-83216190D01*
X157927200Y-83216190D02*
X157974819Y-83359047D01*
X157974819Y-83359047D02*
X157974819Y-83454285D01*
X156974819Y-82168571D02*
X156974819Y-82359047D01*
X156974819Y-82359047D02*
X157022438Y-82454285D01*
X157022438Y-82454285D02*
X157070057Y-82501904D01*
X157070057Y-82501904D02*
X157212914Y-82597142D01*
X157212914Y-82597142D02*
X157403390Y-82644761D01*
X157403390Y-82644761D02*
X157784342Y-82644761D01*
X157784342Y-82644761D02*
X157879580Y-82597142D01*
X157879580Y-82597142D02*
X157927200Y-82549523D01*
X157927200Y-82549523D02*
X157974819Y-82454285D01*
X157974819Y-82454285D02*
X157974819Y-82263809D01*
X157974819Y-82263809D02*
X157927200Y-82168571D01*
X157927200Y-82168571D02*
X157879580Y-82120952D01*
X157879580Y-82120952D02*
X157784342Y-82073333D01*
X157784342Y-82073333D02*
X157546247Y-82073333D01*
X157546247Y-82073333D02*
X157451009Y-82120952D01*
X157451009Y-82120952D02*
X157403390Y-82168571D01*
X157403390Y-82168571D02*
X157355771Y-82263809D01*
X157355771Y-82263809D02*
X157355771Y-82454285D01*
X157355771Y-82454285D02*
X157403390Y-82549523D01*
X157403390Y-82549523D02*
X157451009Y-82597142D01*
X157451009Y-82597142D02*
X157546247Y-82644761D01*
X40333333Y-53859580D02*
X40285714Y-53907200D01*
X40285714Y-53907200D02*
X40142857Y-53954819D01*
X40142857Y-53954819D02*
X40047619Y-53954819D01*
X40047619Y-53954819D02*
X39904762Y-53907200D01*
X39904762Y-53907200D02*
X39809524Y-53811961D01*
X39809524Y-53811961D02*
X39761905Y-53716723D01*
X39761905Y-53716723D02*
X39714286Y-53526247D01*
X39714286Y-53526247D02*
X39714286Y-53383390D01*
X39714286Y-53383390D02*
X39761905Y-53192914D01*
X39761905Y-53192914D02*
X39809524Y-53097676D01*
X39809524Y-53097676D02*
X39904762Y-53002438D01*
X39904762Y-53002438D02*
X40047619Y-52954819D01*
X40047619Y-52954819D02*
X40142857Y-52954819D01*
X40142857Y-52954819D02*
X40285714Y-53002438D01*
X40285714Y-53002438D02*
X40333333Y-53050057D01*
X40666667Y-52954819D02*
X41285714Y-52954819D01*
X41285714Y-52954819D02*
X40952381Y-53335771D01*
X40952381Y-53335771D02*
X41095238Y-53335771D01*
X41095238Y-53335771D02*
X41190476Y-53383390D01*
X41190476Y-53383390D02*
X41238095Y-53431009D01*
X41238095Y-53431009D02*
X41285714Y-53526247D01*
X41285714Y-53526247D02*
X41285714Y-53764342D01*
X41285714Y-53764342D02*
X41238095Y-53859580D01*
X41238095Y-53859580D02*
X41190476Y-53907200D01*
X41190476Y-53907200D02*
X41095238Y-53954819D01*
X41095238Y-53954819D02*
X40809524Y-53954819D01*
X40809524Y-53954819D02*
X40714286Y-53907200D01*
X40714286Y-53907200D02*
X40666667Y-53859580D01*
D14*
X67880000Y-58630000D02*
X67880000Y-61370000D01*
X67880000Y-58630000D02*
X75120000Y-58630000D01*
X67880000Y-61370000D02*
X75120000Y-61370000D01*
X75120000Y-58630000D02*
X75120000Y-61370000D01*
X56340000Y-57370000D02*
X56340000Y-39470000D01*
X56340000Y-39470000D02*
X51040000Y-39470000D01*
X54690000Y-57370000D02*
X56340000Y-57370000D01*
X51040000Y-57370000D02*
X52690000Y-57370000D01*
X51040000Y-39470000D02*
X51040000Y-57370000D01*
X54690000Y-57370000D02*
G75*
G03*
X52690000Y-57370000I-1000000J0D01*
G01*
X106720000Y-166830000D02*
X106720000Y-169570000D01*
X106720000Y-166830000D02*
X113960000Y-166830000D01*
X106720000Y-169570000D02*
X113960000Y-169570000D01*
X113960000Y-166830000D02*
X113960000Y-169570000D01*
X120749759Y-40161000D02*
X121379759Y-40161000D01*
X121064759Y-39846000D02*
X121064759Y-40476000D01*
X124250000Y-38770000D02*
X124250000Y-45230000D01*
X124290000Y-38770000D02*
X124290000Y-45230000D01*
X124330000Y-38770000D02*
X124330000Y-45230000D01*
X124370000Y-38772000D02*
X124370000Y-45228000D01*
X124410000Y-38773000D02*
X124410000Y-45227000D01*
X124450000Y-38776000D02*
X124450000Y-45224000D01*
X124490000Y-38778000D02*
X124490000Y-40960000D01*
X124490000Y-43040000D02*
X124490000Y-45222000D01*
X124530000Y-38782000D02*
X124530000Y-40960000D01*
X124530000Y-43040000D02*
X124530000Y-45218000D01*
X124570000Y-38785000D02*
X124570000Y-40960000D01*
X124570000Y-43040000D02*
X124570000Y-45215000D01*
X124610000Y-38789000D02*
X124610000Y-40960000D01*
X124610000Y-43040000D02*
X124610000Y-45211000D01*
X124650000Y-38794000D02*
X124650000Y-40960000D01*
X124650000Y-43040000D02*
X124650000Y-45206000D01*
X124690000Y-38799000D02*
X124690000Y-40960000D01*
X124690000Y-43040000D02*
X124690000Y-45201000D01*
X124730000Y-38805000D02*
X124730000Y-40960000D01*
X124730000Y-43040000D02*
X124730000Y-45195000D01*
X124770000Y-38811000D02*
X124770000Y-40960000D01*
X124770000Y-43040000D02*
X124770000Y-45189000D01*
X124810000Y-38818000D02*
X124810000Y-40960000D01*
X124810000Y-43040000D02*
X124810000Y-45182000D01*
X124850000Y-38825000D02*
X124850000Y-40960000D01*
X124850000Y-43040000D02*
X124850000Y-45175000D01*
X124890000Y-38833000D02*
X124890000Y-40960000D01*
X124890000Y-43040000D02*
X124890000Y-45167000D01*
X124930000Y-38841000D02*
X124930000Y-40960000D01*
X124930000Y-43040000D02*
X124930000Y-45159000D01*
X124971000Y-38850000D02*
X124971000Y-40960000D01*
X124971000Y-43040000D02*
X124971000Y-45150000D01*
X125011000Y-38859000D02*
X125011000Y-40960000D01*
X125011000Y-43040000D02*
X125011000Y-45141000D01*
X125051000Y-38869000D02*
X125051000Y-40960000D01*
X125051000Y-43040000D02*
X125051000Y-45131000D01*
X125091000Y-38879000D02*
X125091000Y-40960000D01*
X125091000Y-43040000D02*
X125091000Y-45121000D01*
X125131000Y-38890000D02*
X125131000Y-40960000D01*
X125131000Y-43040000D02*
X125131000Y-45110000D01*
X125171000Y-38902000D02*
X125171000Y-40960000D01*
X125171000Y-43040000D02*
X125171000Y-45098000D01*
X125211000Y-38914000D02*
X125211000Y-40960000D01*
X125211000Y-43040000D02*
X125211000Y-45086000D01*
X125251000Y-38926000D02*
X125251000Y-40960000D01*
X125251000Y-43040000D02*
X125251000Y-45074000D01*
X125291000Y-38939000D02*
X125291000Y-40960000D01*
X125291000Y-43040000D02*
X125291000Y-45061000D01*
X125331000Y-38953000D02*
X125331000Y-40960000D01*
X125331000Y-43040000D02*
X125331000Y-45047000D01*
X125371000Y-38967000D02*
X125371000Y-40960000D01*
X125371000Y-43040000D02*
X125371000Y-45033000D01*
X125411000Y-38982000D02*
X125411000Y-40960000D01*
X125411000Y-43040000D02*
X125411000Y-45018000D01*
X125451000Y-38998000D02*
X125451000Y-40960000D01*
X125451000Y-43040000D02*
X125451000Y-45002000D01*
X125491000Y-39014000D02*
X125491000Y-40960000D01*
X125491000Y-43040000D02*
X125491000Y-44986000D01*
X125531000Y-39030000D02*
X125531000Y-40960000D01*
X125531000Y-43040000D02*
X125531000Y-44970000D01*
X125571000Y-39048000D02*
X125571000Y-40960000D01*
X125571000Y-43040000D02*
X125571000Y-44952000D01*
X125611000Y-39066000D02*
X125611000Y-40960000D01*
X125611000Y-43040000D02*
X125611000Y-44934000D01*
X125651000Y-39084000D02*
X125651000Y-40960000D01*
X125651000Y-43040000D02*
X125651000Y-44916000D01*
X125691000Y-39104000D02*
X125691000Y-40960000D01*
X125691000Y-43040000D02*
X125691000Y-44896000D01*
X125731000Y-39124000D02*
X125731000Y-40960000D01*
X125731000Y-43040000D02*
X125731000Y-44876000D01*
X125771000Y-39144000D02*
X125771000Y-40960000D01*
X125771000Y-43040000D02*
X125771000Y-44856000D01*
X125811000Y-39166000D02*
X125811000Y-40960000D01*
X125811000Y-43040000D02*
X125811000Y-44834000D01*
X125851000Y-39188000D02*
X125851000Y-40960000D01*
X125851000Y-43040000D02*
X125851000Y-44812000D01*
X125891000Y-39210000D02*
X125891000Y-40960000D01*
X125891000Y-43040000D02*
X125891000Y-44790000D01*
X125931000Y-39234000D02*
X125931000Y-40960000D01*
X125931000Y-43040000D02*
X125931000Y-44766000D01*
X125971000Y-39258000D02*
X125971000Y-40960000D01*
X125971000Y-43040000D02*
X125971000Y-44742000D01*
X126011000Y-39284000D02*
X126011000Y-40960000D01*
X126011000Y-43040000D02*
X126011000Y-44716000D01*
X126051000Y-39310000D02*
X126051000Y-40960000D01*
X126051000Y-43040000D02*
X126051000Y-44690000D01*
X126091000Y-39336000D02*
X126091000Y-40960000D01*
X126091000Y-43040000D02*
X126091000Y-44664000D01*
X126131000Y-39364000D02*
X126131000Y-40960000D01*
X126131000Y-43040000D02*
X126131000Y-44636000D01*
X126171000Y-39393000D02*
X126171000Y-40960000D01*
X126171000Y-43040000D02*
X126171000Y-44607000D01*
X126211000Y-39422000D02*
X126211000Y-40960000D01*
X126211000Y-43040000D02*
X126211000Y-44578000D01*
X126251000Y-39452000D02*
X126251000Y-40960000D01*
X126251000Y-43040000D02*
X126251000Y-44548000D01*
X126291000Y-39484000D02*
X126291000Y-40960000D01*
X126291000Y-43040000D02*
X126291000Y-44516000D01*
X126331000Y-39516000D02*
X126331000Y-40960000D01*
X126331000Y-43040000D02*
X126331000Y-44484000D01*
X126371000Y-39550000D02*
X126371000Y-40960000D01*
X126371000Y-43040000D02*
X126371000Y-44450000D01*
X126411000Y-39584000D02*
X126411000Y-40960000D01*
X126411000Y-43040000D02*
X126411000Y-44416000D01*
X126451000Y-39620000D02*
X126451000Y-40960000D01*
X126451000Y-43040000D02*
X126451000Y-44380000D01*
X126491000Y-39657000D02*
X126491000Y-40960000D01*
X126491000Y-43040000D02*
X126491000Y-44343000D01*
X126531000Y-39695000D02*
X126531000Y-40960000D01*
X126531000Y-43040000D02*
X126531000Y-44305000D01*
X126571000Y-39735000D02*
X126571000Y-44265000D01*
X126611000Y-39776000D02*
X126611000Y-44224000D01*
X126651000Y-39818000D02*
X126651000Y-44182000D01*
X126691000Y-39863000D02*
X126691000Y-44137000D01*
X126731000Y-39908000D02*
X126731000Y-44092000D01*
X126771000Y-39956000D02*
X126771000Y-44044000D01*
X126811000Y-40005000D02*
X126811000Y-43995000D01*
X126851000Y-40056000D02*
X126851000Y-43944000D01*
X126891000Y-40110000D02*
X126891000Y-43890000D01*
X126931000Y-40166000D02*
X126931000Y-43834000D01*
X126971000Y-40224000D02*
X126971000Y-43776000D01*
X127011000Y-40286000D02*
X127011000Y-43714000D01*
X127051000Y-40350000D02*
X127051000Y-43650000D01*
X127091000Y-40419000D02*
X127091000Y-43581000D01*
X127131000Y-40491000D02*
X127131000Y-43509000D01*
X127171000Y-40568000D02*
X127171000Y-43432000D01*
X127211000Y-40650000D02*
X127211000Y-43350000D01*
X127251000Y-40738000D02*
X127251000Y-43262000D01*
X127291000Y-40835000D02*
X127291000Y-43165000D01*
X127331000Y-40941000D02*
X127331000Y-43059000D01*
X127371000Y-41060000D02*
X127371000Y-42940000D01*
X127411000Y-41198000D02*
X127411000Y-42802000D01*
X127451000Y-41367000D02*
X127451000Y-42633000D01*
X127491000Y-41598000D02*
X127491000Y-42402000D01*
X127520000Y-42000000D02*
G75*
G03*
X120980000Y-42000000I-3270000J0D01*
G01*
X120980000Y-42000000D02*
G75*
G03*
X127520000Y-42000000I3270000J0D01*
G01*
X122580000Y-77080000D02*
X126420000Y-77080000D01*
X122580000Y-78920000D02*
X126420000Y-78920000D01*
X82240000Y-164910000D02*
X82240000Y-113990000D01*
X82240000Y-113990000D02*
X69320000Y-113990000D01*
X76780000Y-164910000D02*
X82240000Y-164910000D01*
X69320000Y-164910000D02*
X74780000Y-164910000D01*
X69320000Y-113990000D02*
X69320000Y-164910000D01*
X76780000Y-164910000D02*
G75*
G03*
X74780000Y-164910000I-1000000J0D01*
G01*
X113240000Y-138870000D02*
X113240000Y-120970000D01*
X113240000Y-120970000D02*
X107940000Y-120970000D01*
X111590000Y-138870000D02*
X113240000Y-138870000D01*
X107940000Y-138870000D02*
X109590000Y-138870000D01*
X107940000Y-120970000D02*
X107940000Y-138870000D01*
X111590000Y-138870000D02*
G75*
G03*
X109590000Y-138870000I-1000000J0D01*
G01*
X136440000Y-48710000D02*
X136440000Y-52550000D01*
X134600000Y-48710000D02*
X134600000Y-52550000D01*
X120880000Y-60630000D02*
X120880000Y-63370000D01*
X120880000Y-60630000D02*
X128120000Y-60630000D01*
X120880000Y-63370000D02*
X128120000Y-63370000D01*
X128120000Y-60630000D02*
X128120000Y-63370000D01*
X151000000Y-75500000D02*
G75*
G03*
X148000000Y-75500000I-1500000J0D01*
G01*
X148000000Y-75500000D02*
G75*
G03*
X151000000Y-75500000I1500000J0D01*
G01*
X81580000Y-89420000D02*
X81580000Y-85580000D01*
X83420000Y-89420000D02*
X83420000Y-85580000D01*
X110240000Y-59410000D02*
X110240000Y-38970000D01*
X110240000Y-38970000D02*
X104940000Y-38970000D01*
X108590000Y-59410000D02*
X110240000Y-59410000D01*
X104940000Y-59410000D02*
X106590000Y-59410000D01*
X104940000Y-38970000D02*
X104940000Y-59410000D01*
X108590000Y-59410000D02*
G75*
G03*
X106590000Y-59410000I-1000000J0D01*
G01*
X166680000Y-92960000D02*
X154080000Y-92960000D01*
X154080000Y-92960000D02*
X154080000Y-106960000D01*
X166680000Y-106960000D02*
X166680000Y-92960000D01*
X154080000Y-106960000D02*
X166680000Y-106960000D01*
X122580000Y-81080000D02*
X126420000Y-81080000D01*
X122580000Y-82920000D02*
X126420000Y-82920000D01*
X90050000Y-142890000D02*
X92850000Y-142890000D01*
X92850000Y-142890000D02*
X92850000Y-119690000D01*
X90050000Y-140180000D02*
X92850000Y-140180000D01*
X90050000Y-119690000D02*
X90050000Y-142890000D01*
X92850000Y-119690000D02*
X90050000Y-119690000D01*
X140540000Y-156880000D02*
X140540000Y-153040000D01*
X142380000Y-156880000D02*
X142380000Y-153040000D01*
X107190000Y-140510000D02*
X107190000Y-143250000D01*
X107190000Y-140510000D02*
X114430000Y-140510000D01*
X107190000Y-143250000D02*
X114430000Y-143250000D01*
X114430000Y-140510000D02*
X114430000Y-143250000D01*
X73960000Y-57370000D02*
X73960000Y-39470000D01*
X73960000Y-39470000D02*
X68660000Y-39470000D01*
X72310000Y-57370000D02*
X73960000Y-57370000D01*
X68660000Y-57370000D02*
X70310000Y-57370000D01*
X68660000Y-39470000D02*
X68660000Y-57370000D01*
X72310000Y-57370000D02*
G75*
G03*
X70310000Y-57370000I-1000000J0D01*
G01*
X94040000Y-58330000D02*
X94040000Y-40430000D01*
X94040000Y-40430000D02*
X88740000Y-40430000D01*
X92390000Y-58330000D02*
X94040000Y-58330000D01*
X88740000Y-58330000D02*
X90390000Y-58330000D01*
X88740000Y-40430000D02*
X88740000Y-58330000D01*
X92390000Y-58330000D02*
G75*
G03*
X90390000Y-58330000I-1000000J0D01*
G01*
D15*
X142405800Y-46170400D02*
X142405800Y-49929600D01*
X148654200Y-46170400D02*
X142405800Y-46170400D01*
X148654200Y-46170400D02*
X148654200Y-49929600D01*
X148654200Y-49929600D02*
X142405800Y-49929600D01*
D14*
X56440000Y-81910000D02*
X56440000Y-64010000D01*
X56440000Y-64010000D02*
X51140000Y-64010000D01*
X54790000Y-81910000D02*
X56440000Y-81910000D01*
X51140000Y-81910000D02*
X52790000Y-81910000D01*
X51140000Y-64010000D02*
X51140000Y-81910000D01*
X54790000Y-81910000D02*
G75*
G03*
X52790000Y-81910000I-1000000J0D01*
G01*
X144580000Y-69080000D02*
X148420000Y-69080000D01*
X144580000Y-70920000D02*
X148420000Y-70920000D01*
X121830000Y-157950000D02*
X121830000Y-145850000D01*
X121950000Y-157950000D02*
X121830000Y-157950000D01*
X121950000Y-157600000D02*
X121950000Y-146200000D01*
X128600000Y-157600000D02*
X121950000Y-157600000D01*
X121100000Y-154350000D02*
X121100000Y-154350000D01*
X121950000Y-154350000D02*
X121100000Y-154350000D01*
X121100000Y-149450000D02*
X121100000Y-149450000D01*
X121950000Y-149450000D02*
X121100000Y-149450000D01*
X121950000Y-146200000D02*
X128600000Y-146200000D01*
X121830000Y-145850000D02*
X121950000Y-145850000D01*
X121950000Y-145850000D02*
X121950000Y-157950000D01*
X122620000Y-69080000D02*
X126460000Y-69080000D01*
X122620000Y-70920000D02*
X126460000Y-70920000D01*
X152050000Y-48670000D02*
X152050000Y-52510000D01*
X150210000Y-48670000D02*
X150210000Y-52510000D01*
X67380000Y-108130000D02*
X67380000Y-110870000D01*
X67380000Y-108130000D02*
X74620000Y-108130000D01*
X67380000Y-110870000D02*
X74620000Y-110870000D01*
X74620000Y-108130000D02*
X74620000Y-110870000D01*
X104880000Y-85630000D02*
X104880000Y-88370000D01*
X104880000Y-85630000D02*
X112120000Y-85630000D01*
X104880000Y-88370000D02*
X112120000Y-88370000D01*
X112120000Y-85630000D02*
X112120000Y-88370000D01*
X118630000Y-140870000D02*
X119335000Y-140870000D01*
X118630000Y-140870000D02*
X118630000Y-136630000D01*
X120665000Y-140870000D02*
X121370000Y-140870000D01*
X121370000Y-140870000D02*
X121370000Y-136630000D01*
X118630000Y-136630000D02*
X119335000Y-136630000D01*
X120665000Y-136630000D02*
X121370000Y-136630000D01*
X122580000Y-73080000D02*
X126420000Y-73080000D01*
X122580000Y-74920000D02*
X126420000Y-74920000D01*
X85490000Y-67920000D02*
X85490000Y-69303000D01*
X85490000Y-67920000D02*
X86874000Y-67920000D01*
X85730000Y-68160000D02*
X85730000Y-75540000D01*
X85730000Y-68160000D02*
X95630000Y-68160000D01*
X85730000Y-75540000D02*
X95630000Y-75540000D01*
X88650000Y-69945000D02*
X88650000Y-71215000D01*
X88650000Y-70065000D02*
X90003333Y-70065000D01*
X88650000Y-70185000D02*
X90003333Y-70185000D01*
X88650000Y-70305000D02*
X90003333Y-70305000D01*
X88650000Y-70425000D02*
X90003333Y-70425000D01*
X88650000Y-70545000D02*
X90003333Y-70545000D01*
X88650000Y-70665000D02*
X90003333Y-70665000D01*
X88650000Y-70785000D02*
X90003333Y-70785000D01*
X88650000Y-70905000D02*
X90003333Y-70905000D01*
X88650000Y-71025000D02*
X90003333Y-71025000D01*
X88650000Y-71145000D02*
X90003333Y-71145000D01*
X88650000Y-71215000D02*
X92710000Y-71215000D01*
X88650000Y-72485000D02*
X88650000Y-73755000D01*
X88650000Y-72605000D02*
X90003333Y-72605000D01*
X88650000Y-72725000D02*
X90003333Y-72725000D01*
X88650000Y-72845000D02*
X90003333Y-72845000D01*
X88650000Y-72965000D02*
X90003333Y-72965000D01*
X88650000Y-73085000D02*
X90003333Y-73085000D01*
X88650000Y-73205000D02*
X90003333Y-73205000D01*
X88650000Y-73325000D02*
X90003333Y-73325000D01*
X88650000Y-73445000D02*
X90003333Y-73445000D01*
X88650000Y-73565000D02*
X90003333Y-73565000D01*
X88650000Y-73685000D02*
X90003333Y-73685000D01*
X88650000Y-73755000D02*
X92710000Y-73755000D01*
X90003333Y-69945000D02*
X90003333Y-71215000D01*
X90003333Y-72485000D02*
X90003333Y-73755000D01*
X92710000Y-69945000D02*
X88650000Y-69945000D01*
X92710000Y-71215000D02*
X92710000Y-69945000D01*
X92710000Y-72485000D02*
X88650000Y-72485000D01*
X92710000Y-73755000D02*
X92710000Y-72485000D01*
X95630000Y-68160000D02*
X95630000Y-75540000D01*
X38249759Y-38661000D02*
X38879759Y-38661000D01*
X38564759Y-38346000D02*
X38564759Y-38976000D01*
X41750000Y-37270000D02*
X41750000Y-43730000D01*
X41790000Y-37270000D02*
X41790000Y-43730000D01*
X41830000Y-37270000D02*
X41830000Y-43730000D01*
X41870000Y-37272000D02*
X41870000Y-43728000D01*
X41910000Y-37273000D02*
X41910000Y-43727000D01*
X41950000Y-37276000D02*
X41950000Y-43724000D01*
X41990000Y-37278000D02*
X41990000Y-39460000D01*
X41990000Y-41540000D02*
X41990000Y-43722000D01*
X42030000Y-37282000D02*
X42030000Y-39460000D01*
X42030000Y-41540000D02*
X42030000Y-43718000D01*
X42070000Y-37285000D02*
X42070000Y-39460000D01*
X42070000Y-41540000D02*
X42070000Y-43715000D01*
X42110000Y-37289000D02*
X42110000Y-39460000D01*
X42110000Y-41540000D02*
X42110000Y-43711000D01*
X42150000Y-37294000D02*
X42150000Y-39460000D01*
X42150000Y-41540000D02*
X42150000Y-43706000D01*
X42190000Y-37299000D02*
X42190000Y-39460000D01*
X42190000Y-41540000D02*
X42190000Y-43701000D01*
X42230000Y-37305000D02*
X42230000Y-39460000D01*
X42230000Y-41540000D02*
X42230000Y-43695000D01*
X42270000Y-37311000D02*
X42270000Y-39460000D01*
X42270000Y-41540000D02*
X42270000Y-43689000D01*
X42310000Y-37318000D02*
X42310000Y-39460000D01*
X42310000Y-41540000D02*
X42310000Y-43682000D01*
X42350000Y-37325000D02*
X42350000Y-39460000D01*
X42350000Y-41540000D02*
X42350000Y-43675000D01*
X42390000Y-37333000D02*
X42390000Y-39460000D01*
X42390000Y-41540000D02*
X42390000Y-43667000D01*
X42430000Y-37341000D02*
X42430000Y-39460000D01*
X42430000Y-41540000D02*
X42430000Y-43659000D01*
X42471000Y-37350000D02*
X42471000Y-39460000D01*
X42471000Y-41540000D02*
X42471000Y-43650000D01*
X42511000Y-37359000D02*
X42511000Y-39460000D01*
X42511000Y-41540000D02*
X42511000Y-43641000D01*
X42551000Y-37369000D02*
X42551000Y-39460000D01*
X42551000Y-41540000D02*
X42551000Y-43631000D01*
X42591000Y-37379000D02*
X42591000Y-39460000D01*
X42591000Y-41540000D02*
X42591000Y-43621000D01*
X42631000Y-37390000D02*
X42631000Y-39460000D01*
X42631000Y-41540000D02*
X42631000Y-43610000D01*
X42671000Y-37402000D02*
X42671000Y-39460000D01*
X42671000Y-41540000D02*
X42671000Y-43598000D01*
X42711000Y-37414000D02*
X42711000Y-39460000D01*
X42711000Y-41540000D02*
X42711000Y-43586000D01*
X42751000Y-37426000D02*
X42751000Y-39460000D01*
X42751000Y-41540000D02*
X42751000Y-43574000D01*
X42791000Y-37439000D02*
X42791000Y-39460000D01*
X42791000Y-41540000D02*
X42791000Y-43561000D01*
X42831000Y-37453000D02*
X42831000Y-39460000D01*
X42831000Y-41540000D02*
X42831000Y-43547000D01*
X42871000Y-37467000D02*
X42871000Y-39460000D01*
X42871000Y-41540000D02*
X42871000Y-43533000D01*
X42911000Y-37482000D02*
X42911000Y-39460000D01*
X42911000Y-41540000D02*
X42911000Y-43518000D01*
X42951000Y-37498000D02*
X42951000Y-39460000D01*
X42951000Y-41540000D02*
X42951000Y-43502000D01*
X42991000Y-37514000D02*
X42991000Y-39460000D01*
X42991000Y-41540000D02*
X42991000Y-43486000D01*
X43031000Y-37530000D02*
X43031000Y-39460000D01*
X43031000Y-41540000D02*
X43031000Y-43470000D01*
X43071000Y-37548000D02*
X43071000Y-39460000D01*
X43071000Y-41540000D02*
X43071000Y-43452000D01*
X43111000Y-37566000D02*
X43111000Y-39460000D01*
X43111000Y-41540000D02*
X43111000Y-43434000D01*
X43151000Y-37584000D02*
X43151000Y-39460000D01*
X43151000Y-41540000D02*
X43151000Y-43416000D01*
X43191000Y-37604000D02*
X43191000Y-39460000D01*
X43191000Y-41540000D02*
X43191000Y-43396000D01*
X43231000Y-37624000D02*
X43231000Y-39460000D01*
X43231000Y-41540000D02*
X43231000Y-43376000D01*
X43271000Y-37644000D02*
X43271000Y-39460000D01*
X43271000Y-41540000D02*
X43271000Y-43356000D01*
X43311000Y-37666000D02*
X43311000Y-39460000D01*
X43311000Y-41540000D02*
X43311000Y-43334000D01*
X43351000Y-37688000D02*
X43351000Y-39460000D01*
X43351000Y-41540000D02*
X43351000Y-43312000D01*
X43391000Y-37710000D02*
X43391000Y-39460000D01*
X43391000Y-41540000D02*
X43391000Y-43290000D01*
X43431000Y-37734000D02*
X43431000Y-39460000D01*
X43431000Y-41540000D02*
X43431000Y-43266000D01*
X43471000Y-37758000D02*
X43471000Y-39460000D01*
X43471000Y-41540000D02*
X43471000Y-43242000D01*
X43511000Y-37784000D02*
X43511000Y-39460000D01*
X43511000Y-41540000D02*
X43511000Y-43216000D01*
X43551000Y-37810000D02*
X43551000Y-39460000D01*
X43551000Y-41540000D02*
X43551000Y-43190000D01*
X43591000Y-37836000D02*
X43591000Y-39460000D01*
X43591000Y-41540000D02*
X43591000Y-43164000D01*
X43631000Y-37864000D02*
X43631000Y-39460000D01*
X43631000Y-41540000D02*
X43631000Y-43136000D01*
X43671000Y-37893000D02*
X43671000Y-39460000D01*
X43671000Y-41540000D02*
X43671000Y-43107000D01*
X43711000Y-37922000D02*
X43711000Y-39460000D01*
X43711000Y-41540000D02*
X43711000Y-43078000D01*
X43751000Y-37952000D02*
X43751000Y-39460000D01*
X43751000Y-41540000D02*
X43751000Y-43048000D01*
X43791000Y-37984000D02*
X43791000Y-39460000D01*
X43791000Y-41540000D02*
X43791000Y-43016000D01*
X43831000Y-38016000D02*
X43831000Y-39460000D01*
X43831000Y-41540000D02*
X43831000Y-42984000D01*
X43871000Y-38050000D02*
X43871000Y-39460000D01*
X43871000Y-41540000D02*
X43871000Y-42950000D01*
X43911000Y-38084000D02*
X43911000Y-39460000D01*
X43911000Y-41540000D02*
X43911000Y-42916000D01*
X43951000Y-38120000D02*
X43951000Y-39460000D01*
X43951000Y-41540000D02*
X43951000Y-42880000D01*
X43991000Y-38157000D02*
X43991000Y-39460000D01*
X43991000Y-41540000D02*
X43991000Y-42843000D01*
X44031000Y-38195000D02*
X44031000Y-39460000D01*
X44031000Y-41540000D02*
X44031000Y-42805000D01*
X44071000Y-38235000D02*
X44071000Y-42765000D01*
X44111000Y-38276000D02*
X44111000Y-42724000D01*
X44151000Y-38318000D02*
X44151000Y-42682000D01*
X44191000Y-38363000D02*
X44191000Y-42637000D01*
X44231000Y-38408000D02*
X44231000Y-42592000D01*
X44271000Y-38456000D02*
X44271000Y-42544000D01*
X44311000Y-38505000D02*
X44311000Y-42495000D01*
X44351000Y-38556000D02*
X44351000Y-42444000D01*
X44391000Y-38610000D02*
X44391000Y-42390000D01*
X44431000Y-38666000D02*
X44431000Y-42334000D01*
X44471000Y-38724000D02*
X44471000Y-42276000D01*
X44511000Y-38786000D02*
X44511000Y-42214000D01*
X44551000Y-38850000D02*
X44551000Y-42150000D01*
X44591000Y-38919000D02*
X44591000Y-42081000D01*
X44631000Y-38991000D02*
X44631000Y-42009000D01*
X44671000Y-39068000D02*
X44671000Y-41932000D01*
X44711000Y-39150000D02*
X44711000Y-41850000D01*
X44751000Y-39238000D02*
X44751000Y-41762000D01*
X44791000Y-39335000D02*
X44791000Y-41665000D01*
X44831000Y-39441000D02*
X44831000Y-41559000D01*
X44871000Y-39560000D02*
X44871000Y-41440000D01*
X44911000Y-39698000D02*
X44911000Y-41302000D01*
X44951000Y-39867000D02*
X44951000Y-41133000D01*
X44991000Y-40098000D02*
X44991000Y-40902000D01*
X45020000Y-40500000D02*
G75*
G03*
X38480000Y-40500000I-3270000J0D01*
G01*
X38480000Y-40500000D02*
G75*
G03*
X45020000Y-40500000I3270000J0D01*
G01*
X78580000Y-89420000D02*
X78580000Y-85580000D01*
X80420000Y-89420000D02*
X80420000Y-85580000D01*
X111660000Y-63480000D02*
X111660000Y-60740000D01*
X111660000Y-63480000D02*
X104420000Y-63480000D01*
X111660000Y-60740000D02*
X104420000Y-60740000D01*
X104420000Y-63480000D02*
X104420000Y-60740000D01*
X78080000Y-65380000D02*
X78080000Y-61540000D01*
X79920000Y-65380000D02*
X79920000Y-61540000D01*
X150550000Y-43010000D02*
X150550000Y-39170000D01*
X152390000Y-43010000D02*
X152390000Y-39170000D01*
X127580000Y-141880000D02*
X127580000Y-138040000D01*
X129420000Y-141880000D02*
X129420000Y-138040000D01*
X148750000Y-136730000D02*
X148750000Y-132890000D01*
X150590000Y-136730000D02*
X150590000Y-132890000D01*
X78670000Y-81830000D02*
X78670000Y-80500000D01*
X80000000Y-81830000D02*
X78670000Y-81830000D01*
X81270000Y-81830000D02*
X86410000Y-81830000D01*
X81270000Y-81830000D02*
X81270000Y-79170000D01*
X86410000Y-81830000D02*
X86410000Y-79170000D01*
X81270000Y-79170000D02*
X86410000Y-79170000D01*
X73840000Y-106330000D02*
X73840000Y-88430000D01*
X73840000Y-88430000D02*
X68540000Y-88430000D01*
X72190000Y-106330000D02*
X73840000Y-106330000D01*
X68540000Y-106330000D02*
X70190000Y-106330000D01*
X68540000Y-88430000D02*
X68540000Y-106330000D01*
X72190000Y-106330000D02*
G75*
G03*
X70190000Y-106330000I-1000000J0D01*
G01*
X143500000Y-37230000D02*
X143500000Y-37880000D01*
X144620000Y-37880000D02*
X142380000Y-37880000D01*
X142380000Y-37880000D02*
X142380000Y-42120000D01*
X144620000Y-38480000D02*
X142380000Y-38480000D01*
X144620000Y-38600000D02*
X142380000Y-38600000D01*
X144620000Y-38720000D02*
X142380000Y-38720000D01*
X144620000Y-42120000D02*
X144620000Y-37880000D01*
X142380000Y-42120000D02*
X144620000Y-42120000D01*
X143500000Y-42770000D02*
X143500000Y-42120000D01*
X50380000Y-134130000D02*
X50380000Y-136870000D01*
X50380000Y-134130000D02*
X57620000Y-134130000D01*
X50380000Y-136870000D02*
X57620000Y-136870000D01*
X57620000Y-134130000D02*
X57620000Y-136870000D01*
X78080000Y-56880000D02*
X78080000Y-53040000D01*
X79920000Y-56880000D02*
X79920000Y-53040000D01*
X122580000Y-85080000D02*
X126420000Y-85080000D01*
X122580000Y-86920000D02*
X126420000Y-86920000D01*
X138580000Y-52380000D02*
X138580000Y-48540000D01*
X140420000Y-52380000D02*
X140420000Y-48540000D01*
X86420000Y-85590000D02*
X86420000Y-89430000D01*
X84580000Y-85590000D02*
X84580000Y-89430000D01*
D16*
X131490000Y-75820000D02*
X131490000Y-75820000D01*
X131590000Y-75820000D02*
X131590000Y-75820000D01*
D17*
X132040000Y-72870000D02*
X132040000Y-78770000D01*
X132040000Y-78770000D02*
X139940000Y-78770000D01*
X139940000Y-72870000D02*
X132040000Y-72870000D01*
X139940000Y-78770000D02*
X139940000Y-72870000D01*
D16*
X131590000Y-75820000D02*
G75*
G03*
X131490000Y-75820000I-50000J0D01*
G01*
X131490000Y-75820000D02*
G75*
G03*
X131590000Y-75820000I50000J0D01*
G01*
D14*
X134080000Y-69080000D02*
X137920000Y-69080000D01*
X134080000Y-70920000D02*
X137920000Y-70920000D01*
X148290000Y-149075000D02*
X148290000Y-141335000D01*
X148290000Y-141335000D02*
X142990000Y-141335000D01*
X146640000Y-149075000D02*
X148290000Y-149075000D01*
X142990000Y-149075000D02*
X144640000Y-149075000D01*
X142990000Y-141335000D02*
X142990000Y-149075000D01*
X146640000Y-149075000D02*
G75*
G03*
X144640000Y-149075000I-1000000J0D01*
G01*
X113180000Y-164610000D02*
X113180000Y-146710000D01*
X113180000Y-146710000D02*
X107880000Y-146710000D01*
X111530000Y-164610000D02*
X113180000Y-164610000D01*
X107880000Y-164610000D02*
X109530000Y-164610000D01*
X107880000Y-146710000D02*
X107880000Y-164610000D01*
X111530000Y-164610000D02*
G75*
G03*
X109530000Y-164610000I-1000000J0D01*
G01*
X57840000Y-169160000D02*
X57840000Y-166420000D01*
X57840000Y-169160000D02*
X50600000Y-169160000D01*
X57840000Y-166420000D02*
X50600000Y-166420000D01*
X50600000Y-169160000D02*
X50600000Y-166420000D01*
X50380000Y-83130000D02*
X50380000Y-85870000D01*
X50380000Y-83130000D02*
X57620000Y-83130000D01*
X50380000Y-85870000D02*
X57620000Y-85870000D01*
X57620000Y-83130000D02*
X57620000Y-85870000D01*
X126080000Y-169380000D02*
X126080000Y-165540000D01*
X127920000Y-169380000D02*
X127920000Y-165540000D01*
X137661000Y-172250241D02*
X137661000Y-171620241D01*
X137346000Y-171935241D02*
X137976000Y-171935241D01*
X136270000Y-168750000D02*
X142730000Y-168750000D01*
X136270000Y-168710000D02*
X142730000Y-168710000D01*
X136270000Y-168670000D02*
X142730000Y-168670000D01*
X136272000Y-168630000D02*
X142728000Y-168630000D01*
X136273000Y-168590000D02*
X142727000Y-168590000D01*
X136276000Y-168550000D02*
X142724000Y-168550000D01*
X136278000Y-168510000D02*
X138460000Y-168510000D01*
X140540000Y-168510000D02*
X142722000Y-168510000D01*
X136282000Y-168470000D02*
X138460000Y-168470000D01*
X140540000Y-168470000D02*
X142718000Y-168470000D01*
X136285000Y-168430000D02*
X138460000Y-168430000D01*
X140540000Y-168430000D02*
X142715000Y-168430000D01*
X136289000Y-168390000D02*
X138460000Y-168390000D01*
X140540000Y-168390000D02*
X142711000Y-168390000D01*
X136294000Y-168350000D02*
X138460000Y-168350000D01*
X140540000Y-168350000D02*
X142706000Y-168350000D01*
X136299000Y-168310000D02*
X138460000Y-168310000D01*
X140540000Y-168310000D02*
X142701000Y-168310000D01*
X136305000Y-168270000D02*
X138460000Y-168270000D01*
X140540000Y-168270000D02*
X142695000Y-168270000D01*
X136311000Y-168230000D02*
X138460000Y-168230000D01*
X140540000Y-168230000D02*
X142689000Y-168230000D01*
X136318000Y-168190000D02*
X138460000Y-168190000D01*
X140540000Y-168190000D02*
X142682000Y-168190000D01*
X136325000Y-168150000D02*
X138460000Y-168150000D01*
X140540000Y-168150000D02*
X142675000Y-168150000D01*
X136333000Y-168110000D02*
X138460000Y-168110000D01*
X140540000Y-168110000D02*
X142667000Y-168110000D01*
X136341000Y-168070000D02*
X138460000Y-168070000D01*
X140540000Y-168070000D02*
X142659000Y-168070000D01*
X136350000Y-168029000D02*
X138460000Y-168029000D01*
X140540000Y-168029000D02*
X142650000Y-168029000D01*
X136359000Y-167989000D02*
X138460000Y-167989000D01*
X140540000Y-167989000D02*
X142641000Y-167989000D01*
X136369000Y-167949000D02*
X138460000Y-167949000D01*
X140540000Y-167949000D02*
X142631000Y-167949000D01*
X136379000Y-167909000D02*
X138460000Y-167909000D01*
X140540000Y-167909000D02*
X142621000Y-167909000D01*
X136390000Y-167869000D02*
X138460000Y-167869000D01*
X140540000Y-167869000D02*
X142610000Y-167869000D01*
X136402000Y-167829000D02*
X138460000Y-167829000D01*
X140540000Y-167829000D02*
X142598000Y-167829000D01*
X136414000Y-167789000D02*
X138460000Y-167789000D01*
X140540000Y-167789000D02*
X142586000Y-167789000D01*
X136426000Y-167749000D02*
X138460000Y-167749000D01*
X140540000Y-167749000D02*
X142574000Y-167749000D01*
X136439000Y-167709000D02*
X138460000Y-167709000D01*
X140540000Y-167709000D02*
X142561000Y-167709000D01*
X136453000Y-167669000D02*
X138460000Y-167669000D01*
X140540000Y-167669000D02*
X142547000Y-167669000D01*
X136467000Y-167629000D02*
X138460000Y-167629000D01*
X140540000Y-167629000D02*
X142533000Y-167629000D01*
X136482000Y-167589000D02*
X138460000Y-167589000D01*
X140540000Y-167589000D02*
X142518000Y-167589000D01*
X136498000Y-167549000D02*
X138460000Y-167549000D01*
X140540000Y-167549000D02*
X142502000Y-167549000D01*
X136514000Y-167509000D02*
X138460000Y-167509000D01*
X140540000Y-167509000D02*
X142486000Y-167509000D01*
X136530000Y-167469000D02*
X138460000Y-167469000D01*
X140540000Y-167469000D02*
X142470000Y-167469000D01*
X136548000Y-167429000D02*
X138460000Y-167429000D01*
X140540000Y-167429000D02*
X142452000Y-167429000D01*
X136566000Y-167389000D02*
X138460000Y-167389000D01*
X140540000Y-167389000D02*
X142434000Y-167389000D01*
X136584000Y-167349000D02*
X138460000Y-167349000D01*
X140540000Y-167349000D02*
X142416000Y-167349000D01*
X136604000Y-167309000D02*
X138460000Y-167309000D01*
X140540000Y-167309000D02*
X142396000Y-167309000D01*
X136624000Y-167269000D02*
X138460000Y-167269000D01*
X140540000Y-167269000D02*
X142376000Y-167269000D01*
X136644000Y-167229000D02*
X138460000Y-167229000D01*
X140540000Y-167229000D02*
X142356000Y-167229000D01*
X136666000Y-167189000D02*
X138460000Y-167189000D01*
X140540000Y-167189000D02*
X142334000Y-167189000D01*
X136688000Y-167149000D02*
X138460000Y-167149000D01*
X140540000Y-167149000D02*
X142312000Y-167149000D01*
X136710000Y-167109000D02*
X138460000Y-167109000D01*
X140540000Y-167109000D02*
X142290000Y-167109000D01*
X136734000Y-167069000D02*
X138460000Y-167069000D01*
X140540000Y-167069000D02*
X142266000Y-167069000D01*
X136758000Y-167029000D02*
X138460000Y-167029000D01*
X140540000Y-167029000D02*
X142242000Y-167029000D01*
X136784000Y-166989000D02*
X138460000Y-166989000D01*
X140540000Y-166989000D02*
X142216000Y-166989000D01*
X136810000Y-166949000D02*
X138460000Y-166949000D01*
X140540000Y-166949000D02*
X142190000Y-166949000D01*
X136836000Y-166909000D02*
X138460000Y-166909000D01*
X140540000Y-166909000D02*
X142164000Y-166909000D01*
X136864000Y-166869000D02*
X138460000Y-166869000D01*
X140540000Y-166869000D02*
X142136000Y-166869000D01*
X136893000Y-166829000D02*
X138460000Y-166829000D01*
X140540000Y-166829000D02*
X142107000Y-166829000D01*
X136922000Y-166789000D02*
X138460000Y-166789000D01*
X140540000Y-166789000D02*
X142078000Y-166789000D01*
X136952000Y-166749000D02*
X138460000Y-166749000D01*
X140540000Y-166749000D02*
X142048000Y-166749000D01*
X136984000Y-166709000D02*
X138460000Y-166709000D01*
X140540000Y-166709000D02*
X142016000Y-166709000D01*
X137016000Y-166669000D02*
X138460000Y-166669000D01*
X140540000Y-166669000D02*
X141984000Y-166669000D01*
X137050000Y-166629000D02*
X138460000Y-166629000D01*
X140540000Y-166629000D02*
X141950000Y-166629000D01*
X137084000Y-166589000D02*
X138460000Y-166589000D01*
X140540000Y-166589000D02*
X141916000Y-166589000D01*
X137120000Y-166549000D02*
X138460000Y-166549000D01*
X140540000Y-166549000D02*
X141880000Y-166549000D01*
X137157000Y-166509000D02*
X138460000Y-166509000D01*
X140540000Y-166509000D02*
X141843000Y-166509000D01*
X137195000Y-166469000D02*
X138460000Y-166469000D01*
X140540000Y-166469000D02*
X141805000Y-166469000D01*
X137235000Y-166429000D02*
X141765000Y-166429000D01*
X137276000Y-166389000D02*
X141724000Y-166389000D01*
X137318000Y-166349000D02*
X141682000Y-166349000D01*
X137363000Y-166309000D02*
X141637000Y-166309000D01*
X137408000Y-166269000D02*
X141592000Y-166269000D01*
X137456000Y-166229000D02*
X141544000Y-166229000D01*
X137505000Y-166189000D02*
X141495000Y-166189000D01*
X137556000Y-166149000D02*
X141444000Y-166149000D01*
X137610000Y-166109000D02*
X141390000Y-166109000D01*
X137666000Y-166069000D02*
X141334000Y-166069000D01*
X137724000Y-166029000D02*
X141276000Y-166029000D01*
X137786000Y-165989000D02*
X141214000Y-165989000D01*
X137850000Y-165949000D02*
X141150000Y-165949000D01*
X137919000Y-165909000D02*
X141081000Y-165909000D01*
X137991000Y-165869000D02*
X141009000Y-165869000D01*
X138068000Y-165829000D02*
X140932000Y-165829000D01*
X138150000Y-165789000D02*
X140850000Y-165789000D01*
X138238000Y-165749000D02*
X140762000Y-165749000D01*
X138335000Y-165709000D02*
X140665000Y-165709000D01*
X138441000Y-165669000D02*
X140559000Y-165669000D01*
X138560000Y-165629000D02*
X140440000Y-165629000D01*
X138698000Y-165589000D02*
X140302000Y-165589000D01*
X138867000Y-165549000D02*
X140133000Y-165549000D01*
X139098000Y-165509000D02*
X139902000Y-165509000D01*
X142770000Y-168750000D02*
G75*
G03*
X136230000Y-168750000I-3270000J0D01*
G01*
X136230000Y-168750000D02*
G75*
G03*
X142770000Y-168750000I3270000J0D01*
G01*
X87380000Y-60630000D02*
X87380000Y-63370000D01*
X87380000Y-60630000D02*
X94620000Y-60630000D01*
X87380000Y-63370000D02*
X94620000Y-63370000D01*
X94620000Y-60630000D02*
X94620000Y-63370000D01*
X130580000Y-52380000D02*
X130580000Y-48540000D01*
X132420000Y-52380000D02*
X132420000Y-48540000D01*
X126060000Y-66970000D02*
X122220000Y-66970000D01*
X126060000Y-65130000D02*
X122220000Y-65130000D01*
X124580000Y-141880000D02*
X124580000Y-138040000D01*
X126420000Y-141880000D02*
X126420000Y-138040000D01*
X138580000Y-43380000D02*
X138580000Y-39540000D01*
X140420000Y-43380000D02*
X140420000Y-39540000D01*
X123080000Y-169380000D02*
X123080000Y-165540000D01*
X124920000Y-169380000D02*
X124920000Y-165540000D01*
X166680000Y-110620000D02*
X154080000Y-110620000D01*
X154080000Y-110620000D02*
X154080000Y-124620000D01*
X166680000Y-124620000D02*
X166680000Y-110620000D01*
X154080000Y-124620000D02*
X166680000Y-124620000D01*
X149080000Y-65920000D02*
X149080000Y-62080000D01*
X150920000Y-65920000D02*
X150920000Y-62080000D01*
X75200000Y-169110000D02*
X75200000Y-166370000D01*
X75200000Y-169110000D02*
X67960000Y-169110000D01*
X75200000Y-166370000D02*
X67960000Y-166370000D01*
X67960000Y-169110000D02*
X67960000Y-166370000D01*
X136410000Y-39540000D02*
X136410000Y-43380000D01*
X134570000Y-39540000D02*
X134570000Y-43380000D01*
D18*
X156000000Y-73122500D02*
X164500000Y-73122500D01*
X164500000Y-73122500D02*
X164500000Y-63122500D01*
X156000000Y-63122500D02*
X156000000Y-73122500D01*
X164500000Y-63122500D02*
X156000000Y-63122500D01*
D17*
X162400000Y-74232500D02*
G75*
G03*
X162200000Y-74232500I-100000J0D01*
G01*
X162200000Y-74232500D02*
G75*
G03*
X162400000Y-74232500I100000J0D01*
G01*
D14*
X67880000Y-82630000D02*
X67880000Y-85370000D01*
X67880000Y-82630000D02*
X75120000Y-82630000D01*
X67880000Y-85370000D02*
X75120000Y-85370000D01*
X75120000Y-82630000D02*
X75120000Y-85370000D01*
X118630000Y-165870000D02*
X119335000Y-165870000D01*
X118630000Y-165870000D02*
X118630000Y-161630000D01*
X120665000Y-165870000D02*
X121370000Y-165870000D01*
X121370000Y-165870000D02*
X121370000Y-161630000D01*
X118630000Y-161630000D02*
X119335000Y-161630000D01*
X120665000Y-161630000D02*
X121370000Y-161630000D01*
X97820000Y-164900000D02*
X97820000Y-147000000D01*
X97820000Y-147000000D02*
X92520000Y-147000000D01*
X96170000Y-164900000D02*
X97820000Y-164900000D01*
X92520000Y-164900000D02*
X94170000Y-164900000D01*
X92520000Y-147000000D02*
X92520000Y-164900000D01*
X96170000Y-164900000D02*
G75*
G03*
X94170000Y-164900000I-1000000J0D01*
G01*
X149000000Y-55000000D02*
G75*
G03*
X146000000Y-55000000I-1500000J0D01*
G01*
X146000000Y-55000000D02*
G75*
G03*
X149000000Y-55000000I1500000J0D01*
G01*
X73840000Y-81910000D02*
X73840000Y-64010000D01*
X73840000Y-64010000D02*
X68540000Y-64010000D01*
X72190000Y-81910000D02*
X73840000Y-81910000D01*
X68540000Y-81910000D02*
X70190000Y-81910000D01*
X68540000Y-64010000D02*
X68540000Y-81910000D01*
X72190000Y-81910000D02*
G75*
G03*
X70190000Y-81910000I-1000000J0D01*
G01*
X56960000Y-164910000D02*
X56960000Y-139390000D01*
X56960000Y-139390000D02*
X51660000Y-139390000D01*
X55310000Y-164910000D02*
X56960000Y-164910000D01*
X51660000Y-164910000D02*
X53310000Y-164910000D01*
X51660000Y-139390000D02*
X51660000Y-164910000D01*
X55310000Y-164910000D02*
G75*
G03*
X53310000Y-164910000I-1000000J0D01*
G01*
X91560000Y-167040000D02*
X91560000Y-169780000D01*
X91560000Y-167040000D02*
X98800000Y-167040000D01*
X91560000Y-169780000D02*
X98800000Y-169780000D01*
X98800000Y-167040000D02*
X98800000Y-169780000D01*
X56440000Y-108570000D02*
X56440000Y-88130000D01*
X56440000Y-88130000D02*
X51140000Y-88130000D01*
X54790000Y-108570000D02*
X56440000Y-108570000D01*
X51140000Y-108570000D02*
X52790000Y-108570000D01*
X51140000Y-88130000D02*
X51140000Y-108570000D01*
X54790000Y-108570000D02*
G75*
G03*
X52790000Y-108570000I-1000000J0D01*
G01*
X130580000Y-43420000D02*
X130580000Y-39580000D01*
X132420000Y-43420000D02*
X132420000Y-39580000D01*
X37330000Y-49430000D02*
X37330000Y-52170000D01*
X37330000Y-49430000D02*
X44570000Y-49430000D01*
X37330000Y-52170000D02*
X44570000Y-52170000D01*
X44570000Y-49430000D02*
X44570000Y-52170000D01*
X166680000Y-128440000D02*
X154080000Y-128440000D01*
X154080000Y-128440000D02*
X154080000Y-142440000D01*
X166680000Y-142440000D02*
X166680000Y-128440000D01*
X154080000Y-142440000D02*
X166680000Y-142440000D01*
X122580000Y-89580000D02*
X126420000Y-89580000D01*
X122580000Y-91420000D02*
X126420000Y-91420000D01*
X134500000Y-58000000D02*
G75*
G03*
X131500000Y-58000000I-1500000J0D01*
G01*
X131500000Y-58000000D02*
G75*
G03*
X134500000Y-58000000I1500000J0D01*
G01*
X110860000Y-83830000D02*
X110860000Y-65930000D01*
X110860000Y-65930000D02*
X105560000Y-65930000D01*
X109210000Y-83830000D02*
X110860000Y-83830000D01*
X105560000Y-83830000D02*
X107210000Y-83830000D01*
X105560000Y-65930000D02*
X105560000Y-83830000D01*
X109210000Y-83830000D02*
G75*
G03*
X107210000Y-83830000I-1000000J0D01*
G01*
X49880000Y-58630000D02*
X49880000Y-61370000D01*
X49880000Y-58630000D02*
X57120000Y-58630000D01*
X49880000Y-61370000D02*
X57120000Y-61370000D01*
X57120000Y-58630000D02*
X57120000Y-61370000D01*
X147470000Y-42750000D02*
X147470000Y-42100000D01*
X146350000Y-42100000D02*
X148590000Y-42100000D01*
X148590000Y-42100000D02*
X148590000Y-37860000D01*
X146350000Y-41500000D02*
X148590000Y-41500000D01*
X146350000Y-41380000D02*
X148590000Y-41380000D01*
X146350000Y-41260000D02*
X148590000Y-41260000D01*
X146350000Y-37860000D02*
X146350000Y-42100000D01*
X148590000Y-37860000D02*
X146350000Y-37860000D01*
X147470000Y-37210000D02*
X147470000Y-37860000D01*
X147520000Y-157590000D02*
X147520000Y-158240000D01*
X148640000Y-158240000D02*
X146400000Y-158240000D01*
X146400000Y-158240000D02*
X146400000Y-162480000D01*
X148640000Y-158840000D02*
X146400000Y-158840000D01*
X148640000Y-158960000D02*
X146400000Y-158960000D01*
X148640000Y-159080000D02*
X146400000Y-159080000D01*
X148640000Y-162480000D02*
X148640000Y-158240000D01*
X146400000Y-162480000D02*
X148640000Y-162480000D01*
X147520000Y-163130000D02*
X147520000Y-162480000D01*
D17*
X128790000Y-58550000D02*
X121100000Y-58550000D01*
X127700000Y-49450000D02*
X121100000Y-49450000D01*
D14*
X56440000Y-132830000D02*
X56440000Y-114930000D01*
X56440000Y-114930000D02*
X51140000Y-114930000D01*
X54790000Y-132830000D02*
X56440000Y-132830000D01*
X51140000Y-132830000D02*
X52790000Y-132830000D01*
X51140000Y-114930000D02*
X51140000Y-132830000D01*
X54790000Y-132830000D02*
G75*
G03*
X52790000Y-132830000I-1000000J0D01*
G01*
X121830000Y-133950000D02*
X121830000Y-121850000D01*
X121950000Y-133950000D02*
X121830000Y-133950000D01*
X121950000Y-133600000D02*
X121950000Y-122200000D01*
X128600000Y-133600000D02*
X121950000Y-133600000D01*
X121100000Y-130350000D02*
X121100000Y-130350000D01*
X121950000Y-130350000D02*
X121100000Y-130350000D01*
X121100000Y-125450000D02*
X121100000Y-125450000D01*
X121950000Y-125450000D02*
X121100000Y-125450000D01*
X121950000Y-122200000D02*
X128600000Y-122200000D01*
X121830000Y-121850000D02*
X121950000Y-121850000D01*
X121950000Y-121850000D02*
X121950000Y-133950000D01*
D15*
X141120400Y-67374200D02*
X144879600Y-67374200D01*
X141120400Y-61125800D02*
X141120400Y-67374200D01*
X141120400Y-61125800D02*
X144879600Y-61125800D01*
X144879600Y-61125800D02*
X144879600Y-67374200D01*
D14*
X49880000Y-109630000D02*
X49880000Y-112370000D01*
X49880000Y-109630000D02*
X57120000Y-109630000D01*
X49880000Y-112370000D02*
X57120000Y-112370000D01*
X57120000Y-109630000D02*
X57120000Y-112370000D01*
D18*
X156010000Y-88020000D02*
X164510000Y-88020000D01*
X164510000Y-88020000D02*
X164510000Y-78020000D01*
X156010000Y-78020000D02*
X156010000Y-88020000D01*
X164510000Y-78020000D02*
X156010000Y-78020000D01*
D17*
X162410000Y-89130000D02*
G75*
G03*
X162210000Y-89130000I-100000J0D01*
G01*
X162210000Y-89130000D02*
G75*
G03*
X162410000Y-89130000I100000J0D01*
G01*
D14*
X36880000Y-54630000D02*
X36880000Y-57370000D01*
X36880000Y-54630000D02*
X44120000Y-54630000D01*
X36880000Y-57370000D02*
X44120000Y-57370000D01*
X44120000Y-54630000D02*
X44120000Y-57370000D01*
M02*
